<svg xmlns="http://www.w3.org/2000/svg" xmlns:xlink="http://www.w3.org/1999/xlink" version="1.1" width="841.89pt" height="595.276pt" viewBox="0 0 841.89 595.276">
<defs>
<clipPath id="clip_1">
<path transform="matrix(1,0,0,-1,0,595.276)" d="M0 595.276H841.89V0H0Z"/>
</clipPath>
</defs>
<g id="layer_1" data-name="Livello 1">
<g clip-path="url(#clip_1)">
<path transform="matrix(1,0,0,-1,313.7268,455.24409)" d="M0 0C.114 .229 .639 .476 .534 1.002L2.029 .253 0-1.012C.051-.695-.052-.317 0 0"/>
<path transform="matrix(1,0,0,-1,361.2763,275.5787)" d="M0 0C.023 .165-.017 .339 0 .506L.496 .253Z"/>
<path transform="matrix(1,0,0,-1,490.2671,233.06632)" d="M0 0C.073-.03-.074-.443 0-.506L-1.002-.764Z"/>
<path transform="matrix(1,0,0,-1,480.1502,221.426)" d="M0 0C.065-.148-.076-.467 0-.506L-.496-.253C-.396 .012-.235 0 0 0"/>
<path transform="matrix(1,0,0,-1,480.1502,221.9321)" d="M0 0C-.076 .039 .065 .358 0 .506 .235 .506 .396 .518 .496 .253Z"/>
<path transform="matrix(1,0,0,-1,511.0068,321.12773)" d="M0 0 .253 .496 .506 0C.397 .063 .169-.041 0 0"/>
<path transform="matrix(1,0,0,-1,511.5127,321.6338)" d="M0 0C-.068 .031 .069 .466 0 .506L.496 .253C.387 .055 .199-.09 0 0"/>
<path transform="matrix(1,0,0,-1,473.0684,333.7802)" d="M0 0H1.012C.943-.027 .492-1.305 0 0"/>
<path transform="matrix(1,0,0,-1,493.3022,330.7435)" d="M0 0H.506C-.209-.122 .056 .006 0 0"/>
<path transform="matrix(1,0,0,-1,397.6973,244.2005)" d="M0 0C.062 .027-.062 .479 0 .506L.496 .253C.484-.068 .011 .025 0 0"/>
<path transform="matrix(1,0,0,-1,312.705,470.68513)" d="M0 0-.754 .754-.991 .516C-.669 .236-.332-.503 0 0M.506-41.5-.248-40.746-.486-40.984C-.164-41.264 .174-42.003 .506-41.5M-.493-18.969H.51399996V-18.473H-.493ZM2.033-2.019H1.528C1.696-2.348 1.865-2.348 2.033-2.019M3.045-3.032H2.539C2.708-3.36 2.877-3.36 3.045-3.032M4.563-4.044H4.057C4.225-4.372 4.394-4.372 4.563-4.044M4.563 14.176H4.057C4.225 13.847 4.394 13.847 4.563 14.176M6.08 8.103H5.574C5.743 7.774 5.912 7.774 6.08 8.103M5.074 13.923 6.08 14.93 5.071 14.932ZM9.11 26.067H8.613999V25.06H9.11ZM9.621 28.853H9.115C9.284 28.524 9.453 28.524 9.621 28.853M9.621 30.371H9.115C9.284 30.042 9.453 30.042 9.621 30.371M10.127 33.408H9.621C9.79 33.079 9.958 33.079 10.127 33.408M12.651 56.939H12.155V55.932H12.651ZM13.162 57.7H12.656C12.825 57.372 12.993 57.372 13.162 57.7M12.659 126.282H13.666V126.778H12.659ZM19.738 150.317H19.232C19.401 149.988 19.569 149.988 19.738 150.317M20.244 104.768H19.738C19.907 104.439 20.075 104.439 20.244 104.768M23.785 33.914H23.279C23.448 33.585 23.616 33.585 23.785 33.914M23.282 158.672H24.289V159.168H23.282ZM25.302 108.31H24.797C24.965 107.982 25.134 107.982 25.302 108.31M29.855 108.816H29.349C29.518 108.488 29.686 108.488 29.855 108.816M31.375 33.666H32.382V34.162H31.375ZM33.396 169.042H32.89C33.059 168.714 33.227 168.714 33.396 169.042M35.925 177.14H35.419C35.588 176.811 35.757 176.811 35.925 177.14M40.478 182.201H39.972C40.141 181.872 40.309 181.872 40.478 182.201M41.489 184.225H40.984C41.152 183.897 41.321 183.897 41.489 184.225M41.995 30.371H41.489C41.658 30.042 41.827 30.042 41.995 30.371M41.995 113.877H41.489C41.658 113.549 41.827 113.549 41.995 113.877M42.501 115.396H41.995C42.164 115.067 42.333 115.067 42.501 115.396M44.519 185.488H44.023004V183.975H44.519ZM46.042 27.84H45.536C45.705 27.512 45.873 27.512 46.042 27.84M47.054 27.84H46.548C46.717 27.512 46.885 27.512 47.054 27.84M48.574 189.544H50.087V190.04001H48.574ZM50.595 26.828H50.089C50.257 26.5 50.426 26.5 50.595 26.828M50.585 118.427 49.831 119.181 49.593 118.943C49.915 118.663 50.252 117.924 50.585 118.427M51.101 121.469H50.595C50.763 121.14 50.932 121.14 51.101 121.469M51.101 191.311H50.595C50.763 190.982 50.932 190.982 51.101 191.311M52.112 25.816H51.606C51.775 25.487 51.944 25.487 52.112 25.816M57.166 24.042H56.670003V23.035H57.166ZM57.679 22.529 58.686 22.777 57.682 23.538ZM65.773 209.282H66.78V209.778H65.773ZM67.288 19.237H66.782C66.95 18.908 67.119 18.908 67.288 19.237M73.864 17.718H73.358C73.526 17.39 73.695 17.39 73.864 17.718M81.957 13.67H81.451C81.62 13.341 81.789 13.341 81.957 13.67M84.991 130.332 84.99 131.841C82.997 132.156 84.984 129.954 82.979 130.583 83.198 129.625 84.91 130.212 84.991 130.332M84.992 403.367H84.486C84.655 403.038 84.824 403.038 84.992 403.367M87.016 131.591H86.51C86.678 131.262 86.847 131.262 87.016 131.591M89.034 8.862 89.036 10.377H88.03L88.032 9.628ZM91.06 126.28 91.057 127.289 90.053 126.527ZM91.568 9.115H91.062C91.231 8.786 91.4 8.786 91.568 9.115M91.566 9.877 91.563 10.886 90.559 10.124ZM91.065 382.369H92.07201V382.865H91.065ZM93.086 9.115H92.58C92.749 8.786 92.917 8.786 93.086 9.115M94.098 337.067H93.592C93.76 336.739 93.929 336.739 94.098 337.067M95.109 304.171H94.603C94.772 303.842 94.941 303.842 95.109 304.171M95.109 319.354H94.603C94.772 319.025 94.941 319.025 95.109 319.354M96.121 290.506H95.615C95.784 290.178 95.952 290.178 96.121 290.506M96.116 323.147H95.619998V322.14H96.116ZM96.622 8.356 96.624 9.365 95.615 9.363ZM101.685 328.97H101.179C101.348 328.641 101.517 328.641 101.685 328.97M104.214 130.073H103.709C103.877 129.744 104.046 129.744 104.214 130.073M105.037 382.478 104.727 383.878C104.264 381.88 102.142 380.452 102.439 378.325ZM107.249 6.078H106.744C106.912 5.75 107.081 5.75 107.249 6.078M108.261 132.097H107.755C107.924 131.768 108.093 131.768 108.261 132.097M111.296 2.535H110.79C110.959 2.207 111.128 2.207 111.296 2.535M110.287 129.825 111.036 129.824 112.298 131.09C111.752 131.21 109.86 130.027 110.287 129.825M107.442 368.01C106.805 367.135 106.598 366.051 105.971 365.171 105.408 364.38 104.247 364.163 103.908 363.419 103.646 362.843 102.869 358.935 103.968 358.58 106.905 358.603 106.355 362.097 106.983 363.652 107.428 364.754 108.341 366.84 108.899 367.807 109.646 369.099 112.005 371.311 112.304 371.995 113.11 373.844 109.674 371.399 109.301 370.95 108.682 370.204 108.197 369.048 107.442 368.01M111.299 373.762 112.308 373.765 111.796 375.275H111.301ZM113.32 137.664H112.814C112.982 137.335 113.151 137.335 113.32 137.664M113.32 374.013H112.814C112.982 373.684 113.151 373.684 113.32 374.013M114.331 363.891H113.826C113.994 363.562 114.163 363.562 114.331 363.891M115.338 1.774H114.841999V.7670001H115.338ZM115.849 .005H115.343C115.512-.324 115.68-.324 115.849 .005M117.872 365.409H117.366C117.535 365.08 117.704 365.08 117.872 365.409M117.369 133.874H118.37601V134.37H117.369ZM118.884 396.787H118.378C118.547 396.459 118.715 396.459 118.884 396.787M119.39 1.017H118.884C119.053 .689 119.221 .689 119.39 1.017M118.887 133.874H119.894V134.37H118.887ZM121.914 136.396H121.418V135.38899H121.914ZM126.472 366.927H125.966C126.134 366.599 126.303 366.599 126.472 366.927M126.977-46.05H126.472C126.64-46.379 126.809-46.379 126.977-46.05M127.989 137.664H127.483C127.652 137.335 127.821 137.335 127.989 137.664M128 371.1C128.345 371.1 128.624 371.38 128.624 371.725 128.624 372.07 128.345 372.35 128 372.35 127.655 372.35 127.375 372.07 127.375 371.725 127.375 371.38 127.655 371.1 128 371.1M131.024-1.007H130.518C130.687-1.336 130.856-1.336 131.024-1.007M131.52 134.116 130.766 134.87 130.529 134.633C130.851 134.352 131.188 133.613 131.52 134.116M131.53 391.22H131.024C131.193 390.891 131.361 390.891 131.53 391.22M131.024 373.254C130.969 373.241 130.965 373.591 130.518 373.254 129.137 372.211 129.938 370.767 128.994 369.715 128.482 369.143 128.665 371.502 127.484 370.718L128.495 369.214 126.482 367.935C127.65 368.332 127.437 367.18 127.736 367.166 128.917 367.112 130.017 369.052 130.101 370.11L130.948 369.948C130.4 371.151 131.721 371.85 132.044 372.995 132.443 374.411 131.417 373.346 131.024 373.254M131.027 405.649H132.034V406.145H131.027ZM132.537 374.266 132.539 375.275 131.53 375.273ZM133.048 405.897H132.542C132.71 405.568 132.879 405.568 133.048 405.897M133.553 375.531H133.048C133.216 375.202 133.385 375.202 133.553 375.531M132.542 377.813C133.499 377.646 134.226 378.404 134.054 379.327ZM134.565 380.592H134.059C134.228 380.263 134.397 380.263 134.565 380.592M135.577 380.086H135.071C135.24 379.757 135.408 379.757 135.577 380.086M135.572 405.641H135.076V404.128H135.572ZM135.579-2.773H136.586V-2.277H135.579ZM136.589 391.726H136.083C136.251 391.398 136.42 391.398 136.589 391.726M137.6 405.391H137.094C137.263 405.062 137.432 405.062 137.6 405.391M136.591 379.835C137.866 379.71 138.297 380.641 138.103 381.855H137.102ZM138.109 382.875H139.116V383.371H138.109ZM140.635-48.581H140.129C140.298-48.909 140.467-48.909 140.635-48.581M137.096 371.232C138.99 371.59 140.846 373.201 140.633 375.276 137.939 374.907 137.277 373.832 137.096 371.232M141.141 142.219H140.635C140.804 141.89 140.973 141.89 141.141 142.219M141.141 377.555H140.635C140.804 377.227 140.973 377.227 141.141 377.555M144.176 342.635H143.67C143.839 342.306 144.008 342.306 144.176 342.635M145.694-5.056H145.188C145.357-5.385 145.525-5.385 145.694-5.056M146.2 381.098H145.694C145.862 380.77 146.031 380.77 146.2 381.098M145.191 139.441 145.939 139.44 146.695 140.2 145.191 139.936ZM147.206 348.455 147.209 349.464 146.2 349.462ZM147.206 350.479 147.209 351.489 146.2 351.486ZM147.211 387.171H146.706C146.874 386.843 147.043 386.843 147.211 387.171M147.717 337.574H147.211C147.38 337.245 147.549 337.245 147.717 337.574M147.717 338.586H147.211C147.38 338.257 147.549 338.257 147.717 338.586M146.708 364.655H147.715V365.151H146.708ZM146.708 367.689 147.715 367.937 146.711 368.699ZM148.22 142.974 145.704 141.708C146.31 141.604 148.755 142.715 148.22 142.974M148.223 336.055H147.717C147.886 335.727 148.054 335.727 148.223 336.055M148.22 343.902 147.973 345.416 147.216 344.651 147.214 343.902ZM148.218 351.995H147.722V350.988H148.218ZM146.71 353.01C147.844 353.414 148.005 355.037 148.219 356.043 147.355 355.748 146.831 353.822 146.71 353.01M148.729 350.226H148.223C148.392 349.897 148.56 349.897 148.729 350.226M147.221 359.087C148.294 359.497 148.911 360.458 148.731 361.611L145.936 362.105C145.397 360.406 147.046 360.459 147.221 359.087M148.729 362.879H148.223C148.392 362.55 148.56 362.55 148.729 362.879M148.729 364.903H148.223C148.392 364.574 148.56 364.574 148.729 364.903M149.235-4.55H148.729C148.897-4.879 149.066-4.879 149.235-4.55M149.23 285.195 148.476 286.7 147.727 285.947 148.632 286.049ZM148.595 340.498C148.914 340.836 149.467 342.079 149.23 342.381L146.705 340.854C146.939 339.753 147.926 339.789 148.595 340.498M148.226 342.893H149.233V343.389H148.226ZM149.235 344.659H148.729C148.897 344.33 149.066 344.33 149.235 344.659M149.225 346.172 148.471 346.926 148.233 346.688C148.555 346.408 148.892 345.669 149.225 346.172M149.741 136.146H149.235C149.403 135.817 149.572 135.817 149.741 136.146M148.731 140.959H149.738V141.455H148.731ZM148.731 142.477H149.738V142.973H148.731ZM150.246-5.562H149.741C149.909-5.891 150.078-5.891 150.246-5.562M149.235 385.906C149.302 386.026 150.877 385.623 150.242 387.933L148.733 387.929 149.235 385.906 147.243 385.358C148.22 384.069 146.195 384.679 146.711 382.87 149.91 383.279 148.722 384.987 149.235 385.906M151.253-7.333V-5.815L149.744-6.327V-6.821ZM150.757 389.449C151.763 389.719 151.894 390.529 151.759 391.473 150.754 391.203 150.622 390.393 150.757 389.449M152.27 265.707H151.764C151.933 265.379 152.101 265.379 152.27 265.707M152.27 403.873H151.764C151.933 403.544 152.101 403.544 152.27 403.873M152.776-7.587H152.27C152.438-7.915 152.607-7.915 152.776-7.587M153.276 265.958H152.78V264.95103H153.276ZM153.281 368.952H152.776C152.944 368.623 153.113 368.623 153.281 368.952M153.787-4.55H153.281C153.45-4.879 153.619-4.879 153.787-4.55M154.293 281.903H153.787C153.956 281.574 154.125 281.574 154.293 281.903M155.305 144.75H154.799C154.968 144.421 155.136 144.421 155.305 144.75M158.34-8.599H157.834C158.003-8.927 158.171-8.927 158.34-8.599M159.352 138.676H158.846C159.014 138.348 159.183 138.348 159.352 138.676M159.352 263.683H158.846C159.014 263.354 159.183 263.354 159.352 263.683M160.358 263.427H159.862V262.42H160.358ZM161.375 144.75H160.869C161.038 144.421 161.206 144.421 161.375 144.75M166.939 142.219H166.434C166.602 141.89 166.771 141.89 166.939 142.219M166.939 144.243H166.434C166.602 143.915 166.771 143.915 166.939 144.243M164.411 252.797 164.653 251.298 166.937 251.795ZM169.974 379.074H169.469C169.637 378.745 169.806 378.745 169.974 379.074M170.986 238.378H170.48C170.649 238.049 170.818 238.049 170.986 238.378M170.981 379.83H170.485V378.823H170.981ZM171.495 139.441H172.502V139.937H171.495ZM173.505 241.916 172.752 242.67 172.514 242.432C172.836 242.151 173.173 241.413 173.505 241.916M174.021 240.402H173.515C173.684 240.074 173.853 240.074 174.021 240.402M174.522 146.015 174.524 147.024 173.516 147.022ZM175.028 147.533 175.03 148.543 173.518 148.54 173.519 148.045ZM175.033 235.341H174.527C174.696 235.013 174.864 235.013 175.033 235.341M175.539 229.774H175.033C175.202 229.446 175.37 229.446 175.539 229.774M176.045 147.786H175.539C175.707 147.457 175.876 147.457 176.045 147.786M177.056 233.317H176.55C176.719 232.988 176.888 232.988 177.056 233.317M177.557 228H177.061V226.993H177.557ZM177.562 235.848H177.056C177.225 235.519 177.393 235.519 177.562 235.848M178.574-9.611H178.068C178.237-9.94 178.405-9.94 178.574-9.611M179.08-54.654H178.574C178.742-54.982 178.911-54.982 179.08-54.654M179.07 144.754C178.717 145.255 178.375 144.482 178.078 144.238 178.41 143.735 178.747 144.474 179.07 144.754M179.077 147.536 179.075 148.545 178.07 147.784ZM179.585 146.774H179.08C179.248 146.445 179.417 146.445 179.585 146.774M179.58 224.46 179.583 225.47 178.574 225.467ZM180.587 144.754C180.235 145.255 179.892 144.482 179.596 144.238 179.928 143.735 180.265 144.474 180.587 144.754M181.103-54.654H180.597C180.766-54.982 180.934-54.982 181.103-54.654M181.609 222.183H181.103C181.272 221.854 181.44 221.854 181.609 222.183M183.635 144.502H184.642V144.998H183.635ZM184.644 224.207H184.138C184.307 223.879 184.475 223.879 184.644 224.207M184.644 225.219H184.138C184.307 224.891 184.475 224.891 184.644 225.219M186.667 213.073H186.161C186.33 212.744 186.499 212.744 186.667 213.073M186.667 221.171H186.161C186.33 220.842 186.499 220.842 186.667 221.171M187.679 141.713H187.173C187.342 141.384 187.51 141.384 187.679 141.713M188.696 141.966 189.702 142.973 188.693 142.976ZM191.22 146.774H190.714C190.883 146.445 191.051 146.445 191.22 146.774M191.22 215.097H190.714C190.883 214.769 191.051 214.769 191.22 215.097M191.716 147.781 190.962 148.535 190.724 148.297C191.046 148.017 191.384 147.278 191.716 147.781M189.197 211.813 191.722 212.816 189.708 213.323ZM192.737 147.28H192.232C192.4 146.951 192.569 146.951 192.737 147.28M193.243 200.421H192.737C192.906 200.092 193.075 200.092 193.243 200.421M193.749 210.543H193.243C193.412 210.214 193.581 210.214 193.749 210.543M193.749 211.555H193.243C193.412 211.226 193.581 211.226 193.749 211.555M50.089-35.675C58.511-35.309 67.465-35.117 75.677-35.759 83.688-36.385 95.971-37.739 103.084-40.43 103.217-40.48 103.024-41.875 104.483-40.802L104.726-41.744C105.546-41.891 105.355-40.357 105.995-40.223 106.55-40.106 107.084-41.015 107.577-41.101 110.23-41.563 111.077-41.189 113.712-42.204 115.226-42.787 116.927-43.045 118.128-44.277L118.878-43.27 119.645-44.784C120.357-42.637 122.896-44.898 124.246-45.287 125.81-45.738 128.766-45.551 130.517-46.011 131.808-46.351 134.148-47.853 135.833-48.099 138.505-48.49 138.27-47.673 141.472-48.786 143.375-49.448 143.74-47.879 143.887-47.881 144.173-47.885 147.623-48.359 147.981-48.451 148.097-48.48 149.46-49.807 149.563-49.83 150.792-50.107 152.457-48.505 153.537-51.363L154.017-50.351C155.629-51.439 158.199-51.062 160.116-50.87L158.846-52.877C160.171-53.294 159.641-52.146 160.229-51.891 161.173-51.481 163.551-51.399 164.538-51.862 164.843-52.005 164.808-52.687 165.636-52.976 167.582-53.656 171.14-52.946 172.034-53.115 172.836-53.266 173.787-54.352 174.752-54.436L175.821-52.934 177.272-53.403C178.326-50.801 178.54-53.308 178.898-53.399 179.617-53.583 181.293-53.143 181.582-53.438L181.651-54.845 182.562-54.641 182.66-56.378 186.944-56.898C188.924-50.607 190.661-44.202 191.996-37.717 192.389-35.808 194.67-25.837 193.644-25.145 189.752-24.229 186.132-21.756 182.531-19.935 182.086-19.709 182.028-19.103 181.48-18.833 180.208-18.204 178.501-18.454 177.806-17.085L164.625-11.919 163.909-12.898C164.173-11.36 163.679-11.564 162.635-10.886L162.889-12.393 158.449-10.301 158.61-9.369 157.083-9.872 157.324-8.35C156.496-8.251 156.751-9.508 156.064-9.864 154.344-10.755 154.906-8.445 154.797-8.345L153.912-8.597 154.054-9.347C152.705-8.526 150.494-9.69 150.005-7.836L148.23-8.855 147.462-6.829 146.713-7.834C146.703-5.489 143.485-8.033 144.171-5.312L143.171-6.823C143.261-6.367 142.798-6.115 142.659-5.815 142.565-5.614 142.765-5.142 142.625-4.833 142.274-4.852 141.884-5.286 141.647-5.309 141.073-4.548 141.385-3.523 139.121-3.796L140.127-4.798 138.721-5.05 138.87-5.805 137.605-4.803 137.596-5.812 137.025-4.87C134.101-6.369 131.338-2.742 129.682-2.426 128.306-2.164 125.486-1.34 125.236-1.334 123.586-1.293 122.051-2.662 121.155-.25 119.845 .066 121.051-1.65 119.391-1.262L119.386 .262C117.936-.588 117.71-.951 116.366 .251 116.564-1.987 109.954 .263 109.533 1.251 109.214 1.998 110.435 2.704 108.004 3.791L107.503 2.295C106.07 2.553 105.918 3.944 105.773 4.061 105.636 4.172 104.25 4.201 102.697 5.319 101.406 6.249 101.494 5.312 101.179 5.319 99.515 5.356 99.51 6.337 99.347 6.357 98.575 6.454 97.523 5.672 96.63 5.83L97.642 7.846 99.156 6.842C98.123 11.112 97.503 7.427 94.841 7.358L94.956 8.25 93.836 8.868 92.075 7.35 94.588 6.813 94.104 5.324C94.344 7.037 93.279 5.501 92.306 6.266 91.792 6.67 91.597 7.786 91.061 8.101 89.616 8.951 86.802 7.817 85.749 10.884L84.997 9.877 84.989 11.402 80.451 11.412C80.85 14.038 78.464 12.185 77.055 14.047 76.934 14.208 77.412 14.796 77.346 14.87 77.157 15.084 74.936 15.878 74.373 15.943 74.667 15.057 76.191 15.505 75.131 13.925 74.122 15.373 72.579 15.686 71.194 16.466 70.603 16.798 70.747 18.423 68.543 16.975L68.073 18.44 66.247 18.178 65.764 19.997C64.405 20.271 65.036 19.675 64.511 18.983 63.947 19.736 63.263 20.162 62.464 19.508L62.465 20.539 55.656 21.014C55.414 21.922 56.798 21.223 56.663 21.765 56.273 23.333 54.817 21.342 54.65 21.519L54.533 22.43 53.095 22.25 52.052 25.021 50.598 24.545 51.603 23.543C50.755 24.148 46.768 24.816 47.799 26.095L49.075 26.826 47.808 28.083 47.559 26.071C46.141 25.979 44.688 26.548 44.518 28.09L43.771 27.085C41.479 28.499 38.552 27.618 37.188 30.622 36.393 28.467 33.848 29.427 32.297 30.172 29.917 31.317 23.649 32.615 20.14 33.807 18.125 34.491 16.814 34.757 14.945 35.326 14.638 35.419 13.271 37.502 11.866 36.255 11.154 35.535 11.094 34.565 10.852 33.656 9.128 27.176 8.857 16.664 7.616 9.706 7.547 9.319 6.629 9.399 6.564 9.04 6.4 8.14 7.119 7.11 7.044 6.131 6.825 3.309 6.254-.884 5.859-3.795 5.722-4.801 5.751-6.036 4.568-5.823L5.609-6.634C5.575-8.45 4.708-10.445 4.555-12.137 4.315-14.804 4.887-20.113 4.319-22.268 3.905-23.84 3.574-22.341 3.758-24.794 4.046-28.656 4.378-32.621 3.563-36.439 6.734-35.113 10.358-37.822 13.424-38.443 22.631-40.309 38.356-36.169 48.337-35.425L49.583-35.675 49.831-36.013ZM195.267 148.292H194.761C194.93 147.964 195.098 147.964 195.267 148.292M198.808 144.243H198.302C198.47 143.915 198.639 143.915 198.808 144.243M199.308 190.048 199.309 190.797 198.55 191.554 198.813 190.048ZM199.824 192.576 200.831 193.583 199.822 193.586ZM201.337-6.068H200.831C201-6.397 201.168-6.397 201.337-6.068M201.332 143.988H200.836V142.981H201.332ZM201.337 194.853H200.831C201 194.525 201.168 194.525 201.337 194.853M201.843 141.713H201.337C201.505 141.384 201.674 141.384 201.843 141.713M202.338 192.318 201.585 193.072 201.347 192.834C201.669 192.554 202.006 191.815 202.338 192.318M203.358 191.559H202.609L201.853 190.8 203.358 191.063ZM203.861 189.537H203.36499V188.53H203.861ZM211.454 165.5H210.948C211.117 165.171 211.285 165.171 211.454 165.5M212.466 70.859H211.96C212.128 70.53 212.297 70.53 212.466 70.859M212.971 67.822H212.466C212.634 67.494 212.803 67.494 212.971 67.822M212.969 169.29C212.04 169.414 211.49 169.319 210.958 168.531L212.969 168.795ZM213.477 168.03H212.971C213.14 167.701 213.309 167.701 213.477 168.03M214.992 87.302H214.244L213.487 86.543 214.992 86.806ZM198.808 149.051C199.919 148.349 202.129 149.478 203.916 149.27 205.697 149.063 208.361 147.532 209.677 147.491 211.411 147.439 213.548 148.51 215.501 148.041 215.801 148.339 214.696 151.56 214.434 152.179 214.267 152.573 212.565 154.671 212.551 154.852 212.344 157.373 213.876 158.56 210.46 160.439L211.449 161.695C210.061 161.509 210.392 162.633 210.438 163.728L208.928 163.222C209.694 164.893 207.909 165.394 207.906 165.538 207.881 166.874 209.179 167.599 206.911 169.047L207.912 169.799C207.322 169.771 206.828 169.581 206.388 170.152 205.639 171.125 203.733 176.248 203.156 177.841 202.612 179.343 203.476 181.591 200.846 181.999L201.335 183.463 199.831 183.208C199.909 184.804 200.521 184.353 201.337 185.486L199.95 185.755 200.231 186.439 199.318 186.509 200.828 187.51 198.812 187.009 198.741 188.961 196.788 189.546C196.572 190.401 197.686 189.732 197.816 190.376 198.013 191.35 197.67 194.129 196.526 194.59L196.534 193.085C194.402 194.234 195.785 196.326 194.245 196.921L194.768 198.14 193.294 198.181C193.855 199.583 192.164 199.637 191.528 201.21 190.952 202.634 191.348 204.585 191.203 204.683 190.804 204.951 189.486 204.731 188.812 205.355 187.503 206.568 185.114 212.018 183.84 213.797 183.589 214.147 183.06 214.354 182.623 214.346L183.63 215.343C181.561 215.309 182.437 217.248 182.089 217.867 182.06 217.92 181.418 217.371 180.878 217.86 179.531 219.08 177.88 222.225 179.078 223.95 178.127 223.763 177.749 223.14 177.072 224.2L177.562 225.966 176.29 226.489C175.835 226.503 175.774 224.25 174.774 225.466 173.738 226.725 174.109 229.607 174.523 231.036 173.575 230.999 174.498 229.571 172.789 230.026 172.102 230.209 171.211 232.016 172.009 232.802L170.483 233.069 171.489 234.071C169.885 233.646 170.138 235.595 168.969 234.582L168.959 237.619C167.449 236.882 165.528 240.342 165.412 241.667L164.448 241.191C163.842 242.833 163.49 244.798 162.742 246.341 162.068 247.729 160.85 248.232 159.944 248.81 159.847 248.872 160.646 250.354 158.847 250.28L158.851 250.771C160.611 250.665 159.384 251.257 159.352 251.79 159.347 251.87 159.521 251.861 159.352 252.296 159.283 252.472 159.549 252.954 159.237 253.181 158.187 253.948 156.788 253.128 157.33 256.09L156.32 255.835C157.513 259.294 152.547 258.356 153.038 262.427L151.268 262.16 150.747 263.683 151.76 264.438 149.746 263.933C148.611 264.735 146.802 286.463 146.781 289.952 146.74 296.778 147.055 303.579 146.74 310.257 146.518 314.951 146.017 319.639 146.206 324.148L144.677 324.166C145.037 324.965 145.144 327.265 144.949 327.96 143.119 334.487 142.37 341.279 142.427 348.232 142.435 349.173 141.116 349.592 142.652 350.978L141.796 351.066 141.084 354.287C142.623 355.794 140.904 359.961 140.832 362.454 140.796 363.741 140.799 364.627 141.647 365.657 140.712 365.668 139.569 365.71 138.71 365.325 137.755 364.898 138.358 364.018 137.803 363.607 136.837 362.894 136.213 364 135.54 363.918 135.007 363.854 133.796 361.966 131.81 362.094L131.029 363.129 130.782 361.627C128.995 363.132 128.088 360.757 127.621 360.624 119.996 358.455 114.887 355.626 107.517 352.489 105.452 351.61 102.859 351.658 101.346 349.755L101.548 337.929 100.685 337.818 100.669 337.072 101.684 336.584 100.672 334.515 101.63 334.069C100.537 332.267 101.894 330.607 102.084 328.985 102.757 323.234 102.166 317.157 103.207 311.513L101.684 311.508C101.293 310.158 102.375 310.618 102.92 309.985 104.143 308.565 103.593 299.533 103.688 297.065 103.877 292.12 104.297 288.144 103.987 283.012 103.462 274.32 103.311 265.548 103.121 256.671 103.086 255 101.528 252.687 104.199 252.273 102.591 250.203 104.178 248.86 103.951 247.16 103.678 245.112 100.769 246.692 99.667 245.211L98.655 247.235C99.224 244.362 96.759 243.067 95.509 241.016 92.594 236.233 91.155 233.421 87.276 229.018 86.795 228.471 86.583 227.121 86.465 227.034 86.364 226.96 85.128 227.8 84.992 226.991L84.497 226.738C84.536 226.547 84.801 226.401 84.992 226.485 84.773 226 84.578 225.519 84.444 225.004L83.491 225.475C83.591 223.185 82.378 223.446 80.51 223.383L80.424 221.164 78.959 221.421C78.794 220.431 77.487 217.847 76.935 217.212 74.297 214.181 68.525 211.519 66.74 207.279L65.853 207.678C66.021 206.573 62.901 204.854 62.837 204.644 62.729 204.285 63.326 203.797 63.151 203.313 62.928 202.696 59.911 201.974 60.194 200.673L58.7 201.439 59.196 199.662 57.673 199.658 58.167 198.197C56.123 198.16 56.054 195.762 55.526 195.24 55.07 194.789 53.574 194.984 53.217 194.499 52.596 193.656 53.175 190.032 50.659 190.513L50.591 188.526 48.573 189.03C49.233 188.125 47.705 185.524 47.087 184.8 46.682 184.327 45.959 184.599 45.689 184.354 45.402 184.093 42.548 178.32 41.958 177.919L40.479 178.402C42.374 177.301 36.38 170.719 35.809 170.464 35.584 170.363 34.978 170.861 34.933 170.803 34.844 170.686 34.152 168.395 33.931 168.035 29.558 160.907 25.858 151.707 22.261 143.833 18.924 136.525 17.111 127.508 16.482 118.25 16.31 115.723 16.405 113.115 16.199 110.591 24.443 113.201 32.713 116.096 40.367 120.085L46.548 120.208 46.046 121.721 51.606 119.703 48.912 121.207 48.576 122.735 52.818 122.312 53.412 123.748C55.19 124.647 55.842 123.451 56.411 123.449 56.856 123.447 57.688 124.615 58.686 123.742L58.691 125.775 63.502 124.771C62.94 127.158 67.412 129.113 69.062 128.68 69.184 128.648 69.577 127.182 71.119 127.997 72.077 128.504 71.907 130.035 74.366 128.809L74.111 130.315 75.645 129.311C76.453 131.792 79.437 130.127 80.612 130.352 80.938 130.414 80.859 131.401 81.942 131.073L81.451 132.331 84.226 132.344 83.975 133.358C86.578 132.244 86.403 133.707 86.833 133.838 87.758 134.12 90.371 132.891 90.816 134.901L93.344 133.373 93.088 135.384 94.104 134.383 95.109 134.379 94.843 135.255 95.615 134.881 95.868 134.385 96.121 134.881 98.648 135.89 97.641 134.119C98.554 133.347 99.812 134.861 99.156 135.889 101.602 134.728 100.436 136.229 102.195 136.395L101.94 135.384C103.506 134.874 103.222 136.479 103.964 136.904 105.491 134.071 105.914 136.409 107.24 137.091 108.039 137.502 110.388 137.152 110.751 137.482L110.792 138.929 114.019 138.385 114.83 139.431 114.921 138.494 116.625 138.453 116.866 136.401C117.714 136.22 117.2 136.863 117.358 137.097 117.767 137.705 118.289 136.801 118.88 136.909L117.867 137.656 118.397 138.927 124.453 138.427 123.959 139.7 125.717 140.438 125.455 139.439 127.993 139.938 127.479 138.933C129.294 138.633 129.439 139.032 130.259 140.439L132.032 139.436 132.538 140.444 132.04 138.425 135.574 138.424V140.445L134.829 139.677 133.564 139.684C134.473 141.152 136.586 140.364 136.088 142.469L136.593 140.947 139.628 141.462 139.63 143.987C140.489 144.205 139.862 143.166 140.363 143.077 141.152 142.936 142.964 143.174 143.422 143.98 143.639 143.324 143.17 142.369 144.401 142.493 146.635 142.441 146.154 144.632 146.966 144.998L147.684 144.958C147.599 142.914 150.064 145.689 151.768 144.5L151.254 145.505C152.676 145.556 155.257 145.108 155.312 147.023L155.804 147.022C156.21 144.251 157.443 147.04 157.595 147.054 158.791 147.158 159.896 145.543 161.373 146.019L161.108 147.009C162.008 146.444 162.931 146.913 162.929 148L163.639 148.032 165.715 145.487 166.937 145.514 165.424 146.776C165.405 147.267 166.114 146.949 166.434 147.027 166.352 146.839 166.508 146.528 166.686 146.531L166.939 147.027 167.496 148.005C168.306 147.824 169.167 147.707 169.974 147.533 169.87 146.923 170.035 146.163 169.98 145.511L170.986 147.528C170.656 147.573 170.263 147.471 169.974 147.533 170.063 148.054 170.241 148.795 170.737 149.049 172.011 149.699 171.339 146.365 173.009 147.032L172.567 148.979C173.11 149.175 173.64 149.427 174.183 149.627 176.824 150.601 175.475 148.924 177.553 148.548L178.323 150.062C178.616 148.514 181.655 148.774 181.618 150.566L182.62 150.565 182.36 149.687 183.629 149.059C182.592 149.471 181.352 146.338 181.614 146.015H184.639L182.621 148.034 184.671 147.765 185.672 150.065 187.679 149.552 186.672 147.533 187.932 148.435 189.188 147.533C189.416 149.33 190.923 150.19 192.495 149.06L192.743 150.567C193.563 150.668 193.188 149.622 193.961 149.227 194.585 148.908 197.555 148.988 198.302 149.557 198.224 148.988 198.686 149.128 198.808 149.051M216.006 84.018H215.501C215.669 83.689 215.838 83.689 216.006 84.018M216.006 89.585H215.501C215.669 89.256 215.838 89.256 216.006 89.585M216.001 130.323H215.505V129.316H216.001ZM90.051 124.759C87.206 124.513 84.938 123.293 83.096 122.772 81.776 122.399 80.365 122.367 79.159 121.732L79.427 122.731 77.912 122.734 77.883 121.269C76.723 121.163 75.605 121.31 74.476 120.87 73.893 120.643 73.852 119.846 73.497 119.675 72.749 119.314 71.675 119.704 71.079 118.689L70.33 119.693C70.512 118.168 66.063 118.254 64.757 117.843 63.308 117.387 61.354 115.819 59.905 115.653 56.45 115.257 53.119 117.567 50.329 117.044 50.075 116.996 50.136 116.374 49.837 116.289 44.349 114.736 41.185 112.03 36.179 110.276 35.655 110.092 33.768 110.719 32.887 110.079L33.392 108.564 32.493 108.938C32.423 107.531 28.427 107.455 28.836 109.064L27.319 106.543 26.069 108.053 25.237 106.095C23.339 105.427 20.614 104.688 18.554 103.846 17.661 103.481 17.041 102.38 15.771 102.417L15.18 91.358H14.685L14.167 92.612 14.191 90.592 15.689 90.599C15.173 90.165 14.866 89.795 14.755 89.103 14.336 86.496 15.561 81.499 15.538 79.074 15.466 71.535 13.774 63.984 13.399 56.708 13.305 54.879 14.016 52.37 13.67 50.365 16.763 50.919 18.537 48.702 20.806 47.635 40.265 38.489 57.829 32.477 77.831 25.23 91.928 20.122 105.747 14.115 120.651 10.1 122.281 9.661 123.436 8.919 124.441 8.696 126.966 8.138 130.708 8.632 133.7 7.829 134.108 7.719 134.007 6.954 134.421 6.849 135.402 6.6 136.835 7.474 136.596 5.83L137.156 6.744C140.62 6.265 144.146 4.84 147.602 3.937 151.776 2.848 153.964 2.6 158.184 .857 162.799-1.05 167.31-3.535 171.98-5.344L171.489-6.318C173.432-5.178 174.995-7.195 175.4-7.308 178.214-8.092 181.523-8.444 184.112-9.38 183.905-10.871 184.371-10.704 185.407-11.372L185.147-9.866 187.684-9.868 187.169-10.873C189.174-9.819 195.393-11.784 196.539-10.399 196.141-9.192 197.139-8.415 197.259-7.562 198.412 .592 198.375 10.121 199.645 18.401 202.144 26.856 201.88 36.647 204.41 44.982 204.553 45.454 205.31 45.244 205.366 45.322 205.465 45.46 204.473 46.629 204.602 48.484 205.208 57.15 208.519 65.815 208.421 74.652L211.444 73.384 208.887 75.49C210.279 84.949 211.673 94.276 213.989 103.499L216.501 102.231 215.976 103.984 213.475 104.012C213.961 107.35 214.571 111.15 214.78 114.496 215.226 121.643 214.614 129.011 214.444 136.18 214.423 137.06 215.206 136.802 215.369 137.169 215.972 138.532 214.02 138.859 213.991 139.18 213.979 139.304 215.467 140.518 214.99 141.459L205.89 140.452 206.392 141.966C204.898 141.14 206.029 142.2 205.615 142.51L203.621 143.989 201.853 142.72 202.859 142.722C202.805 140.815 201.301 140.508 199.642 140.952 199.155 141.083 199.443 142.126 199.065 141.965 196.869 141.031 190.044 139.536 188.465 141.41L186.966 140.903 186.165 141.962C187.008 140.292 185.506 138.808 184.908 140.958 184.44 140.521 183.88 140.192 183.253 140.046 182.478 139.865 181.729 140.048 181.103 139.942H180.597C178.798 139.74 176.92 139.328 175.029 139.938L175.543 138.934 173.225 139.387C172.606 137.183 171.443 139.31 170.329 139.317 167.614 139.332 166.18 136.995 163.646 136.917L165.624 138.397 165.68 140.438 164.799 138.541C161.373 138.331 163.007 137.936 162.276 137.032 162.004 136.696 161.553 136.974 161.375 136.905 160.88 138.21 160.434 136.924 160.363 136.905 155.76 135.647 153.769 135.41 149.226 134.687 147.446 134.404 146.396 132.716 144.93 134.364L145.193 133.372C142.31 133.402 139.852 131.26 136.905 132.376L136.346 131.332 135.074 131.85C134.866 132.658 136.913 132.097 136.078 133.363 136.036 133.427 134.873 132.715 134.567 133.618L135.573 134.371 134.054 134.223 133.048 135.382C132.898 133.172 134.011 133.554 134.563 131.847L134.063 132.852 132.542 132.851 133.044 131.339 131.272 132.339 131.527 130.833C130.338 131.48 129.196 130.642 127.969 131.026 126.624 131.447 126.929 132.587 125.971 132.853L126.47 130.836C126.204 130.579 122.227 131.361 121.698 131.351 121.371 131.344 121.458 130.539 121.162 130.452 120.592 130.286 117.556 129.683 117.362 129.824L117.876 130.829C116.58 130.38 115.954 130.635 114.841 131.342L114.835 129.815 109.779 129.313H109.273L106.492 128.284C105.99 129.021 106.554 129.574 105.228 129.318L104.973 127.789C105.155 128.66 102.299 129.453 102.195 129.316 101.898 128.924 102.668 127.238 99.918 127.284L99.921 128.291C97.106 125.436 93.629 126.56 90.557 124.759L90.304 125.255ZM217.524 127.542H217.018C217.187 127.213 217.355 127.213 217.524 127.542M217.524 149.304H217.018C217.187 148.976 217.355 148.976 217.524 149.304M218.025 129.817H217.52899V128.304H218.025ZM220.053 150.823H219.547C219.716 150.494 219.885 150.494 220.053 150.823M220.053 153.353H219.547C219.716 153.025 219.885 153.025 220.053 153.353M220.559 118.432H220.053C220.222 118.104 220.39 118.104 220.559 118.432M221.065 139.182H220.559C220.728 138.854 220.896 138.854 221.065 139.182M221.571 149.304H221.065C221.234 148.976 221.402 148.976 221.571 149.304M177.562 237.113C178.002 236.739 178.481 236.595 178.51 236.548 178.606 236.395 177.557 235.667 179.088 235.35L178.476 234.192 177.572 234.334 179.131 233.248 178.573 231.55C179.81 231.641 180.428 231.841 180.827 230.593L182.113 231.036 181.603 229.527C183.848 229.404 186.515 224.888 185.659 222.941L186.651 223.448 187.754 219.496 188.438 219.693 188.421 218.385C189.548 216.999 189.018 219.111 189.447 218.891 190.069 218.573 190.166 215.664 192.229 215.847L191.731 214.585 189.705 213.837 192.731 214.344 193.504 212.319 194.757 213.322C193.742 211.229 195.893 209.835 194.258 208.276 195.728 207.546 196.398 207.508 197.292 205.981L196.42 205.641 197.04 203.713 197.54 205.226 198.752 204.681C197.502 202.775 202.377 199.674 199.821 198.905L201.832 198.907 200.33 196.625 201.793 197.118C202.71 196.469 203.387 192.001 204.872 192.06L203.866 190.557 205.391 190.548 204.89 186.75 206.39 187.014 206.902 184.235 205.128 185.994 204.891 184.996C206.237 185.098 206.144 183.5 206.401 182.455L207.9 183.218C207.591 182.169 208.735 178.837 209.931 178.904L208.927 177.905 209.943 177.598C209.502 176.853 210.627 174.536 211.198 173.34 211.972 171.716 213.19 170.181 213.948 168.45 214.634 166.882 213.394 165.659 216.457 165.194L216.507 163.731 215.506 164.738 215.505 162.206 216.509 162.72 217.061 158.693 218.02 158.925 216.519 157.665C218.761 156.592 221.831 154.11 220.58 151.343L221.306 150.682 222.583 151.072 222.213 150.168C223.423 149.712 223.026 145.002 222.787 143.425 222.625 142.351 222.097 141.133 221.577 140.17L222.571 139.639C221.622 136.681 222.145 133.79 222.091 131.116 222.087 130.962 220.519 130.264 221.059 128.564L222.071 129.311C221.981 127.678 222.053 125.689 221.846 124.103 221.431 120.925 220.882 123.068 220.563 122.738 219.634 121.776 221.994 121.462 222.036 120.98 222.089 120.374 220.333 116.771 220.072 115.878 220.004 115.645 220.057 115.382 220.058 115.142L221.339 115.168 221.571 113.381 221.06 114.131C219.255 113.48 220.951 111.07 220.825 109.835 220.75 109.105 219.886 107.986 219.817 106.568 219.787 105.944 220.621 104.363 220.464 103.745 220.386 103.438 219.549 103.532 219.53 103.218 219.478 102.347 220.219 101.016 220.013 99.249 219.785 97.306 218.185 95.738 218.562 93.685L217.018 93.379C216.524 91.514 218.836 93.143 218.526 91.619 218.397 90.989 217.737 90.207 217.027 90.335L217.022 89.329 218.019 89.598 215.998 80.721 213.993 80.47 216.002 80.225C216.101 79.593 215.847 79.05 215.489 78.559 214.712 77.493 214.083 78.956 215.501 75.938L213.988 75.149 214.992 72.633 214.493 73.638 211.959 73.132 212.976 70.609 214.489 72.119C213.497 70.145 213.625 67.895 213.901 65.765L212.545 65.248C213.029 64.284 211.633 60.985 211.663 60.755 211.843 59.349 213.926 57.781 210.442 56.932 212.431 54.843 209.901 51.974 209.715 49.43 209.615 48.07 210.233 46.616 210.148 45.225 210.08 44.104 208.698 33.251 208.31 32.73 208.118 32.471 207.168 32.501 206.983 31.857 206.871 31.466 207.421 28.586 207.299 27.48 206.807 23.053 205.251 18.284 204.503 14.032 204.161 12.088 205.52 9.032 202.862 8.103L203.867 6.842 202.855 6.336C203.608 6.611 204.416 5.955 203.861 5.318 203.782 5.228 202.471 6.048 201.844 4.557 205.418 2.096 199.868-3.432 202.352-6.585L201.333-7.07C203.478-10.285 200.361-16.702 200.354-19.733 200.351-20.763 201.802-22.131 201.334-23.532L200.115-23.12 198.398-24.62C199.671-27.236 198.015-29.333 197.53-31.618 196.38-37.037 195.078-42.6 193.602-47.927 192.986-50.151 190.234-55.6 191.236-57.442L193.75-57.444 193.745-58.959 192.741-58.446C193.683-60.281 188.164-64.755 187.181-64.019L186.601-62.062C183.874-62.056 180.779-61.84 178.125-61.157 176.995-60.866 176.981-60.032 176.834-60.035 171.288-60.148 164.522-60.161 159.601-57.438L158.641-58.47 141.655-55.4 141.916-54.411C139.575-55.087 135.585-54.133 132.985-53.577 129.811-52.898 126.777-51.482 123.471-51.329L123.706-50.362C119.089-51.132 113.771-48.55 109.301-47.616 107.525-47.245 105.753-47.128 103.537-46.727 99.092-45.923 92.335-45.58 88.382-44.268 87.93-44.118 87.97-43.642 88.02-43.272L87.274-44.275C86.935-44.006 86.456-43.598 86.047-43.542 82.506-43.062 78.857-43.055 75.154-42.741 72.697-42.532 70.5-41.641 67.791-42.259V-40.227C66.363-39.577 67.13-41.215 67.049-41.225L62.734-41.745 63.001-40.746C59.774-42.134 55.172-41.172 51.811-40.24L50.097-41.743 48.815-40.224 48.272-41.286 46.774-40.789C46.386-42.458 45.122-40.818 44.269-42.251 43.827-42.432 44.176-41.452 43.778-41.313 43.418-41.188 38.262-42.97 36.874-43.13 34.944-43.351 32.372-42.891 30.37-42.973 21.566-44.487 12.329-43.976 3.623-41.812L2.979-44.537 2.035-44.786 2.03-43.259 1.27-43.661 1.017-42.257C.199-42.043 .779-44.086-.486-43.255-.557-43.209-1.486-41.977-1.5-41.894-1.575-41.446-1.155-40.867-1.31-40.207-1.584-39.041-2.891-38.74-2.93-38.633-2.977-38.505-2.439-36.773-2.465-35.929-2.52-34.157-3.683-32.527-2.014-31.37L-2.935-30.889C-2.299-29.539-3.261-27.571-3.049-26.393-3.025-26.258-.187-25.075-3.031-25.292-3.105-24.006-2.389-20.701-2.618-19.72-2.69-19.41-3.52-19.474-3.512-19.26-3.492-18.712-2.819-17.129-2.019-17.447L-2.018-16.957C-2.173-16.855-2.856-17.173-3.007-16.64-3.303-15.6-2.633-8.165-2.484-6.615-1.808 .383-.106 7.459 1.022 14.429L3.05 15.694 1.556 16.443C1.661 15.918 1.135 15.67 1.022 15.441L4.043 33.836 5.072 34.425 4.051 34.931C4.726 38.682 6.279 44.479 4.446 47.971 3.706 49.379 1.049 50.674 3.376 52.336L6.106 52.091C7.254 52.98 7.414 62.056 7.638 64.25 8.028 68.09 8.433 72.167 8.808 76.161 9.411 82.58 8.839 90.002 9.134 96.644 9.28 99.928 11.157 104.065 8.618 106.795 8.98 107.331 9.846 107.408 10.174 107.915 10.927 109.078 9.118 110.337 11.128 109.823 9.91 111.073 10.084 112.771 10.129 114.376 10.191 116.545 10.541 119.058 12.155 120.466L11.111 121.03C11.716 123.18 11.182 125.75 12.658 127.551L11.68 128.005C13.335 132.66 13.399 137.987 14.811 142.594 15.256 144.048 15.973 147.125 17.714 146.523L17.47 147.526 16.202 147.525C16.945 147.39 16.99 147.762 17.282 148.249 18.501 150.286 20.026 152.779 20.279 155.091L21.23 154.857C21.163 155.672 22.761 159.325 23.271 159.989 23.833 160.722 24.862 160.063 25.273 160.986 23.653 164.555 28.415 167.213 27.834 170.305L29.344 169.795C29.05 170.903 30.087 171.49 30.354 172.089 31.033 173.61 28.573 171.661 28.847 172.832L30.862 172.839C29.736 174.85 33.43 178.219 35.425 177.901 34.491 181.505 36.805 182.281 39.083 183.964 39.499 184.271 39.632 185 39.964 185.185 40.696 185.591 41.273 183.954 40.989 187.511L41.753 187.141 41.493 188.526 43.508 187.515 42.506 189.279C42.782 189.894 44.984 190.154 45.015 190.286 45.068 190.513 43.968 192.363 45.532 192.576L46.037 191.567 46.523 193.382 48.568 193.083C48.638 193.74 48.483 194.46 48.571 195.106L49.067 195.359 48.571 195.613C49.182 197.745 50.234 197.205 51.069 197.674 51.171 197.731 50.602 198.881 51.275 199.996 51.841 200.934 54.959 202.742 56.101 204.033 59.877 208.307 63.743 213.876 68.264 217.662 69.068 218.335 72.168 219.467 72.687 220.042 75.167 222.79 77.867 227.305 81.266 229.487 82.905 230.54 81.585 228.788 83.259 230.976 84.268 232.294 85.637 233.348 86.05 235.077L87.518 234.578C87.399 236.882 89.709 238.101 90.86 239.842 92.359 242.111 93.684 245.377 95.11 247.381 95.496 247.923 96.516 247.43 96.122 248.747L94.126 249.503 95.604 252.554 94.099 252.3C94.698 253.507 95.18 254.636 94.576 255.949 94.399 256.333 92.642 256.823 93.91 257.872L95.615 257.868C94.04 259.851 93.857 262.828 95.605 264.7L94.684 264.529 94.107 266.229 95.023 266.076 95.611 267.736 94.108 267.727 95.613 268.741C94.037 269.613 95.018 270.889 94.856 271.774 94.741 272.401 94.051 272.885 94.04 273.804 94.021 275.471 96.134 275.886 94.092 276.335L95.611 276.083C95.567 277.719 96.216 279.266 95.671 280.908 95.288 282.064 94.59 281.306 94.606 282.15L96.127 282.409C93.596 283.125 95.86 286.066 95.916 287.466 95.947 288.236 94.511 291.514 94.648 291.717L96.12 292.78 94.598 292.536C94.395 293.233 95.461 293.554 95.457 294.049 95.453 294.614 94.323 294.9 94.598 295.564L95.606 295.553 95.106 296.838 93.595 296.328C93.711 298.056 93.523 298.249 95.099 299.115L93.596 299.859 95.613 301.137 94.646 301.604 95.106 302.904 93.593 302.404C95.117 303.934 93.678 306.117 93.728 306.703 93.773 307.22 95 307.634 95.115 308.732 95.247 310.005 93.067 315.786 93.595 316.069L94.593 315.806C92.175 319.014 97.386 322.222 93.59 325.169L95.105 326.186 93.091 326.447 94.598 326.189 94.599 328.209 93.09 327.705C92.907 328.997 93.061 329.003 94.102 329.465 92.636 333.487 92.894 338.398 93.415 342.721 93.551 343.851 92.251 344.722 94.097 345.143 88.723 353.887 93.224 365.643 92.086 375.037 91.923 376.389 91.369 377.518 90.553 378.577L91.567 379.07C89.144 380.883 90.957 384.06 90.553 386.118 90.286 387.483 88.441 388.066 90.577 388.692 89.719 390.628 88.96 392.734 88.587 394.823 88.32 396.318 89.95 394.196 89.55 395.778 89.416 396.307 88.315 398.968 88.083 399.26 87.547 399.935 84.664 398.798 84.064 402.484 83.494 405.986 88.084 405.547 90.328 405.748 90.961 405.804 91.442 406.375 91.815 406.397 93.021 406.465 95.708 405.663 96.419 405.789 96.911 405.877 96.932 406.849 97.265 407.019 97.728 407.255 100.24 408.525 100.42 408.542 100.778 408.577 101.367 407.888 101.908 407.897 118.49 408.169 132.044 411.311 148.506 409.227 151.897 408.798 155.983 408.59 159.347 408.68L158.847 403.623 160.859 404.626C160.824 404.365 160.827 403.956 161.035 403.816 161.861 403.26 163.3 402.181 163.916 401.371 166.413 398.088 163.241 391.138 164.117 389.927 165.328 388.254 170.092 391.675 170.733 388.936L170.991 389.955 171.496 388.942 172.999 389.707C172.313 387.368 170.452 388.623 169.313 387.448 168.86 386.98 169.062 386.302 168.615 385.891 168.071 385.391 165.511 384.08 165.465 383.639 166.952 379.43 170.102 386.279 170.976 381.589L169.979 381.106 172.474 380.307 172.499 378.314C170.931 378.401 166.694 378.206 167.704 375.795 163.885 378.578 158.834 373.803 154.812 372.969 152.718 371.833 155.312 367.753 153.251 367.423 155.393 363.036 153.842 358.348 153.754 353.772 153.68 349.92 153.781 347.498 153.48 343.563 153.284 341.007 154.505 339.349 153.981 336.77 152.788 330.888 152.622 324.979 153.271 318.878 154.022 311.819 156.161 305.916 155.093 298.918 154.371 294.184 154.195 291.749 154.544 287.181 154.679 285.41 153.851 282.759 155.309 282.42 153.895 281.005 154.939 278.989 154.992 277.153 155.06 274.781 155.106 272.372 154.804 270.012L156.312 271.527 154.803 269.006C156.101 269.087 156.22 268.038 155.819 266.997L157.336 266.969 156.819 265.964C159.552 266.306 161.377 263.291 161.876 260.9L160.367 260.906C161.804 260.969 161.68 259.558 162.217 258.938 163.665 257.264 165.344 257.079 164.912 254.316L163.908 254.83 163.909 253.307C166.473 254.78 166.768 252.114 168.452 251.275L166.933 250.773C167.232 250.319 167.243 249.723 167.445 249.259 167.21 249.259 167.049 249.271 166.949 249.006L167.445 248.753 168.466 247.238 170.468 248.505 170.484 244.702 172.506 244.997 174.055 241.684 175.03 242.176C173.999 240.946 176.949 238.345 174.537 238.889L177.562 237.619 176.561 236.855Z"/>
<path transform="matrix(1,0,0,-1,408.8259,335.8045)" d="M0 0H-.506L-.253 1.018Z"/>
<path transform="matrix(1,0,0,-1,490.2671,233.57239)" d="M0 0C-.074 .063 .073 .477 0 .506L.496 .253Z"/>
<path transform="matrix(1,0,0,-1,313.7268,456.2563)" d="M0 0C-.707 .557-.18 .648 0 1.012-.052 .695 .051 .317 0 0"/>
<path transform="matrix(1,0,0,-1,362.2881,506.3602)" d="M0 0C.336 .99 .396-.005 .506 0Z"/>
<path transform="matrix(1,0,0,-1,415.4019,465.3661)" d="M0 0C-1.229-2.193-3.465-2.792-4.042 0L-2.775-.891C-2.249-.954-1.755-.07-1.518 0-1.134 .113-.468-.077 0 0"/>
<path transform="matrix(1,0,0,-1,422.4837,341.37159)" d="M0 0-.253-1.017-.506 0Z"/>
<path transform="matrix(1,0,0,-1,479.1385,323.6581)" d="M0 0C.027 .007-.071 .48 .253 .496L.506 0C.479-.062 .027 .062 0 0"/>
<path transform="matrix(1,0,0,-1,472.0567,218.3894)" d="M0 0C.023-.01 .023-.496 0-.506-.468-.719-.468 .213 0 0"/>
<path transform="matrix(1,0,0,-1,443.2234,97.43149)" d="M0 0C.01 .023 .495 .023 .506 0 .719-.469-.213-.469 0 0"/>
<path transform="matrix(1,0,0,-1,455.3637,476.5003)" d="M0 0C-.534-1.57-1.827-.81-3.033-.498V.503C-2.368 .555-1.674 .442-1.012 .506-.753 .163-.458-.066 0 0"/>
<path transform="matrix(1,0,0,-1,361.2763,275.5787)" d="M0 0-1.017 .253 0 .506C-.017 .339 .023 .165 0 0"/>
<path transform="matrix(1,0,0,-1,402.7557,345.9265)" d="M0 0C.027 .062 .479-.062 .506 0L.253-.496C.075-.5-.082-.188 0 0"/>
<path transform="matrix(1,0,0,-1,0,595.276)" d="M468.511 431.548H468.01499V432.555H468.511Z"/>
<path transform="matrix(1,0,0,-1,0,595.276)" d="M471.553 534.785H472.56V534.289H471.553Z"/>
<path transform="matrix(1,0,0,-1,503.925,252.04502)" d="M0 0C-.169-.329-.337-.329-.506 0Z"/>
<path transform="matrix(1,0,0,-1,502.4074,251.0328)" d="M0 0C-.169-.329-.337-.329-.506 0Z"/>
<path transform="matrix(1,0,0,-1,501.3958,249.5145)" d="M0 0C-.169-.329-.337-.329-.506 0Z"/>
<path transform="matrix(1,0,0,-1,500.8899,247.99622)" d="M0 0C-.169-.329-.337-.329-.506 0Z"/>
<path transform="matrix(1,0,0,-1,493.3022,238.38031)" d="M0 0C-.169-.329-.337-.329-.506 0Z"/>
<path transform="matrix(1,0,0,-1,487.7379,80.47717)" d="M0 0C-.169-.329-.337-.329-.506 0Z"/>
<path transform="matrix(1,0,0,-1,484.7028,224.7156)" d="M0 0C-.169-.329-.337-.329-.506 0Z"/>
<path transform="matrix(1,0,0,-1,475.5976,211.0509)" d="M0 0C-.169-.329-.337-.329-.506 0Z"/>
<path transform="matrix(1,0,0,-1,470.5391,202.95331)" d="M0 0C-.169-.329-.337-.329-.506 0Z"/>
<path transform="matrix(1,0,0,-1,406.8025,149.3068)" d="M0 0C-.169-.329-.337-.329-.506 0Z"/>
<path transform="matrix(1,0,0,-1,406.8025,211.557)" d="M0 0C-.169-.329-.337-.329-.506 0Z"/>
<path transform="matrix(1,0,0,-1,406.8025,216.61801)" d="M0 0C-.169-.329-.337-.329-.506 0Z"/>
<path transform="matrix(1,0,0,-1,400.7324,75.4162)" d="M0 0C-.169-.329-.337-.329-.506 0Z"/>
<path transform="matrix(1,0,0,-1,385.0511,250.0206)" d="M0 0C-.169-.329-.337-.329-.506 0Z"/>
<path transform="matrix(1,0,0,-1,306.645,492.9485)" d="M0 0C-.169-.329-.337-.329-.506 0Z"/>
<path transform="matrix(1,0,0,-1,479.1385,323.6581)" d="M0 0C.027 .062 .479-.062 .506 0L.253-.496C.075-.499-.082-.188 0 0"/>
<path transform="matrix(1,0,0,-1,511.0068,321.12773)" d="M0 0C.169-.041 .397 .063 .506 0 .575-.04 .438-.475 .506-.506 .384-.429-.078-.57 0 0"/>
<path transform="matrix(1,0,0,-1,408.32,335.8045)" d="M0 0H.506L.253-.496Z"/>
<path transform="matrix(1,0,0,-1,472.0567,218.89551)" d="M0 0C.023 .01 .023 .496 0 .506 .169 .071-.005 .08 0 0"/>
<path transform="matrix(1,0,0,-1,397.6973,243.6944)" d="M0 0C-.062-.027 .062-.479 0-.506-.191-.589-.456-.444-.496-.253Z"/>
<path transform="matrix(1,0,0,-1,420.1469,102.67529)" d="M0 0C.755 1.038 1.24 2.195 1.859 2.94 2.232 3.389 5.668 5.834 4.862 3.985 4.564 3.301 2.204 1.09 1.457-.203 .899-1.169-.014-3.256-.459-4.358-1.087-5.912-.537-9.406-3.474-9.43-4.573-9.075-3.796-5.166-3.534-4.591-3.194-3.846-2.034-3.63-1.471-2.839-.844-1.959-.637-.875 0 0"/>
<path transform="matrix(1,0,0,-1,443.2234,97.43149)" d="M0 0C.447 .337 .451-.013 .506 0 .495 .023 .01 .023 0 0"/>
<path transform="matrix(1,0,0,-1,443.7293,97.43149)" d="M0 0C.393 .092 1.419 1.158 1.02-.258 .697-1.404-.625-2.103-.076-3.306L-.924-3.144C-1.007-4.202-2.107-6.141-3.288-6.087-3.587-6.074-3.374-4.922-4.543-5.319L-2.529-4.039-3.541-2.536C-2.36-1.751-2.543-4.11-2.03-3.539-1.086-2.487-1.887-1.042-.506 0-.719-.469 .213-.469 0 0"/>
<path transform="matrix(1,0,0,-1,449.8014,99.4527)" d="M0 0C.18 2.599 .843 3.674 3.536 4.043 3.75 1.969 1.893 .358 0 0"/>
<path transform="matrix(1,0,0,-1,461.9397,84.77899)" d="M0 0-.502 2.023 1.007 2.027C1.642-.284 .067 .12 0 0-.513-.919 .675-2.627-2.524-3.036-3.04-1.227-1.015-1.837-1.992-.548Z"/>
<path transform="matrix(1,0,0,-1,459.9261,111.59781)" d="M0 0C-.176 1.371-1.824 1.318-1.285 3.017L1.51 2.524C1.69 1.371 1.073 .41 0 0"/>
<path transform="matrix(1,0,0,-1,461.2998,130.18729)" d="M0 0C-.669-.708-1.656-.745-1.89 .356L.635 1.883C.872 1.581 .32 .339 0 0"/>
<path transform="matrix(1,0,0,-1,449.2961,90.84961)" d="M0 0 .511 2.02 1.512 2.019C1.706 .806 1.275-.126 0 0"/>
<path transform="matrix(1,0,0,-1,417.7419,88.20749)" d="M0 0-2.598-4.153C-2.895-2.025-.773-.597-.31 1.4Z"/>
<path transform="matrix(1,0,0,-1,421.9779,341.37159)" d="M0 0H.506Z"/>
<path transform="matrix(1,0,0,-1,473.0684,333.7802)" d="M0 0C.071 .019 .516 1.305 1.012 0Z"/>
<path transform="matrix(1,0,0,-1,402.7557,345.9265)" d="M0 0 .253 .496 .506 0C.479-.062 .027 .062 0 0"/>
<path transform="matrix(1,0,0,-1,493.3022,330.7435)" d="M0 0H.506Z"/>
<path transform="matrix(1,0,0,-1,397.6962,340.3534)" d="M0 0C-.081-.119-1.793-.707-2.012 .252-.008-.378-1.994 1.824-.002 1.51Z"/>
<path transform="matrix(1,0,0,-1,463.4623,81.23633)" d="M0 0C-.135 .944-.004 1.754 1.002 2.024 1.137 1.08 1.005 .271 0 0"/>
<path transform="matrix(1,0,0,-1,477.1157,217.88779)" d="M0 0 2.526-1.003 .243-1.5Z"/>
<path transform="matrix(1,0,0,-1,445.247,92.87161)" d="M0 0 1.512 1.513C1.684 .59 .957-.167 0 0"/>
<path transform="matrix(1,0,0,-1,463.958,478.0185)" d="M0 0-1.509 .512V1.006L0 1.518Z"/>
<path transform="matrix(1,0,0,-1,460.9254,126.782718)" d="M0 0H-1.007L-1.004 .749-.248 1.513Z"/>
<path transform="matrix(1,0,0,-1,413.8843,465.3661)" d="M0 0C.315-.007 .227 .93 1.518 0 1.049-.077 .384 .113 0 0"/>
<path transform="matrix(1,0,0,-1,455.3637,476.5003)" d="M0 0C-.458-.066-.753 .163-1.012 .506-.775 .529-.385 .963-.034 .982 .106 .673-.093 .201 0 0"/>
<path transform="matrix(1,0,0,-1,362.2881,506.3602)" d="M0 0H.506L.248-.338Z"/>
<path transform="matrix(1,0,0,-1,501.9017,258.8723)" d="M0 0 .512 1.51 2.525 1.003Z"/>
<path transform="matrix(1,0,0,-1,401.739,461.8233)" d="M0 0-1.002 .767-1.004 1.516H.002Z"/>
<path transform="matrix(1,0,0,-1,459.4155,117.67529)" d="M0 0C.121 .812 .644 2.738 1.508 3.033 1.295 2.027 1.133 .405 0 0"/>
<path transform="matrix(1,0,0,-1,487.7328,323.1519)" d="M0 0-1.509 .512-1.51 1.007 .003 1.009Z"/>
<path transform="matrix(1,0,0,-1,424.0039,96.92291)" d="M0 0 .003 1.513 .497 1.512 1.009 .003Z"/>
<path transform="matrix(1,0,0,-1,440.7047,99.5853)" d="M0 0C-.345 0-.625 .28-.625 .625-.625 .97-.345 1.25 0 1.25 .345 1.25 .625 .97 .625 .625 .625 .28 .345 0 0 0"/>
<path transform="matrix(1,0,0,-1,445.2418,96.41919)" d="M0 0-1.006 1.007 .002 1.009Z"/>
<path transform="matrix(1,0,0,-1,0,595.276)" d="M448.277 528.719H447.781V530.232H448.277Z"/>
<path transform="matrix(1,0,0,-1,459.9113,122.230319)" d="M0 0-1.006 1.007 .002 1.009Z"/>
<path transform="matrix(1,0,0,-1,409.3267,462.32929)" d="M0 0-1.006 1.007 .002 1.009Z"/>
<path transform="matrix(1,0,0,-1,459.9113,120.20581)" d="M0 0-1.006 1.007 .002 1.009Z"/>
<path transform="matrix(1,0,0,-1,404.2706,460.8085)" d="M0 0-1.007 .248-.002 1.009Z"/>
<path transform="matrix(1,0,0,-1,403.7648,344.40559)" d="M0 0-1.007 .248-.002 1.009Z"/>
<path transform="matrix(1,0,0,-1,459.4132,102.996)" d="M0 0 .002 1.009 1.007 .248Z"/>
<path transform="matrix(1,0,0,-1,370.3842,448.156)" d="M0 0 .002 1.009 1.007 .248Z"/>
<path transform="matrix(1,0,0,-1,0,595.276)" d="M361.279 314.631H362.792V314.135H361.279Z"/>
<path transform="matrix(1,0,0,-1,487.227,324.6702)" d="M0 0-1.006 1.007 .002 1.009Z"/>
<path transform="matrix(1,0,0,-1,0,595.276)" d="M357.224 308.566H356.728V310.079H357.224Z"/>
<path transform="matrix(1,0,0,-1,317.7787,456.7622)" d="M0 0-.002 1.009 1.006 1.007Z"/>
<path transform="matrix(1,0,0,-1,491.782,323.1494)" d="M0 0-1.007 .248-.002 1.009Z"/>
<path transform="matrix(1,0,0,-1,492.2854,246.2247)" d="M0 0-1.006 1.007 .002 1.009Z"/>
<path transform="matrix(1,0,0,-1,501.4008,328.719)" d="M0 0-.002 1.009 1.006 1.007Z"/>
<path transform="matrix(1,0,0,-1,0,595.276)" d="M530.73 252.895H530.234V254.408H530.73Z"/>
<path transform="matrix(1,0,0,-1,525.6738,301.3949)" d="M0 0V-.496L-2.011-.759C-1.479 .029-.928 .124 0 0"/>
<path transform="matrix(1,0,0,-1,512.5294,278.109)" d="M0 0-.002 1.009 1.006 1.007Z"/>
<path transform="matrix(1,0,0,-1,0,595.276)" d="M312.212 106.118H313.219V105.621997H312.212Z"/>
<path transform="matrix(1,0,0,-1,0,595.276)" d="M321.815 149.65H321.319V150.657H321.815Z"/>
<path transform="matrix(1,0,0,-1,0,595.276)" d="M325.356 180.522H324.86V181.529H325.356Z"/>
<path transform="matrix(1,0,0,-1,0,595.276)" d="M325.364 251.369H326.371V250.873H325.364Z"/>
<path transform="matrix(1,0,0,-1,0,595.276)" d="M335.987 283.759H336.994V283.263H335.987Z"/>
<path transform="matrix(1,0,0,-1,0,595.276)" d="M344.08 158.752H345.08699V158.256H344.08Z"/>
<path transform="matrix(1,0,0,-1,0,595.276)" d="M369.871 147.626H369.375V148.63301H369.871Z"/>
<path transform="matrix(1,0,0,-1,0,595.276)" d="M378.478 334.369H379.485V333.873H378.478Z"/>
<path transform="matrix(1,0,0,-1,0,595.276)" d="M403.77 507.455H404.77699V506.95899H403.77Z"/>
<path transform="matrix(1,0,0,-1,0,595.276)" d="M408.821 446.731H408.325V447.73799H408.821Z"/>
<path transform="matrix(1,0,0,-1,422.9922,340.8605)" d="M0 0C-.427 .202 1.465 1.386 2.011 1.265L.749-.001Z"/>
<path transform="matrix(1,0,0,-1,0,595.276)" d="M428.043 125.358H427.547V126.365009H428.043Z"/>
<path transform="matrix(1,0,0,-1,0,595.276)" d="M430.074 258.96H431.081V258.464H430.074Z"/>
<path transform="matrix(1,0,0,-1,0,595.276)" d="M431.592 258.96H432.599V258.464H431.592Z"/>
<path transform="matrix(1,0,0,-1,0,595.276)" d="M434.619 259.98H434.123V260.987H434.619Z"/>
<path transform="matrix(1,0,0,-1,0,595.276)" d="M443.732 530.736H444.73899V530.24008H443.732Z"/>
<path transform="matrix(1,0,0,-1,0,595.276)" d="M448.284 122.313H449.291V121.817H448.284Z"/>
<path transform="matrix(1,0,0,-1,0,595.276)" d="M450.814 507.961H451.82099V507.465H450.814Z"/>
<path transform="matrix(1,0,0,-1,457.8956,331.2446)" d="M0 0V.496L1.505 .759 .749 0Z"/>
<path transform="matrix(1,0,0,-1,460.9249,327.7115)" d="M0 0C.535-.259-1.91-1.37-2.516-1.266Z"/>
<path transform="matrix(1,0,0,-1,0,595.276)" d="M459.413 489.742H460.41999V489.246H459.413Z"/>
<path transform="matrix(1,0,0,-1,0,595.276)" d="M460.923 475.579H460.427V476.586H460.923Z"/>
<path transform="matrix(1,0,0,-1,461.9347,185.4903)" d="M0 0-.598 .854-1.502 .752-.754 1.506Z"/>
<path transform="matrix(1,0,0,-1,0,595.276)" d="M460.931 467.979H461.938V467.483H460.931Z"/>
<path transform="matrix(1,0,0,-1,0,595.276)" d="M461.436 266.046H462.443V265.55H461.436Z"/>
<path transform="matrix(1,0,0,-1,0,595.276)" d="M461.436 267.564H462.443V267.068H461.436Z"/>
<path transform="matrix(1,0,0,-1,0,595.276)" d="M465.981 389.542H465.485V390.54899H465.981Z"/>
<path transform="matrix(1,0,0,-1,0,595.276)" d="M473.063 387.011H472.567V388.01799H473.063Z"/>
<path transform="matrix(1,0,0,-1,0,595.276)" d="M483.686 503.414H483.19V504.421H483.686Z"/>
<path transform="matrix(1,0,0,-1,0,595.276)" d="M484.2 264.527H485.207V264.031H484.2Z"/>
<path transform="matrix(1,0,0,-1,0,595.276)" d="M490.262 351.584H489.766V352.591H490.262Z"/>
<path transform="matrix(1,0,0,-1,0,595.276)" d="M496.34 269.588H497.347V269.092H496.34Z"/>
<path transform="matrix(1,0,0,-1,512.0134,280.63713)" d="M0 0H-.496L-.759 1.506 0 .749Z"/>
<path transform="matrix(1,0,0,-1,0,595.276)" d="M514.037 267.572H513.541V268.57899H514.037Z"/>
<path transform="matrix(1,0,0,-1,516.0627,279.1264)" d="M0 0V-.496L-1.505-.759-.749 0Z"/>
<path transform="matrix(1,0,0,-1,0,595.276)" d="M516.566 313.121H516.07V314.128H516.566Z"/>
<path transform="matrix(1,0,0,-1,527.6971,383.383)" d="M0 0V-.496L-1.505-.759-.749 0Z"/>
<path transform="matrix(1,0,0,-1,0,595.276)" d="M528.706 253.907H528.21V254.914H528.706Z"/>
<path transform="matrix(1,0,0,-1,534.2758,321.3807)" d="M0 0C-.169-.329-.337-.329-.506 0Z"/>
<path transform="matrix(1,0,0,-1,533.7699,331.50273)" d="M0 0C-.169-.329-.337-.329-.506 0Z"/>
<path transform="matrix(1,0,0,-1,533.264,352.2528)" d="M0 0C-.169-.329-.337-.329-.506 0Z"/>
<path transform="matrix(1,0,0,-1,532.7582,317.3319)" d="M0 0C-.169-.329-.337-.329-.506 0Z"/>
<path transform="matrix(1,0,0,-1,532.7582,319.8624)" d="M0 0C-.169-.329-.337-.329-.506 0Z"/>
<path transform="matrix(1,0,0,-1,530.229,321.3807)" d="M0 0C-.169-.329-.337-.329-.506 0Z"/>
<path transform="matrix(1,0,0,-1,530.229,343.143)" d="M0 0C-.169-.329-.337-.329-.506 0Z"/>
<path transform="matrix(1,0,0,-1,528.7114,381.1005)" d="M0 0C-.169-.329-.337-.329-.506 0Z"/>
<path transform="matrix(1,0,0,-1,528.7114,386.6676)" d="M0 0C-.169-.329-.337-.329-.506 0Z"/>
<path transform="matrix(1,0,0,-1,526.1822,302.655)" d="M0 0C-.169-.329-.337-.329-.506 0Z"/>
<path transform="matrix(1,0,0,-1,525.6763,402.8628)" d="M0 0C-.169-.329-.337-.329-.506 0Z"/>
<path transform="matrix(1,0,0,-1,525.1705,399.8262)" d="M0 0C-.169-.329-.337-.329-.506 0Z"/>
<path transform="matrix(1,0,0,-1,524.1588,305.1855)" d="M0 0C-.169-.329-.337-.329-.506 0Z"/>
<path transform="matrix(1,0,0,-1,515.0435,278.3672)" d="M0 0C-.332-.503-.669 .236-.991 .516L-.754 .754Z"/>
<path transform="matrix(1,0,0,-1,514.5477,328.9722)" d="M0 0C-.169-.329-.337-.329-.506 0Z"/>
<path transform="matrix(1,0,0,-1,514.0419,275.8317)" d="M0 0C-.169-.329-.337-.329-.506 0Z"/>
<path transform="matrix(1,0,0,-1,514.0419,476.7533)" d="M0 0C-.169-.329-.337-.329-.506 0Z"/>
<path transform="matrix(1,0,0,-1,511.5127,326.4417)" d="M0 0C-.169-.329-.337-.329-.506 0Z"/>
<path transform="matrix(1,0,0,-1,507.9717,322.3929)" d="M0 0C-.169-.329-.337-.329-.506 0Z"/>
<path transform="matrix(1,0,0,-1,506.4542,259.1304)" d="M0 0C-.169-.329-.337-.329-.506 0Z"/>
<path transform="matrix(1,0,0,-1,506.4542,260.1426)" d="M0 0C-.169-.329-.337-.329-.506 0Z"/>
<path transform="matrix(1,0,0,-1,505.9484,270.2646)" d="M0 0C-.169-.329-.337-.329-.506 0Z"/>
<path transform="matrix(1,0,0,-1,505.4425,323.4051)" d="M0 0C-.169-.329-.337-.329-.506 0Z"/>
<path transform="matrix(1,0,0,-1,504.4207,322.904)" d="M0 0C-.332-.503-.669 .236-.991 .516L-.754 .754Z"/>
<path transform="matrix(1,0,0,-1,503.925,255.5877)" d="M0 0C-.169-.329-.337-.329-.506 0Z"/>
<path transform="matrix(1,0,0,-1,503.925,323.9112)" d="M0 0C-.169-.329-.337-.329-.506 0Z"/>
<path transform="matrix(1,0,0,-1,500.3841,328.9722)" d="M0 0C-.169-.329-.337-.329-.506 0Z"/>
<path transform="matrix(1,0,0,-1,499.3723,249.5145)" d="M0 0C-.169-.329-.337-.329-.506 0Z"/>
<path transform="matrix(1,0,0,-1,499.3723,257.6121)" d="M0 0C-.169-.329-.337-.329-.506 0Z"/>
<path transform="matrix(1,0,0,-1,497.349,245.4657)" d="M0 0C-.169-.329-.337-.329-.506 0Z"/>
<path transform="matrix(1,0,0,-1,497.349,246.4779)" d="M0 0C-.169-.329-.337-.329-.506 0Z"/>
<path transform="matrix(1,0,0,-1,494.3139,248.50229)" d="M0 0C-.169-.329-.337-.329-.506 0Z"/>
<path transform="matrix(1,0,0,-1,493.808,525.33889)" d="M0 0C-.169-.329-.337-.329-.506 0Z"/>
<path transform="matrix(1,0,0,-1,493.2921,325.9306)" d="M0 0C-.322-.28-.659-1.019-.991-.516-.695-.272-.352 .5 0 0"/>
<path transform="matrix(1,0,0,-1,492.2905,323.9112)" d="M0 0C-.169-.329-.337-.329-.506 0Z"/>
<path transform="matrix(1,0,0,-1,491.7746,325.9306)" d="M0 0C-.322-.28-.659-1.019-.991-.516-.695-.272-.352 .5 0 0"/>
<path transform="matrix(1,0,0,-1,491.7847,525.33889)" d="M0 0C-.169-.329-.337-.329-.506 0Z"/>
<path transform="matrix(1,0,0,-1,491.2788,480.296)" d="M0 0C-.169-.329-.337-.329-.506 0Z"/>
<path transform="matrix(1,0,0,-1,490.2671,234.83762)" d="M0 0C-.169-.329-.337-.329-.506 0Z"/>
<path transform="matrix(1,0,0,-1,489.7613,237.3681)" d="M0 0C-.169-.329-.337-.329-.506 0Z"/>
<path transform="matrix(1,0,0,-1,488.7496,322.899)" d="M0 0C-.169-.329-.337-.329-.506 0Z"/>
<path transform="matrix(1,0,0,-1,488.2437,240.9108)" d="M0 0C-.169-.329-.337-.329-.506 0Z"/>
<path transform="matrix(1,0,0,-1,487.7379,235.34369)" d="M0 0C-.169-.329-.337-.329-.506 0Z"/>
<path transform="matrix(1,0,0,-1,486.7262,230.28272)" d="M0 0C-.169-.329-.337-.329-.506 0Z"/>
<path transform="matrix(1,0,0,-1,486.2102,228.76941)" d="M0 0C-.332-.503-.669 .236-.991 .516L-.754 .754Z"/>
<path transform="matrix(1,0,0,-1,483.6911,232.3071)" d="M0 0C-.169-.329-.337-.329-.506 0Z"/>
<path transform="matrix(1,0,0,-1,482.6794,91.61139)" d="M0 0C-.169-.329-.337-.329-.506 0Z"/>
<path transform="matrix(1,0,0,-1,479.6443,326.4417)" d="M0 0C-.169-.329-.337-.329-.506 0Z"/>
<path transform="matrix(1,0,0,-1,479.6443,328.4661)" d="M0 0C-.169-.329-.337-.329-.506 0Z"/>
<path transform="matrix(1,0,0,-1,474.08,325.9356)" d="M0 0C-.169-.329-.337-.329-.506 0Z"/>
<path transform="matrix(1,0,0,-1,472.0567,207.0021)" d="M0 0C-.169-.329-.337-.329-.506 0Z"/>
<path transform="matrix(1,0,0,-1,472.0567,332.0088)" d="M0 0C-.169-.329-.337-.329-.506 0Z"/>
<path transform="matrix(1,0,0,-1,471.045,479.2838)" d="M0 0C-.169-.329-.337-.329-.506 0Z"/>
<path transform="matrix(1,0,0,-1,468.0099,325.9356)" d="M0 0C-.169-.329-.337-.329-.506 0Z"/>
<path transform="matrix(1,0,0,-1,466.9982,188.7826)" d="M0 0C-.169-.329-.337-.329-.506 0Z"/>
<path transform="matrix(1,0,0,-1,466.4923,475.235)" d="M0 0C-.169-.329-.337-.329-.506 0Z"/>
<path transform="matrix(1,0,0,-1,465.9865,101.7334)" d="M0 0C-.169-.329-.337-.329-.506 0Z"/>
<path transform="matrix(1,0,0,-1,465.4807,478.2716)" d="M0 0C-.169-.329-.337-.329-.506 0Z"/>
<path transform="matrix(1,0,0,-1,464.9748,66.8125)" d="M0 0C-.169-.329-.337-.329-.506 0Z"/>
<path transform="matrix(1,0,0,-1,464.9748,204.97782)" d="M0 0C-.169-.329-.337-.329-.506 0Z"/>
<path transform="matrix(1,0,0,-1,462.9514,476.2472)" d="M0 0C-.169-.329-.337-.329-.506 0Z"/>
<path transform="matrix(1,0,0,-1,462.4456,334.5393)" d="M0 0C-.169-.329-.337-.329-.506 0Z"/>
<path transform="matrix(1,0,0,-1,461.9296,124.51279)" d="M0 0C-.332-.503-.669 .236-.991 .516L-.754 .754Z"/>
<path transform="matrix(1,0,0,-1,461.9397,126.026218)" d="M0 0C-.169-.329-.337-.329-.506 0Z"/>
<path transform="matrix(1,0,0,-1,461.9397,475.235)" d="M0 0C-.169-.329-.337-.329-.506 0Z"/>
<path transform="matrix(1,0,0,-1,461.4339,105.782199)" d="M0 0C-.169-.329-.337-.329-.506 0Z"/>
<path transform="matrix(1,0,0,-1,461.4339,107.80661)" d="M0 0C-.169-.329-.337-.329-.506 0Z"/>
<path transform="matrix(1,0,0,-1,461.4339,120.45911)" d="M0 0C-.169-.329-.337-.329-.506 0Z"/>
<path transform="matrix(1,0,0,-1,460.928,134.62992)" d="M0 0C-.169-.329-.337-.329-.506 0Z"/>
<path transform="matrix(1,0,0,-1,460.4222,132.0994)" d="M0 0C-.169-.329-.337-.329-.506 0Z"/>
<path transform="matrix(1,0,0,-1,460.4222,133.1116)" d="M0 0C-.169-.329-.337-.329-.506 0Z"/>
<path transform="matrix(1,0,0,-1,459.9164,83.513797)" d="M0 0C-.169-.329-.337-.329-.506 0Z"/>
<path transform="matrix(1,0,0,-1,458.9047,89.587009)" d="M0 0C-.169-.329-.337-.329-.506 0Z"/>
<path transform="matrix(1,0,0,-1,458.3988,475.7411)" d="M0 0C-.169-.329-.337-.329-.506 0Z"/>
<path transform="matrix(1,0,0,-1,456.8813,128.0506)" d="M0 0C-.169-.329-.337-.329-.506 0Z"/>
<path transform="matrix(1,0,0,-1,453.8462,93.1297)" d="M0 0C-.169-.329-.337-.329-.506 0Z"/>
<path transform="matrix(1,0,0,-1,453.8462,328.4661)" d="M0 0C-.169-.329-.337-.329-.506 0Z"/>
<path transform="matrix(1,0,0,-1,453.3404,519.2657)" d="M0 0C-.169-.329-.337-.329-.506 0Z"/>
<path transform="matrix(1,0,0,-1,450.3053,65.29419)" d="M0 0C-.169-.329-.337-.329-.506 0Z"/>
<path transform="matrix(1,0,0,-1,449.2936,78.95892)" d="M0 0C-.169-.329-.337-.329-.506 0Z"/>
<path transform="matrix(1,0,0,-1,448.2819,90.59921)" d="M0 0C-.169-.329-.337-.329-.506 0Z"/>
<path transform="matrix(1,0,0,-1,447.2702,90.09311)" d="M0 0C-.169-.329-.337-.329-.506 0Z"/>
<path transform="matrix(1,0,0,-1,446.2585,95.15411)" d="M0 0C-.169-.329-.337-.329-.506 0Z"/>
<path transform="matrix(1,0,0,-1,445.7527,64.788089)" d="M0 0C-.169-.329-.337-.329-.506 0Z"/>
<path transform="matrix(1,0,0,-1,444.2351,79.46503)" d="M0 0C-.169-.329-.337-.329-.506 0Z"/>
<path transform="matrix(1,0,0,-1,444.225,336.5687)" d="M0 0C-.332-.503-.669 .236-.991 .516L-.754 .754Z"/>
<path transform="matrix(1,0,0,-1,443.7293,471.6923)" d="M0 0C-.169-.329-.337-.329-.506 0Z"/>
<path transform="matrix(1,0,0,-1,440.6942,333.021)" d="M0 0C-.169-.329-.337-.329-.506 0Z"/>
<path transform="matrix(1,0,0,-1,439.6825,516.7352)" d="M0 0C-.169-.329-.337-.329-.506 0Z"/>
<path transform="matrix(1,0,0,-1,439.1767,103.75781)" d="M0 0C-.169-.329-.337-.329-.506 0Z"/>
<path transform="matrix(1,0,0,-1,432.0948,469.6679)" d="M0 0C-.169-.329-.337-.329-.506 0Z"/>
<path transform="matrix(1,0,0,-1,431.589,73.89789)" d="M0 0C-.169-.329-.337-.329-.506 0Z"/>
<path transform="matrix(1,0,0,-1,430.5773,105.27609)" d="M0 0C-.169-.329-.337-.329-.506 0Z"/>
<path transform="matrix(1,0,0,-1,428.5539,470.6801)" d="M0 0C-.169-.329-.337-.329-.506 0Z"/>
<path transform="matrix(1,0,0,-1,427.0363,106.7944)" d="M0 0C-.169-.329-.337-.329-.506 0Z"/>
<path transform="matrix(1,0,0,-1,426.0247,96.67239)" d="M0 0C-.169-.329-.337-.329-.506 0Z"/>
<path transform="matrix(1,0,0,-1,426.0247,333.021)" d="M0 0C-.169-.329-.337-.329-.506 0Z"/>
<path transform="matrix(1,0,0,-1,424.0013,468.1496)" d="M0 0C-.169-.329-.337-.329-.506 0Z"/>
<path transform="matrix(1,0,0,-1,420.9662,338.5881)" d="M0 0C-.169-.329-.337-.329-.506 0Z"/>
<path transform="matrix(1,0,0,-1,419.9545,464.6069)" d="M0 0C-.169-.329-.337-.329-.506 0Z"/>
<path transform="matrix(1,0,0,-1,416.9194,340.6125)" d="M0 0C-.169-.329-.337-.329-.506 0Z"/>
<path transform="matrix(1,0,0,-1,414.3902,141.7153)" d="M0 0C-.169-.329-.337-.329-.506 0Z"/>
<path transform="matrix(1,0,0,-1,408.8259,180.1789)" d="M0 0C-.169-.329-.337-.329-.506 0Z"/>
<path transform="matrix(1,0,0,-1,407.8142,151.3312)" d="M0 0C-.169-.329-.337-.329-.506 0Z"/>
<path transform="matrix(1,0,0,-1,407.8142,166.51419)" d="M0 0C-.169-.329-.337-.329-.506 0Z"/>
<path transform="matrix(1,0,0,-1,406.8025,133.6177)" d="M0 0C-.169-.329-.337-.329-.506 0Z"/>
<path transform="matrix(1,0,0,-1,405.7908,461.5703)" d="M0 0C-.169-.329-.337-.329-.506 0Z"/>
<path transform="matrix(1,0,0,-1,404.2733,461.5703)" d="M0 0C-.169-.329-.337-.329-.506 0Z"/>
<path transform="matrix(1,0,0,-1,399.7207,339.0942)" d="M0 0C-.169-.329-.337-.329-.506 0Z"/>
<path transform="matrix(1,0,0,-1,397.6973,67.3186)" d="M0 0C-.169-.329-.337-.329-.506 0Z"/>
<path transform="matrix(1,0,0,-1,394.6622,457.01539)" d="M0 0C-.169-.329-.337-.329-.506 0Z"/>
<path transform="matrix(1,0,0,-1,386.5687,452.9666)" d="M0 0C-.169-.329-.337-.329-.506 0Z"/>
<path transform="matrix(1,0,0,-1,379.9926,451.4483)" d="M0 0C-.169-.329-.337-.329-.506 0Z"/>
<path transform="matrix(1,0,0,-1,364.8173,444.86903)" d="M0 0C-.169-.329-.337-.329-.506 0Z"/>
<path transform="matrix(1,0,0,-1,363.8056,279.3744)" d="M0 0C-.169-.329-.337-.329-.506 0Z"/>
<path transform="matrix(1,0,0,-1,363.8056,349.2162)" d="M0 0C-.169-.329-.337-.329-.506 0Z"/>
<path transform="matrix(1,0,0,-1,363.2896,352.2578)" d="M0 0C-.332-.503-.669 .236-.991 .516L-.754 .754Z"/>
<path transform="matrix(1,0,0,-1,363.2997,443.8569)" d="M0 0C-.169-.329-.337-.329-.506 0Z"/>
<path transform="matrix(1,0,0,-1,359.7588,442.8446)" d="M0 0C-.169-.329-.337-.329-.506 0Z"/>
<path transform="matrix(1,0,0,-1,358.7471,442.8446)" d="M0 0C-.169-.329-.337-.329-.506 0Z"/>
<path transform="matrix(1,0,0,-1,355.2062,355.2894)" d="M0 0C-.169-.329-.337-.329-.506 0Z"/>
<path transform="matrix(1,0,0,-1,354.7003,356.80769)" d="M0 0C-.169-.329-.337-.329-.506 0Z"/>
<path transform="matrix(1,0,0,-1,354.7003,440.3141)" d="M0 0C-.169-.329-.337-.329-.506 0Z"/>
<path transform="matrix(1,0,0,-1,354.1945,286.4598)" d="M0 0C-.169-.329-.337-.329-.506 0Z"/>
<path transform="matrix(1,0,0,-1,353.1828,288.4842)" d="M0 0C-.169-.329-.337-.329-.506 0Z"/>
<path transform="matrix(1,0,0,-1,348.6302,293.5452)" d="M0 0C-.169-.329-.337-.329-.506 0Z"/>
<path transform="matrix(1,0,0,-1,346.101,301.6428)" d="M0 0C-.169-.329-.337-.329-.506 0Z"/>
<path transform="matrix(1,0,0,-1,342.56,361.8687)" d="M0 0C-.169-.329-.337-.329-.506 0Z"/>
<path transform="matrix(1,0,0,-1,338.0074,362.37483)" d="M0 0C-.169-.329-.337-.329-.506 0Z"/>
<path transform="matrix(1,0,0,-1,336.4899,436.77149)" d="M0 0C-.169-.329-.337-.329-.506 0Z"/>
<path transform="matrix(1,0,0,-1,332.949,365.91749)" d="M0 0C-.169-.329-.337-.329-.506 0Z"/>
<path transform="matrix(1,0,0,-1,332.4431,320.3685)" d="M0 0C-.169-.329-.337-.329-.506 0Z"/>
<path transform="matrix(1,0,0,-1,325.8671,412.9848)" d="M0 0C-.169-.329-.337-.329-.506 0Z"/>
<path transform="matrix(1,0,0,-1,322.832,437.2776)" d="M0 0C-.169-.329-.337-.329-.506 0Z"/>
<path transform="matrix(1,0,0,-1,322.3262,440.3141)" d="M0 0C-.169-.329-.337-.329-.506 0Z"/>
<path transform="matrix(1,0,0,-1,322.3262,441.83253)" d="M0 0C-.169-.329-.337-.329-.506 0Z"/>
<path transform="matrix(1,0,0,-1,318.7853,462.58253)" d="M0 0C-.169-.329-.337-.329-.506 0Z"/>
<path transform="matrix(1,0,0,-1,317.2677,456.5094)" d="M0 0C-.169-.329-.337-.329-.506 0Z"/>
<path transform="matrix(1,0,0,-1,317.2677,474.7289)" d="M0 0C-.169-.329-.337-.329-.506 0Z"/>
<path transform="matrix(1,0,0,-1,315.7502,473.7167)" d="M0 0C-.169-.329-.337-.329-.506 0Z"/>
<path transform="matrix(1,0,0,-1,314.7385,472.7045)" d="M0 0C-.169-.329-.337-.329-.506 0Z"/>
<path transform="matrix(1,0,0,-1,313.2108,512.1853)" d="M0 0C-.332-.503-.669 .236-.991 .516L-.754 .754Z"/>
<path transform="matrix(1,0,0,-1,312.705,470.68513)" d="M0 0C-.332-.503-.669 .236-.991 .516L-.754 .754Z"/>
<path transform="matrix(1,0,0,-1,411.861,344.1552)" d="M0 0C-.169-.329-.337-.329-.506 0Z"/>
<path transform="matrix(1,0,0,-1,468.5131,213.83179)" d="M0 0-1.007 .248-.002 1.009Z"/>
<path transform="matrix(1,0,0,-1,0,595.276)" d="M477.624 272.625H478.63099V272.129H477.624Z"/>
<path transform="matrix(1,0,0,-1,514.0419,289.4964)" d="M0 0C-.169-.329-.337-.329-.506 0Z"/>
<path transform="matrix(1,0,0,-1,501.9016,319.8624)" d="M0 0C-.169-.329-.337-.329-.506 0Z"/>
<path transform="matrix(1,0,0,-1,501.9016,320.8746)" d="M0 0C-.169-.329-.337-.329-.506 0Z"/>
<path transform="matrix(1,0,0,-1,497.8447,320.8796)" d="M0 0C-.332-.503-.669 .236-.991 .516L-.754 .754Z"/>
<path transform="matrix(1,0,0,-1,489.2554,245.9718)" d="M0 0C-.169-.329-.337-.329-.506 0Z"/>
<path transform="matrix(1,0,0,-1,486.2204,241.4169)" d="M0 0C-.169-.329-.337-.329-.506 0Z"/>
<path transform="matrix(1,0,0,-1,480.656,321.8868)" d="M0 0C-.169-.329-.337-.329-.506 0Z"/>
<path transform="matrix(1,0,0,-1,479.6443,321.8868)" d="M0 0C-.169-.329-.337-.329-.506 0Z"/>
<path transform="matrix(1,0,0,-1,472.5625,323.4051)" d="M0 0C-.169-.329-.337-.329-.506 0Z"/>
<path transform="matrix(1,0,0,-1,446.2585,328.9722)" d="M0 0C-.169-.329-.337-.329-.506 0Z"/>
<path transform="matrix(1,0,0,-1,444.2351,329.9844)" d="M0 0C-.169-.329-.337-.329-.506 0Z"/>
<path transform="matrix(1,0,0,-1,435.1299,330.9966)" d="M0 0C-.169-.329-.337-.329-.506 0Z"/>
<path transform="matrix(1,0,0,-1,394.1563,248.50229)" d="M0 0C-.169-.329-.337-.329-.506 0Z"/>
<path transform="matrix(1,0,0,-1,393.1447,339.0942)" d="M0 0C-.169-.329-.337-.329-.506 0Z"/>
<path transform="matrix(1,0,0,-1,391.6271,338.082)" d="M0 0C-.169-.329-.337-.329-.506 0Z"/>
<path transform="matrix(1,0,0,-1,390.6154,339.0942)" d="M0 0C-.169-.329-.337-.329-.506 0Z"/>
<path transform="matrix(1,0,0,-1,416.9143,467.89649)" d="M0 0-1.509 .512-1.51 1.007 .003 1.009Z"/>
<path transform="matrix(1,0,0,-1,397.1914,460.5582)" d="M0 0C-.169-.329-.337-.329-.506 0Z"/>
<path transform="matrix(1,0,0,-1,392.6388,458.5338)" d="M0 0C-.169-.329-.337-.329-.506 0Z"/>
<path transform="matrix(1,0,0,-1,376.9576,452.4606)" d="M0 0C-.169-.329-.337-.329-.506 0Z"/>
</g>
</g>
</svg>
