<svg xmlns="http://www.w3.org/2000/svg" xmlns:xlink="http://www.w3.org/1999/xlink" version="1.1" width="841.89pt" height="595.276pt" viewBox="0 0 841.89 595.276">
<defs>
<clipPath id="clip_1">
<path transform="matrix(1,0,0,-1,0,595.276)" d="M0 595.276H841.89V0H0Z"/>
</clipPath>
</defs>
<g id="layer_1" data-name="Livello 1">
<g clip-path="url(#clip_1)">
<path transform="matrix(1,0,0,-1,666.9455,252.26569)" d="M0 0C-4.192-11.007-6.89-16.582-8.093-16.726-9.151-16.853-9.943-15.9-10.456-13.878-10.958-11.854-11.142-9.287-10.974-6.16-10.805-3.045-10.591 .21-10.32 3.609-9.928 7.022-9.261 10.406-8.305 13.75-7.362 17.094-6.324 19.647-5.19 21.398-3.825 23.583-1.749 24.473 1.062 24.058 3.872 23.655 5.427 22.201 5.73 19.673 5.985 17.546 4.071 10.992 0 0M-169.109-5.519C-169.74-4.781-170.497-2.998-171.37-.131-172.531 3.897-172.85 6.559-172.324 7.83-172.235 8.112-171.999 8.411-171.63 8.727-170.63 8.305-169.842 5.637-169.254 .727-168.872-2.458-168.831-4.549-169.109-5.519M-171.301-29.417C-171.311-33.856-172.246-37.272-174.118-39.654-176.167-42.723-177.388-45.496-177.757-47.969-178.156-50.297-180.512-53.687-184.828-58.1-186.025-59.328-187.052-60.327-187.909-61.095-188.635-61.724-189.434-62.363-190.307-62.997-191.033-63.627-191.852-64.095-192.764-64.414-193.664-64.719-194.58-65.001-195.487-65.246-196.545-65.372-197.882-65.533-199.474-65.723-202.658-66.105-204.951-66.108-206.34-65.732-206.492-65.691-206.639-65.642-206.784-65.589-206.403-65.156-206.07-64.742-205.791-64.347-205.222-63.539-204.616-62.628-203.998-61.617-203.38-60.594-202.973-59.571-202.752-58.534-202.543-57.498-202.488-56.517-202.599-55.593-203.194-51.756-204.579-49.765-206.755-49.619-208.55-49.498-210.496-50.364-212.599-52.211-213.222-49.364-214.003-47.346-214.948-46.162-215.977-44.264-216.108-40.913-215.339-36.111-214.438-31.282-212.855-25.975-210.578-20.179-208.163-14.514-205.443-9.738-202.405-5.872-199.044-1.302-196.742 1.403-195.497 2.23-195.128 2.545-194.683 2.734-194.148 2.798-193.479 2.879-192.709 2.626-191.84 2.064-190.541 1.406-189.159-.043-187.681-2.295-186.188-4.668-185.326-6.723-185.119-8.448-184.801-11.098-182.341-14.243-177.74-17.859-174.76-20.202-172.868-21.997-172.041-23.242-171.347-24.503-171.099-26.569-171.301-29.417M-368.64-44.175C-372.832-55.181-375.53-60.757-376.733-60.901-377.791-61.028-378.583-60.075-379.096-58.053-379.598-56.029-379.782-53.462-379.614-50.335-379.445-47.22-379.231-43.964-378.96-40.566-378.568-37.153-377.901-33.769-376.945-30.424-376.002-27.081-374.964-24.528-373.83-22.777-372.465-20.591-370.389-19.702-367.577-20.117-364.768-20.52-363.213-21.973-362.91-24.501-362.655-26.628-364.569-33.183-368.64-44.175M-412.292 14.225C-413.191 1.455-414.862-8.473-417.303-15.571-419.758-22.659-424.069-30.819-430.226-40.039-437.352-50.325-440.84-55.995-440.713-57.053-440.585-58.122-442.85-60.009-447.507-62.712-452.414-65.593-456.739-69.416-460.485-74.167-464.452-79.229-468.631-82.011-473.007-82.535-476.593-82.965-481.521-84.024-487.777-85.723-491.417-86.837-493.897-87.233-495.218-86.91-496.525-86.599-497.511-85.472-498.138-83.525-499.723-80.484-499.353-76.273-497.028-70.878-494.464-65.318-492.672-58.36-491.648-50.026-491.443-47.313-491.274-45.333-491.149-44.11-490.907-42.737-490.552-41.276-490.058-39.738-489.592-38.067-489.225-36.913-488.956-36.277-488.701-35.63-487.948-34.911-486.692-34.082-485.447-33.255-484.363-32.73-483.455-32.486-482.787-32.406-481.276-32.151-478.898-31.73-476.653-31.326-474.599-31.08-472.723-30.991-470.848-30.901-468.048-30.702-464.313-30.39-452.82-29.69-444.64-28.501-439.796-26.847-434.939-25.193-432.718-22.634-433.132-19.182-433.498-16.131-436.058-14.206-440.787-13.429-445.528-12.653-451.832-13.137-459.709-14.895-469.954-17.06-476.716-17.328-480.004-15.712-482.457-14.378-483.611-12.877-483.482-11.172-483.352-9.48-481.925-4.821-479.197 2.767-475.621 12.221-473.052 21.751-471.516 31.367-470.799 38.862-469.574 45.001-467.854 49.781-466.538 53.304-467.006 56.183-469.294 58.399-471.581 60.616-474.628 61.557-478.424 61.238-482.22 60.919-486.117 59.379-490.088 56.61-491.553 55.362-492.592 54.461-493.205 53.919-493.806 53.378-494.467 52.719-495.191 51.967-495.901 51.204-496.335 50.609-496.493 50.183-496.641 49.771-496.785 49.014-496.924 47.913-497.065 46.823-497.095 45.944-497.015 45.276-496.936 44.619-496.817 43.314-496.647 41.387-496.489 39.445-496.437 37.676-496.514 36.052-496.303 32.033-496.559 27.996-497.281 23.939-498.014 19.869-498.957 16.526-500.122 13.896-501.286 11.266-502.537 9.871-503.862 9.712-505.855 9.473-507.839 11.726-509.825 16.469-511.812 21.224-512.591 25.766-512.165 30.132-511.61 35.587-509.938 40.768-507.16 45.675-504.384 50.594-499.354 56.979-492.087 64.853-486.995 70.715-482.956 74.565-479.935 76.419-476.926 78.259-472.349 79.88-466.181 81.297-456.487 83.532-451.45 84.813-451.093 85.127-449.489 85.319-447.837 85.012-446.125 84.206-444.414 83.4-442.926 82.198-441.661 80.598-440.401 79.134-439.42 77.637-438.695 76.109-437.175 72.382-433 66.755-426.167 59.227-419.142 52.252-414.774 45.946-413.098 40.29-411.409 34.636-411.132 25.94-412.292 14.225M-532.586-99.575C-535.137-102.975-538.604-104.907-542.999-105.372-547.384-105.823-550.241-104.514-551.546-101.44-552.484-99.272-552.077-95.882-550.333-91.296-548.601-86.712-546.866-84.321-545.14-84.115-543.681-83.94-540.72-85.607-536.257-89.103-532.989-91.683-531.179-93.513-530.849-94.62-530.519-95.727-531.099-97.375-532.586-99.575M82.224-23.682C81.779-19.963 80.434-18.003 78.191-17.803 75.948-17.604 73.498-18.871 70.867-21.603 69.67-22.831 66.299-25.048 60.755-28.277 55.223-31.492 50.99-33.823 48.066-35.246 40.246-38.612 32.944-41.164 26.153-42.927 21.872-44.242 18.869-44.799 17.169-44.608 15.456-44.406 13.429-43.441 11.063-41.702 7.363-38.916 5.404-36.66 5.197-34.934 4.942-32.807 7.084-25.88 11.598-14.169 12.823-10.916 14.924-6.225 17.886-.076 20.862 6.063 23.16 11.06 24.784 14.892 26.409 18.724 27.59 23.477 28.328 29.15 29.066 34.823 28.717 40.206 27.306 45.289 25.575 51.814 18.948 54.854 7.423 54.422-3.696 53.891-12.39 49.484-18.671 41.198-20.189 39.253-22.104 36.2-24.438 32.012-24.862 31.024-25.261 29.928-25.66 28.734-26.061 27.552-26.39 26.39-26.653 25.286-26.927 24.181-27.172 22.832-27.391 21.265-27.609 19.685-27.794 18.455-27.958 17.56-28.122 16.665-28.258 15.329-28.379 13.564-28.513 11.797-28.608 10.639-28.68 10.101-29.591 .831-29.712-6.593-29.043-12.172-28.248-18.813-25.993-26.035-22.294-33.823-26.087-37.111-30.583-40.598-35.798-44.285-36.909-45.096-39.334-46.262-43.048-47.78-43.299-47.946-43.932-48.33-44.934-48.918-45.948-49.508-46.889-49.991-47.793-50.371-48.684-50.749-49.346-50.889-49.763-50.804-50.583-50.643-51.858-49.575-53.571-47.623-57.563-43.528-60.03-39.816-60.97-36.501-61.911-33.174-62.046-28.037-61.399-21.092-60.455-12.09-59.206-4-57.638 3.191-56.485 8.174-55.944 11.481-56.001 13.09-56.058 14.698-56.877 16.486-58.467 18.441-60.666 21.149-62.776 22.4-64.778 22.234-66.766 22.058-69.87 20.379-74.061 17.189-76.901 14.962-78.836 13.719-79.878 13.459-80.931 13.197-82.335 13.695-84.103 14.974-85.469 16.29-86.375 18.191-86.812 20.703-87.263 23.337-87.389 28.919-87.2 37.424-87.3 50.604-88.191 58.043-89.873 59.728-91.223 60.91-93.582 61.466-96.941 61.408-100.299 61.339-102.898 60.596-104.747 59.154-106.063 57.788-107.674 54.364-109.582 48.884-111.461 43.271-112.28 39.4-112.025 37.273-111.818 35.547-111.709 33.809-111.708 32.059-111.696 30.31-111.806 28.447-112.05 26.47-112.28 24.482-112.487 22.817-112.655 21.441-112.825 20.077-113.189 18.282-113.724 16.061-114.273 13.85-114.644 12.215-114.853 11.179-115.074 10.141-115.523 8.337-116.226 5.762-116.928 3.187-117.367 1.495-117.538 .661-119.736-7.949-121.404-14.819-122.541-19.936L-122.518-20.131-122.579-20.446-122.639-20.762C-124.101-24.303-125.732-27.051-127.519-29.015-128.379-29.661-129.117-30.292-129.711-30.893-130.818-31.839-132.401-33.237-134.459-35.099L-134.835-35.354C-137.319-33.765-139.148-32.493-140.344-31.563-141.528-30.632-142.704-29.257-143.859-27.435-145.025-25.627-145.888-23.474-146.456-20.99-147.861-14.821-149.259-6.038-150.628 5.388-150.946 8.037-151.386 10.068-151.962 11.478-152.538 12.889-153.444 14.272-154.676 15.604-155.924 17.07-157.835 18.924-160.399 21.181-165.331 25.3-169.502 27.488-172.9 27.759-176.298 28.03-180.149 26.422-184.443 22.948-186.987 20.621-190.012 18.903-193.519 17.817-201.002 15.034-207.139 11.204-211.94 6.313-216.76 1.569-221.454-5.861-226.037-15.978-229.922-23.989-231.999-30.834-232.254-36.523-232.523-42.202-231.179-49.513-228.221-58.454-227.783-59.746-227.359-60.941-226.949-62.047-231.591-66.215-236.72-69.826-242.349-72.871-245.999-74.923-249.456-76.422-252.712-77.343-258.815-79.295-265.718-79.814-273.432-78.926-276.922-78.519-279.985-77.736-282.667-76.615-284.658-76.356-286.427-75.546-287.948-74.369-290.389-72.472-292.176-69.625-293.174-66.521-293.51-65.8-293.797-65.057-294.036-64.298-294.087-64.134-294.141-63.97-294.187-63.804-294.187-63.802-294.188-63.8-294.189-63.798-294.26-63.543-294.329-63.288-294.387-63.03-294.394-63.034-294.401-63.038-294.408-63.042-294.683-62.071-294.94-61.039-295.175-59.932-295.192-59.859-295.209-59.786-295.223-59.713-295.438-58.679-295.644-57.608-295.826-56.458-296.819-49.303-296.488-44.146-294.844-40.991-293.382-37.449-292.761-34.811-292.968-33.085-293.524-28.442-289.871-20.964-282.018-10.665-274.166-.367-268.047 5.052-263.659 5.578-261.277 5.863-259.123 5.073-257.224 3.217-255.311 1.35-254.644-.616-255.195-2.705-255.71-5.195-254.01-7.247-250.117-8.865-246.225-10.482-242.236-10.842-238.162-9.959-235.16-9.193-233.286-8.266-232.542-7.165-231.799-6.065-231.205-3.405-230.775 .826-230.303 9.229-233.383 15.592-240.03 19.924-246.673 24.232-255.703 25.715-267.129 24.345-273.364 23.599-277.567 22.663-279.712 21.531-281.869 20.397-285.091 17.545-289.403 12.997-307.565-7.365-315.733-30.154-313.929-55.397-313.135-63.079-311.713-69.111-309.676-73.487-314.338-76.171-317.975-78.156-320.574-79.421-328.394-82.787-335.695-85.339-342.487-87.102-346.768-88.417-349.771-88.974-351.471-88.783-353.184-88.581-355.211-87.616-357.577-85.877-361.277-83.09-363.236-80.835-363.443-79.109-363.698-76.982-361.556-70.055-357.042-58.344-355.817-55.09-353.715-50.4-350.754-44.25-347.778-38.112-345.48-33.114-343.855-29.283-342.231-25.451-341.05-20.698-340.312-15.025-339.574-9.351-339.923-3.968-341.333 1.115-343.065 7.639-349.692 10.679-361.217 10.247-372.336 9.716-381.03 5.309-387.311-2.977-388.464-4.454-389.848-6.575-391.469-9.344-391.759-5.853-391.356-3.345-390.272-1.828-389.058-.129-388.168 6.746-387.591 18.799-387.216 30.286-388.173 39.406-390.459 46.135-392.745 52.864-397.089 59.272-403.479 65.373-409.42 71.122-414.539 77.314-418.822 83.939-425.224 93.541-435.829 98.805-450.611 99.721-457.3 100.399-465.257 100.025-474.514 98.57-483.773 97.128-491.353 94.642-497.254 91.099-499.254 89.786-501.218 88.17-503.135 86.264-505.062 84.344-507.331 81.877-509.931 78.878-512.53 75.879-514.317 73.914-515.278 72.985-522.071 65.575-526.502 60.162-528.583 56.744-530.664 53.326-532.313 48.258-533.525 41.505-535.196 34.043-535.887 28.905-535.626 26.113-535.352 23.31-534.103 18.75-531.865 12.422-527.923 3.191-523.282-4.056-517.938-9.346-513.06-14.15-510.442-18.509-510.106-22.438-509.77-26.38-511.34-34.681-514.802-47.351-515.189-49.678-515.774-52.411-516.546-55.537-517.318-58.662-517.988-61.196-518.568-63.152-519.135-65.106-519.445-66.426-519.5-67.098-520.488-72.333-524.389-73.01-531.182-69.102-534.07-67.438-538.86-66.866-545.529-67.394-552.197-67.921-557.562-69.242-561.613-71.343-564.533-72.901-567.491-77.127-570.5-84.022-573.508-90.917-574.772-96.419-574.279-100.527-573.912-103.59-571.001-109.369-565.532-117.862-561.449-123.845-558.626-127.242-557.048-128.064-555.459-128.872-552.088-128.912-546.927-128.158-538.195-126.841-531.545-125.033-526.975-122.734-522.389-120.57-517.962-117.08-513.695-112.254-508.767-106.152-505.909-103.048-505.106-102.952-504.572-102.888-500.224-103.772-492.062-105.63-484.204-107.105-479.23-107.051-477.128-105.455-475.694-103.94-470.249-101.13-460.765-97.034-446.442-90.732-435.134-83.656-426.853-75.796-418.573-67.937-410.383-56.241-402.267-40.733-400.203-36.75-398.451-33.294-397-30.343-397.006-30.433-397.013-30.519-397.019-30.611-397.153-32.377-397.248-33.536-397.319-34.074-398.231-43.344-398.352-50.768-397.683-56.347-396.587-65.499-392.732-75.751-386.122-87.079-382.532-93.38-379.098-97.345-375.808-98.973-374.073-99.973-371.244-101.052-367.334-102.199-363.436-103.347-361.198-104.016-360.631-104.219-355.984-105.955-348.904-105.982-339.415-104.303-330.181-102.654-321.72-99.692-314.011-95.402L-313.538-95.136C-313.225-94.963-312.819-94.754-312.308-94.495-311.798-94.225-311.298-93.968-310.788-93.697-310.276-93.438-309.802-93.184-309.364-92.922-308.926-92.672-308.582-92.458-308.33-92.293-305.675-90.725-303.091-88.924-300.587-86.892-300.226-87.328-299.868-87.763-299.494-88.201-297.299-90.774-295.379-92.701-293.746-93.985-289.581-97.258-283.763-98.682-276.269-98.252-268.775-97.823-261.239-96.106-253.657-93.114-246.064-90.12-239.857-87.49-235.011-85.233-230.166-82.963-226.737-81.233-224.72-80.054-222.408-78.689-220.152-77.142-217.953-75.427-217.312-75.935-216.637-76.45-215.904-76.976-212.64-79.42-210.245-80.884-208.708-81.366-207.586-81.774-206.351-81.897-205.026-81.738-204.358-81.658-203.637-81.498-202.863-81.27-200.681-80.342-197.106-79.31-192.126-78.171-187.754-77.511-183.295-75.423-178.734-71.918-175.182-68.94-172.274-66.767-170.019-65.424-168.223-64.666-166.342-62.357-164.378-58.485-163.849-57.336-163.076-55.357-162.068-52.549-160.294-47.084-158.542-43.706-156.809-42.425-155.43-41.582-154.178-41.333-153.065-41.669-151.951-42.016-150.743-43.042-149.463-44.775L-148.747-45.701C-147.455-47.432-146.373-48.646-145.474-49.352-141.37-52.226-137.395-53.291-133.573-52.574-132.649-52.463-131.632-51.996-130.508-51.196L-129.536-50.87C-128.896-50.657-128.003-50.181-126.884-49.442-125.764-48.704-124.499-47.739-123.085-46.571-121.685-45.392-120.09-43.783-118.313-41.745-116.533-39.72-114.766-37.387-112.987-34.745-111.218-32.117-109.43-28.833-107.606-24.915-105.782-20.998-104.137-16.72-102.68-12.107L-102.304-11.852C-102.147-10.896-102.004-10.14-101.861-9.58L-101.666-8.743C-99.94-8.536-97.391-8.712-94.023-9.245-90.666-9.792-88.058-9.948-86.198-9.725-84.995-9.581-83.991-9.522-83.185-9.561-82.5-9.615-81.916-9.755-81.424-9.954-80.918-10.165-80.63-10.611-80.552-11.268L-80.218-14.051C-80.157-23.611-80.002-30.46-79.776-34.612-79.519-39.02-78.774-42.974-77.554-46.465-76.734-48.784-75.109-51.955-72.666-55.977-70.238-59.989-68.156-62.44-66.437-63.306-65.016-63.95-62-64.118-57.386-63.837-52.772-63.555-47.783-62.797-42.411-61.537-37.037-60.289-32.987-58.694-30.26-56.752-28.85-56.176-27.841-55.648-27.219-55.179-26.465-54.682-26.006-54.084-25.817-53.396-25.314-53.065-25.011-52.819-24.893-52.669-22.001-50.978-19.145-48.886-16.348-46.405-16.246-46.275-16.04-46.067-15.743-45.788-12.778-50.427-9.922-53.436-7.168-54.798-5.433-55.799-2.604-56.878 1.306-58.024 5.204-59.172 7.442-59.841 8.009-60.044 12.655-61.781 19.736-61.808 29.225-60.128 38.459-58.479 46.919-55.517 54.629-51.228L55.102-50.961C55.414-50.788 55.821-50.579 56.332-50.321 56.842-50.05 57.342-49.793 57.852-49.522 58.363-49.263 58.838-49.009 59.275-48.747 59.714-48.498 60.058-48.284 60.31-48.118 63.453-46.262 66.496-44.085 69.426-41.576 69.661-41.277 70.473-40.538 71.885-39.358 73.297-38.178 74.361-37.286 75.099-36.655 75.825-36.026 76.764-35.112 77.9-33.891 79.025-32.683 79.882-31.607 80.435-30.665 81-29.722 81.508-28.613 81.961-27.35 82.413-26.076 82.501-24.857 82.224-23.682"/>
<path transform="matrix(1,0,0,-1,228.293,443.0583)" d="M0 0C-1.708 0-3.298 .243-4.771 .729-6.244 1.215-7.532 2.017-8.636 3.136-9.741 4.255-10.61 5.735-11.242 7.576-11.876 9.416-12.192 11.706-12.192 14.445V16.786C-12.192 19.466-11.869 21.726-11.22 23.567-10.573 25.407-9.689 26.887-8.57 28.007-7.451 29.126-6.162 29.935-4.705 30.436-3.247 30.937-1.679 31.187 0 31.187H.574C2.105 31.187 3.571 30.981 4.97 30.569 6.368 30.156 7.598 29.479 8.658 28.537 9.718 27.594 10.565 26.357 11.198 24.826 11.831 23.295 12.148 21.41 12.148 19.172H7.686C7.686 21.38 7.355 23.081 6.692 24.274 6.03 25.467 5.139 26.298 4.02 26.77 2.9 27.241 1.635 27.477 .221 27.477-.869 27.477-1.87 27.322-2.783 27.013-3.696 26.704-4.491 26.181-5.169 25.445-5.846 24.708-6.369 23.714-6.737 22.463-7.105 21.211-7.289 19.643-7.289 17.758V13.429C-7.289 10.926-6.973 8.968-6.339 7.554-5.706 6.14-4.83 5.146-3.711 4.572-2.592 3.998-1.296 3.711 .177 3.711 1.649 3.711 2.96 3.946 4.108 4.417 5.257 4.888 6.162 5.72 6.825 6.913 7.488 8.106 7.819 9.792 7.819 11.971H12.148C12.148 9.851 11.839 8.025 11.22 6.494 10.602 4.962 9.755 3.725 8.68 2.783 7.605 1.84 6.368 1.141 4.97 .685 3.571 .228 2.091 0 .53 0Z"/>
<path transform="matrix(1,0,0,-1,253.8262,443.0583)" d="M0 0C-2.327 0-4.182 .641-5.566 1.921-6.951 3.203-7.642 5.183-7.642 7.863V23.015H-3.225V8.923C-3.225 6.95-2.827 5.544-2.032 4.705-1.237 3.865-.074 3.446 1.458 3.446 2.488 3.446 3.438 3.688 4.307 4.175 5.175 4.66 5.875 5.33 6.405 6.184 6.936 7.038 7.201 7.996 7.201 9.056V23.015H11.618V4.638C11.618 4.108 11.743 3.725 11.993 3.49 12.243 3.254 12.53 3.136 12.855 3.136 13.178 3.136 13.517 3.195 13.871 3.313 14.224 3.43 14.548 3.578 14.843 3.755V.928C14.46 .633 13.988 .405 13.429 .243 12.869 .081 12.221 0 11.485 0 10.542 0 9.792 .177 9.233 .53 8.673 .883 8.261 1.347 7.996 1.921 7.731 2.496 7.539 3.107 7.421 3.755 6.685 2.576 5.639 1.656 4.285 .994 2.93 .331 1.502 0 0 0"/>
<path transform="matrix(1,0,0,-1,282.6277,443.0583)" d="M0 0C-1.885 0-3.564 .464-5.036 1.391-6.509 2.319-7.664 3.622-8.504 5.301-9.343 6.98-9.763 8.952-9.763 11.22V12.28C-9.763 13.988-9.505 15.528-8.99 16.897-8.475 18.266-7.768 19.444-6.869 20.431-5.971 21.417-4.911 22.168-3.689 22.684-2.467 23.199-1.149 23.457 .265 23.457H.751C2.606 23.457 4.226 23.081 5.61 22.33 6.994 21.579 8.076 20.519 8.857 19.15 9.637 17.78 10.028 16.124 10.028 14.18H6.096C6.096 15.564 5.86 16.712 5.389 17.626 4.918 18.538 4.27 19.216 3.446 19.658 2.621 20.1 1.693 20.32 .663 20.32-1.016 20.32-2.408 19.746-3.512 18.598-4.616 17.449-5.169 15.711-5.169 13.385V10.16C-5.169 7.833-4.624 6.081-3.534 4.903-2.445 3.725-1.031 3.136 .707 3.136 1.796 3.136 2.753 3.349 3.578 3.777 4.402 4.203 5.05 4.866 5.522 5.765 5.993 6.663 6.229 7.833 6.229 9.277H10.028C10.028 7.303 9.608 5.625 8.769 4.241 7.929 2.856 6.795 1.804 5.367 1.082 3.938 .361 2.326 0 .53 0Z"/>
<path transform="matrix(1,0,0,-1,0,595.276)" d="M298.707 175.233H303.124V152.66H298.707ZM298.574 184.465H303.25703V180.754H298.574Z"/>
<path transform="matrix(1,0,0,-1,310.4568,442.6167)" d="M0 0V22.573H3.181L3.799 19.26C4.623 20.497 5.691 21.432 7.002 22.065 8.312 22.698 9.733 23.015 11.265 23.015 12.825 23.015 14.202 22.721 15.395 22.132 16.587 21.542 17.522 20.666 18.2 19.503 18.877 18.339 19.216 16.889 19.216 15.152V0H14.799V14.401C14.799 16.256 14.371 17.589 13.517 18.399 12.663 19.208 11.456 19.614 9.895 19.614 8.894 19.614 7.974 19.363 7.134 18.863 6.295 18.362 5.632 17.692 5.146 16.853 4.66 16.013 4.417 15.049 4.417 13.959V0Z"/>
<path transform="matrix(1,0,0,-1,344.2939,439.92219)" d="M0 0C1.031 0 2.017 .228 2.96 .685 3.902 1.141 4.675 1.84 5.279 2.783 5.882 3.725 6.184 4.904 6.184 6.317V7.996C3.976 7.996 2.076 7.885 .486 7.664-1.105 7.444-2.319 7.024-3.158 6.406-3.998 5.787-4.417 4.83-4.417 3.534-4.417 2.297-4.05 1.399-3.313 .84-2.577 .28-1.473 0 0 0M-1.767-3.136C-2.975-3.136-4.13-2.944-5.235-2.562-6.339-2.18-7.238-1.524-7.929-.596-8.622 .331-8.968 1.59-8.968 3.181-8.968 4.8-8.607 6.103-7.885 7.09-7.164 8.077-6.133 8.835-4.793 9.365-3.453 9.895-1.849 10.249 .022 10.425 1.892 10.602 3.946 10.69 6.184 10.69V12.988C6.184 14.578 5.794 15.689 5.014 16.323 4.233 16.956 3.004 17.273 1.325 17.273-.088 17.273-1.311 16.97-2.341 16.367-3.372 15.763-3.887 14.813-3.887 13.518V12.988H-8.172C-8.202 13.135-8.216 13.289-8.216 13.451V13.959C-8.216 15.255-7.812 16.381-7.002 17.339-6.192 18.296-5.088 19.032-3.689 19.548-2.29 20.063-.692 20.321 1.104 20.321H1.723C4.697 20.321 6.913 19.731 8.371 18.554 9.829 17.375 10.558 15.682 10.558 13.474V1.502C10.558 .972 10.675 .589 10.911 .354 11.146 .117 11.426 0 11.75 0 12.074 0 12.42 .059 12.788 .177 13.157 .294 13.488 .442 13.782 .619V-2.209C13.4-2.503 12.928-2.731 12.369-2.893 11.809-3.055 11.146-3.136 10.381-3.136 9.438-3.136 8.68-2.952 8.106-2.584 7.532-2.216 7.112-1.723 6.847-1.104 6.582-.486 6.42 .206 6.361 .972 5.507-.353 4.395-1.369 3.026-2.076 1.656-2.783 .059-3.136-1.767-3.136"/>
<path transform="matrix(1,0,0,-1,381.9743,443.0583)" d="M0 0C-1.885 0-3.564 .464-5.036 1.391-6.509 2.319-7.664 3.622-8.504 5.301-9.343 6.98-9.763 8.952-9.763 11.22V12.28C-9.763 13.988-9.505 15.528-8.99 16.897-8.475 18.266-7.768 19.444-6.869 20.431-5.971 21.417-4.911 22.168-3.689 22.684-2.467 23.199-1.149 23.457 .265 23.457H.751C2.606 23.457 4.226 23.081 5.61 22.33 6.994 21.579 8.076 20.519 8.857 19.15 9.637 17.78 10.028 16.124 10.028 14.18H6.096C6.096 15.564 5.86 16.712 5.389 17.626 4.918 18.538 4.27 19.216 3.446 19.658 2.621 20.1 1.693 20.32 .663 20.32-1.016 20.32-2.408 19.746-3.512 18.598-4.616 17.449-5.169 15.711-5.169 13.385V10.16C-5.169 7.833-4.624 6.081-3.534 4.903-2.445 3.725-1.031 3.136 .707 3.136 1.796 3.136 2.753 3.349 3.578 3.777 4.402 4.203 5.05 4.866 5.522 5.765 5.993 6.663 6.229 7.833 6.229 9.277H10.028C10.028 7.303 9.608 5.625 8.769 4.241 7.929 2.856 6.795 1.804 5.367 1.082 3.938 .361 2.326 0 .53 0Z"/>
<path transform="matrix(1,0,0,-1,407.1976,439.92219)" d="M0 0C1.119 0 2.12 .265 3.004 .795 3.887 1.325 4.594 2.121 5.124 3.181 5.654 4.241 5.919 5.551 5.919 7.112V10.072C5.919 11.662 5.654 12.98 5.124 14.026 4.594 15.071 3.887 15.859 3.004 16.389 2.12 16.919 1.119 17.184 0 17.184-1.09 17.184-2.076 16.919-2.96 16.389-3.843 15.859-4.55 15.071-5.08 14.026-5.61 12.98-5.875 11.662-5.875 10.072V7.112C-5.875 5.551-5.61 4.241-5.08 3.181-4.55 2.121-3.843 1.325-2.96 .795-2.076 .265-1.09 0 0 0M-.265-3.136C-2.209-3.136-3.954-2.68-5.5-1.767-7.046-.854-8.261 .456-9.144 2.165-10.028 3.872-10.47 5.89-10.47 8.217V8.968C-10.47 11.353-10.028 13.392-9.144 15.086-8.261 16.779-7.046 18.074-5.5 18.973-3.954 19.871-2.209 20.321-.265 20.321H.309C2.282 20.321 4.035 19.864 5.566 18.951 7.097 18.038 8.305 16.735 9.188 15.042 10.072 13.348 10.514 11.323 10.514 8.968V8.217C10.514 5.89 10.072 3.872 9.188 2.165 8.305 .456 7.09-.854 5.544-1.767 3.998-2.68 2.253-3.136 .309-3.136Z"/>
<path transform="matrix(1,0,0,-1,423.7187,442.6167)" d="M0 0V22.573H3.181L3.799 19.26C4.623 20.497 5.691 21.432 7.002 22.065 8.312 22.698 9.733 23.015 11.265 23.015 12.825 23.015 14.202 22.721 15.395 22.132 16.587 21.542 17.522 20.666 18.2 19.503 18.877 18.339 19.216 16.889 19.216 15.152V0H14.799V14.401C14.799 16.256 14.371 17.589 13.517 18.399 12.663 19.208 11.456 19.614 9.895 19.614 8.894 19.614 7.974 19.363 7.134 18.863 6.295 18.362 5.632 17.692 5.146 16.853 4.66 16.013 4.417 15.049 4.417 13.959V0Z"/>
<path transform="matrix(1,0,0,-1,463.6515,429.2318)" d="M0 0H11.22C11.22 2.209 10.741 3.843 9.785 4.904 8.827 5.964 7.495 6.494 5.787 6.494 4.226 6.494 2.893 5.948 1.789 4.859 .685 3.77 .088 2.149 0 0M5.478-13.827C3.474-13.827 1.715-13.392 .199-12.523-1.319-11.655-2.503-10.374-3.357-8.68-4.212-6.987-4.639-4.947-4.639-2.562V-1.635C-4.639 .78-4.19 2.827-3.291 4.506-2.393 6.185-1.164 7.458 .397 8.327 1.958 9.195 3.74 9.63 5.743 9.63H6.229C8.054 9.63 9.674 9.247 11.088 8.482 12.502 7.715 13.598 6.626 14.379 5.213 15.159 3.799 15.549 2.12 15.549 .177V-2.65H-.044C-.044-4.329 .184-5.772 .641-6.98 1.097-8.188 1.759-9.108 2.628-9.741 3.497-10.374 4.565-10.69 5.831-10.69 6.891-10.69 7.833-10.485 8.658-10.072 9.482-9.66 10.145-9.027 10.646-8.172 11.146-7.318 11.397-6.258 11.397-4.992H15.549C15.549-6.788 15.122-8.349 14.269-9.674 13.414-11 12.258-12.023 10.801-12.744 9.343-13.466 7.701-13.827 5.875-13.827Z"/>
<path transform="matrix(1,0,0,-1,485.2531,442.6167)" d="M0 0V22.573H3.181L3.799 19.26C4.623 20.497 5.691 21.432 7.002 22.065 8.312 22.698 9.733 23.015 11.265 23.015 12.825 23.015 14.202 22.721 15.395 22.132 16.588 21.542 17.522 20.666 18.2 19.503 18.877 18.339 19.216 16.889 19.216 15.152V0H14.799V14.401C14.799 16.256 14.371 17.589 13.517 18.399 12.663 19.208 11.456 19.614 9.895 19.614 8.894 19.614 7.974 19.363 7.134 18.863 6.295 18.362 5.632 17.692 5.146 16.853 4.66 16.013 4.417 15.049 4.417 13.959V0Z"/>
<path transform="matrix(1,0,0,-1,521.0339,439.92219)" d="M0 0C1.119 0 2.12 .265 3.004 .795 3.887 1.325 4.594 2.121 5.124 3.181 5.654 4.241 5.919 5.551 5.919 7.112V10.072C5.919 11.662 5.654 12.98 5.124 14.026 4.594 15.071 3.887 15.859 3.004 16.389 2.12 16.919 1.119 17.184 0 17.184-1.09 17.184-2.076 16.919-2.96 16.389-3.843 15.859-4.55 15.071-5.08 14.026-5.61 12.98-5.875 11.662-5.875 10.072V7.112C-5.875 5.551-5.61 4.241-5.08 3.181-4.55 2.121-3.843 1.325-2.96 .795-2.076 .265-1.09 0 0 0M-.265-3.136C-2.209-3.136-3.954-2.68-5.5-1.767-7.046-.854-8.26 .456-9.144 2.165-10.028 3.872-10.47 5.89-10.47 8.217V8.968C-10.47 11.353-10.028 13.392-9.144 15.086-8.26 16.779-7.046 18.074-5.5 18.973-3.954 19.871-2.209 20.321-.265 20.321H.309C2.282 20.321 4.035 19.864 5.566 18.951 7.097 18.038 8.305 16.735 9.188 15.042 10.072 13.348 10.514 11.323 10.514 8.968V8.217C10.514 5.89 10.072 3.872 9.188 2.165 8.305 .456 7.09-.854 5.544-1.767 3.998-2.68 2.253-3.136 .309-3.136Z"/>
<path transform="matrix(1,0,0,-1,544.0486,443.0583)" d="M0 0C-1.09 0-2.069 .177-2.938 .53-3.807 .883-4.483 1.45-4.97 2.231-5.455 3.011-5.699 4.049-5.699 5.345V19.569H-8.172V23.015H-5.566L-4.02 30.215H-1.281V23.015H3.976V19.569H-1.281V6.14C-1.281 4.844-1.016 4.02-.486 3.667 .044 3.313 .619 3.136 1.237 3.136 1.561 3.136 2.01 3.209 2.584 3.357 3.159 3.504 3.622 3.651 3.976 3.799V.839C3.651 .663 3.261 .508 2.805 .375 2.348 .243 1.878 .148 1.392 .088 .906 .029 .442 0 0 0"/>
<path transform="matrix(1,0,0,-1,557.4335,429.2318)" d="M0 0H11.22C11.22 2.209 10.741 3.843 9.785 4.904 8.827 5.964 7.495 6.494 5.787 6.494 4.226 6.494 2.893 5.948 1.789 4.859 .685 3.77 .088 2.149 0 0M5.478-13.827C3.474-13.827 1.715-13.392 .199-12.523-1.318-11.655-2.503-10.374-3.357-8.68-4.212-6.987-4.639-4.947-4.639-2.562V-1.635C-4.639 .78-4.19 2.827-3.291 4.506-2.393 6.185-1.164 7.458 .398 8.327 1.958 9.195 3.74 9.63 5.743 9.63H6.229C8.054 9.63 9.674 9.247 11.088 8.482 12.502 7.715 13.598 6.626 14.379 5.213 15.159 3.799 15.549 2.12 15.549 .177V-2.65H-.044C-.044-4.329 .184-5.772 .641-6.98 1.097-8.188 1.759-9.108 2.628-9.741 3.497-10.374 4.565-10.69 5.831-10.69 6.891-10.69 7.833-10.485 8.658-10.072 9.482-9.66 10.145-9.027 10.646-8.172 11.146-7.318 11.397-6.258 11.397-4.992H15.549C15.549-6.788 15.122-8.349 14.269-9.674 13.414-11 12.258-12.023 10.801-12.744 9.343-13.466 7.701-13.827 5.875-13.827Z"/>
<path transform="matrix(1,0,0,-1,587.826,443.0583)" d="M0 0C-1.885 0-3.564 .464-5.036 1.391-6.509 2.319-7.664 3.622-8.504 5.301-9.343 6.98-9.763 8.952-9.763 11.22V12.28C-9.763 13.988-9.505 15.528-8.99 16.897-8.475 18.266-7.768 19.444-6.869 20.431-5.971 21.417-4.911 22.168-3.689 22.684-2.467 23.199-1.149 23.457 .265 23.457H.751C2.606 23.457 4.226 23.081 5.61 22.33 6.994 21.579 8.076 20.519 8.857 19.15 9.637 17.78 10.028 16.124 10.028 14.18H6.096C6.096 15.564 5.86 16.712 5.389 17.626 4.918 18.538 4.27 19.216 3.446 19.658 2.621 20.1 1.693 20.32 .662 20.32-1.016 20.32-2.408 19.746-3.512 18.598-4.616 17.449-5.169 15.711-5.169 13.385V10.16C-5.169 7.833-4.624 6.081-3.534 4.903-2.445 3.725-1.031 3.136 .707 3.136 1.796 3.136 2.753 3.349 3.578 3.777 4.402 4.203 5.05 4.866 5.522 5.765 5.993 6.663 6.229 7.833 6.229 9.277H10.028C10.028 7.303 9.608 5.625 8.769 4.241 7.929 2.856 6.795 1.804 5.367 1.082 3.938 .361 2.326 0 .53 0Z"/>
<path transform="matrix(1,0,0,-1,611.1056,439.92219)" d="M0 0C1.031 0 2.017 .228 2.96 .685 3.902 1.141 4.675 1.84 5.279 2.783 5.882 3.725 6.184 4.904 6.184 6.317V7.996C3.976 7.996 2.076 7.885 .486 7.664-1.104 7.444-2.319 7.024-3.158 6.406-3.998 5.787-4.417 4.83-4.417 3.534-4.417 2.297-4.05 1.399-3.313 .84-2.577 .28-1.473 0 0 0M-1.767-3.136C-2.975-3.136-4.13-2.944-5.235-2.562-6.339-2.18-7.238-1.524-7.929-.596-8.622 .331-8.968 1.59-8.968 3.181-8.968 4.8-8.607 6.103-7.885 7.09-7.164 8.077-6.133 8.835-4.793 9.365-3.453 9.895-1.849 10.249 .022 10.425 1.892 10.602 3.946 10.69 6.184 10.69V12.988C6.184 14.578 5.794 15.689 5.014 16.323 4.233 16.956 3.004 17.273 1.325 17.273-.088 17.273-1.311 16.97-2.341 16.367-3.372 15.763-3.887 14.813-3.887 13.518V12.988H-8.172C-8.202 13.135-8.216 13.289-8.216 13.451V13.959C-8.216 15.255-7.812 16.381-7.002 17.339-6.192 18.296-5.088 19.032-3.689 19.548-2.29 20.063-.692 20.321 1.104 20.321H1.723C4.697 20.321 6.913 19.731 8.371 18.554 9.829 17.375 10.558 15.682 10.558 13.474V1.502C10.558 .972 10.675 .589 10.911 .354 11.146 .117 11.426 0 11.75 0 12.074 0 12.42 .059 12.788 .177 13.157 .294 13.488 .442 13.782 .619V-2.209C13.4-2.503 12.928-2.731 12.369-2.893 11.809-3.055 11.146-3.136 10.381-3.136 9.438-3.136 8.68-2.952 8.106-2.584 7.532-2.216 7.112-1.723 6.847-1.104 6.582-.486 6.42 .206 6.361 .972 5.507-.353 4.395-1.369 3.026-2.076 1.656-2.783 .059-3.136-1.767-3.136"/>
</g>
</g>
</svg>
