<?xml version="1.0" encoding="UTF-8"?>
<svg xmlns="http://www.w3.org/2000/svg" version="1.1" viewBox="0 0 1386.7 595.28">
  <defs>
    <style>
      .cls-1 {
        fill: #e5e5e4;
      }
    </style>
  </defs>
  <!-- Generator: Adobe Illustrator 28.7.8, SVG Export Plug-In . SVG Version: 1.2.0 Build 200)  -->
  <g>
    <g id="Livello_1">
      <path class="cls-1" d="M1364.27,317.3c-.91-7.62-3.67-11.64-8.27-12.05-4.6-.41-9.62,2.19-15.01,7.79-2.45,2.52-9.36,7.06-20.73,13.68-11.34,6.59-20.02,11.37-26.01,14.29-16.03,6.9-31,12.13-44.92,15.75-8.78,2.69-14.93,3.84-18.42,3.45-3.51-.41-7.67-2.39-12.52-5.96-7.58-5.71-11.6-10.34-12.03-13.88-.52-4.36,3.87-18.56,13.12-42.57,2.51-6.67,6.82-16.29,12.89-28.89,6.1-12.59,10.81-22.83,14.14-30.68,3.33-7.86,5.75-17.6,7.26-29.23,1.51-11.63.8-22.67-2.09-33.09-3.55-13.37-17.14-19.61-40.76-18.72-22.79,1.09-40.62,10.12-53.49,27.11-3.11,3.99-7.04,10.25-11.82,18.83-.87,2.03-1.69,4.27-2.51,6.72-.82,2.42-1.5,4.8-2.03,7.07-.56,2.27-1.07,5.03-1.51,8.24-.45,3.24-.83,5.76-1.16,7.6-.34,1.83-.61,4.57-.86,8.19-.27,3.62-.47,6-.62,7.1-1.87,19-2.12,34.22-.75,45.66,1.63,13.61,6.25,28.42,13.84,44.39-7.78,6.74-16.99,13.89-27.68,21.45-2.28,1.66-7.25,4.05-14.86,7.16-.52.34-1.81,1.13-3.87,2.33-2.08,1.21-4.01,2.2-5.86,2.98-1.83.78-3.18,1.06-4.04.89-1.68-.33-4.3-2.52-7.81-6.52-8.18-8.4-13.24-16-15.17-22.8-1.93-6.82-2.21-17.35-.88-31.59,1.93-18.45,4.5-35.04,7.71-49.78,2.36-10.22,3.47-17,3.36-20.29s-1.79-6.96-5.06-10.97c-4.51-5.55-8.83-8.12-12.94-7.78-4.08.36-10.44,3.8-19.03,10.34-5.82,4.56-9.79,7.11-11.92,7.65-2.16.54-5.04-.48-8.66-3.11-2.8-2.7-4.66-6.59-5.55-11.74-.92-5.4-1.18-16.84-.8-34.28-.2-27.02-2.03-42.27-5.48-45.72-2.77-2.42-7.6-3.56-14.49-3.44-6.88.14-12.21,1.67-16,4.62-2.7,2.8-6,9.82-9.91,21.05-3.85,11.51-5.53,19.44-5.01,23.8.42,3.54.65,7.1.65,10.69.03,3.59-.2,7.4-.7,11.46-.47,4.08-.9,7.49-1.24,10.31-.35,2.8-1.09,6.48-2.19,11.03-1.12,4.53-1.89,7.88-2.31,10.01-.45,2.13-1.37,5.83-2.81,11.1-1.44,5.28-2.34,8.75-2.69,10.46-4.51,17.65-7.92,31.73-10.26,42.22l.05.4-.12.65-.12.65c-3,7.26-6.34,12.89-10,16.92-1.76,1.32-3.28,2.62-4.49,3.85-2.27,1.94-5.52,4.81-9.73,8.62l-.77.52c-5.09-3.26-8.84-5.87-11.29-7.77-2.43-1.91-4.84-4.73-7.21-8.46-2.39-3.71-4.16-8.12-5.32-13.21-2.88-12.65-5.75-30.65-8.55-54.07-.65-5.43-1.55-9.59-2.73-12.49-1.18-2.89-3.04-5.73-5.56-8.46-2.56-3-6.48-6.81-11.73-11.43-10.11-8.44-18.66-12.93-25.63-13.48-6.97-.56-14.86,2.74-23.66,9.86-5.22,4.77-11.42,8.29-18.61,10.52-15.34,5.71-27.92,13.56-37.77,23.58-9.88,9.73-19.5,24.96-28.9,45.7-7.97,16.42-12.22,30.45-12.75,42.12-.55,11.64,2.21,26.63,8.27,44.96.9,2.65,1.77,5.1,2.61,7.37-9.52,8.54-20.03,15.95-31.57,22.19-7.48,4.21-14.57,7.28-21.24,9.17-12.51,4-26.66,5.07-42.48,3.24-7.15-.83-13.44-2.44-18.93-4.74-4.08-.53-7.71-2.19-10.83-4.61-5-3.89-8.67-9.72-10.71-16.09-.69-1.48-1.28-3-1.77-4.56-.1-.34-.21-.67-.31-1.01,0,0,0,0,0-.01-.15-.52-.29-1.05-.41-1.57-.01,0-.03.02-.04.03-.56-1.99-1.09-4.11-1.57-6.38-.03-.15-.07-.3-.1-.45-.44-2.12-.86-4.31-1.24-6.67-2.04-14.67-1.36-25.24,2.01-31.71,3-7.26,4.27-12.67,3.85-16.21-1.14-9.52,6.35-24.85,22.45-45.96,16.1-21.11,28.64-32.22,37.64-33.3,4.88-.58,9.3,1.03,13.19,4.84,3.92,3.83,5.29,7.86,4.16,12.14-1.06,5.11,2.43,9.31,10.41,12.63,7.98,3.32,16.16,4.05,24.51,2.24,6.16-1.57,10-3.47,11.52-5.73,1.52-2.26,2.74-7.71,3.62-16.38.97-17.23-5.35-30.27-18.97-39.15-13.62-8.83-32.13-11.87-55.55-9.06-12.78,1.53-21.4,3.45-25.8,5.77-4.42,2.32-11.03,8.17-19.87,17.5-37.23,41.74-53.98,88.46-50.28,140.21,1.63,15.75,4.54,28.11,8.72,37.09-9.56,5.5-17.01,9.57-22.34,12.16-16.03,6.9-31,12.13-44.92,15.75-8.78,2.69-14.93,3.84-18.42,3.45-3.51-.41-7.67-2.39-12.52-5.96-7.58-5.71-11.6-10.34-12.03-13.88-.52-4.36,3.87-18.56,13.12-42.57,2.51-6.67,6.82-16.29,12.89-28.89,6.1-12.58,10.81-22.83,14.14-30.68,3.33-7.86,5.75-17.6,7.26-29.23,1.51-11.63.8-22.67-2.09-33.09-3.55-13.37-17.14-19.61-40.76-18.72-22.79,1.09-40.62,10.12-53.49,27.11-2.36,3.03-5.2,7.38-8.52,13.05-.59-7.16.23-12.3,2.45-15.41,2.49-3.48,4.31-17.58,5.5-42.29.77-23.55-1.19-42.24-5.88-56.04-4.69-13.79-13.59-26.93-26.69-39.44-12.18-11.78-22.67-24.48-31.45-38.06-13.13-19.68-34.87-30.47-65.17-32.35-13.71-1.39-30.03-.62-49,2.36-18.98,2.96-34.52,8.05-46.62,15.32-4.1,2.69-8.13,6-12.06,9.91-3.95,3.94-8.6,8.99-13.93,15.14-5.33,6.15-8.99,10.18-10.96,12.08-13.93,15.19-23.01,26.29-27.28,33.29-4.27,7.01-7.65,17.4-10.13,31.24-3.42,15.3-4.84,25.83-4.31,31.55.56,5.75,3.12,15.09,7.71,28.07,8.08,18.92,17.6,33.78,28.55,44.63,10,9.85,15.37,18.78,16.06,26.84.69,8.08-2.53,25.1-9.63,51.07-.79,4.77-1.99,10.37-3.57,16.78-1.58,6.41-2.96,11.6-4.14,15.61-1.16,4.01-1.8,6.71-1.91,8.09-2.02,10.73-10.02,12.12-23.95,4.11-5.92-3.41-15.74-4.58-29.41-3.5-13.67,1.08-24.67,3.79-32.97,8.1-5.99,3.19-12.05,11.86-18.22,25.99-6.17,14.13-8.76,25.41-7.75,33.84.75,6.28,6.72,18.13,17.93,35.54,8.37,12.27,14.16,19.23,17.39,20.92,3.26,1.66,10.17,1.74,20.75.19,17.9-2.7,31.53-6.41,40.9-11.12,9.4-4.44,18.48-11.59,27.22-21.49,10.1-12.51,15.96-18.87,17.61-19.07,1.1-.13,10.01,1.68,26.74,5.49,16.11,3.02,26.31,2.91,30.62-.36,2.94-3.11,14.1-8.87,33.54-17.26,29.36-12.92,52.55-27.43,69.52-43.54,16.97-16.11,33.77-40.09,50.4-71.88,4.23-8.16,7.82-15.25,10.8-21.3-.01.18-.03.36-.04.55-.27,3.62-.47,6-.62,7.1-1.87,19-2.12,34.22-.75,45.66,2.25,18.76,10.15,39.78,23.7,63,7.36,12.92,14.4,21.05,21.15,24.38,3.56,2.05,9.36,4.26,17.37,6.61,7.99,2.35,12.58,3.72,13.74,4.14,9.53,3.56,24.04,3.61,43.49.17,18.93-3.38,36.27-9.45,52.08-18.25l.97-.55c.64-.35,1.47-.78,2.52-1.31,1.05-.55,2.07-1.08,3.12-1.64,1.05-.53,2.02-1.05,2.92-1.59.9-.51,1.6-.95,2.12-1.29,5.44-3.21,10.74-6.9,15.87-11.07.74.89,1.47,1.79,2.24,2.68,4.5,5.27,8.44,9.23,11.78,11.86,8.54,6.71,20.46,9.63,35.83,8.75,15.36-.88,30.81-4.4,46.36-10.53,15.57-6.14,28.29-11.53,38.23-16.16,9.93-4.65,16.96-8.2,21.1-10.62,4.74-2.8,9.37-5.97,13.87-9.49,1.31,1.04,2.7,2.1,4.2,3.18,6.69,5.01,11.6,8.01,14.75,9,2.3.84,4.83,1.09,7.55.76,1.37-.16,2.85-.49,4.43-.96,4.47-1.9,11.8-4.02,22.01-6.35,8.96-1.35,18.1-5.63,27.45-12.82,7.28-6.1,13.24-10.56,17.87-13.31,3.68-1.55,7.54-6.29,11.56-14.23,1.08-2.35,2.67-6.41,4.73-12.17,3.64-11.2,7.23-18.13,10.78-20.75,2.83-1.73,5.39-2.24,7.67-1.55,2.28.71,4.76,2.82,7.39,6.37l1.47,1.9c2.65,3.55,4.87,6.04,6.71,7.49,8.41,5.89,16.56,8.07,24.4,6.6,1.89-.23,3.98-1.18,6.28-2.83l1.99-.67c1.31-.44,3.14-1.41,5.44-2.93,2.3-1.51,4.89-3.49,7.79-5.89,2.87-2.42,6.14-5.71,9.78-9.89,3.65-4.15,7.27-8.93,10.92-14.35,3.63-5.39,7.29-12.12,11.03-20.15,3.74-8.03,7.11-16.8,10.1-26.26l.77-.52c.32-1.96.62-3.51.91-4.66l.4-1.72c3.54-.42,8.76-.06,15.67,1.03,6.88,1.12,12.23,1.44,16.04.98,2.47-.3,4.52-.42,6.18-.34,1.4.11,2.6.4,3.61.81,1.04.43,1.63,1.35,1.79,2.69l.68,5.71c.12,19.6.44,33.64.91,42.15.53,9.04,2.05,17.14,4.55,24.3,1.68,4.75,5.01,11.25,10.02,19.5,4.98,8.22,9.25,13.25,12.77,15.02,2.91,1.32,9.1,1.66,18.56,1.09,9.46-.58,19.69-2.13,30.7-4.72,11.02-2.56,19.32-5.83,24.91-9.81,2.89-1.18,4.96-2.26,6.24-3.22,1.55-1.02,2.49-2.24,2.87-3.66,1.03-.68,1.65-1.18,1.89-1.49,5.93-3.47,11.78-7.76,17.52-12.84.21-.27.63-.69,1.24-1.27,6.08,9.51,11.93,15.68,17.58,18.47,3.56,2.05,9.36,4.26,17.37,6.61,7.99,2.35,12.58,3.72,13.74,4.14,9.53,3.56,24.04,3.61,43.49.17,18.93-3.38,36.27-9.45,52.08-18.25l.97-.55c.64-.35,1.47-.78,2.52-1.31,1.05-.55,2.07-1.08,3.11-1.64,1.05-.53,2.02-1.05,2.92-1.59.9-.51,1.6-.95,2.12-1.29,6.44-3.81,12.68-8.27,18.69-13.41.48-.61,2.15-2.13,5.04-4.55,2.89-2.42,5.08-4.25,6.59-5.54,1.49-1.29,3.41-3.16,5.74-5.67,2.31-2.48,4.06-4.68,5.2-6.61,1.16-1.93,2.2-4.21,3.13-6.8.93-2.61,1.11-5.11.54-7.52ZM103.9,472.88c-5.23,6.97-12.34,10.93-21.35,11.88-8.99.93-14.85-1.76-17.52-8.06-1.92-4.45-1.09-11.39,2.49-20.8,3.55-9.4,7.11-14.3,10.65-14.72,2.99-.36,9.06,3.06,18.21,10.23,6.7,5.29,10.41,9.04,11.09,11.31.68,2.27-.51,5.65-3.56,10.16ZM350.5,239.59c-1.84,26.18-5.27,46.53-10.27,61.08-5.03,14.53-13.87,31.26-26.49,50.16-14.61,21.09-21.76,32.71-21.5,34.88.26,2.19-4.38,6.06-13.93,11.6-10.06,5.91-18.93,13.74-26.61,23.48-8.13,10.38-16.7,16.08-25.67,17.15-7.35.88-17.45,3.05-30.28,6.53-7.46,2.28-12.54,3.1-15.25,2.43-2.68-.64-4.7-2.95-5.99-6.94-3.25-6.23-2.49-14.87,2.28-25.93,5.26-11.4,8.93-25.66,11.03-42.75.42-5.56.77-9.62,1.02-12.13.5-2.81,1.22-5.81,2.24-8.96.95-3.43,1.71-5.79,2.26-7.09.52-1.33,2.07-2.8,4.64-4.5,2.55-1.7,4.77-2.77,6.63-3.27,1.37-.16,4.47-.69,9.34-1.55,4.6-.83,8.81-1.33,12.66-1.52,3.85-.18,9.58-.59,17.24-1.23,23.56-1.43,40.33-3.87,50.26-7.26,9.96-3.39,14.51-8.64,13.66-15.71-.75-6.25-6-10.2-15.69-11.79-9.72-1.59-22.64-.6-38.79,3.01-21,4.44-34.86,4.99-41.6,1.67-5.03-2.73-7.39-5.81-7.13-9.31.27-3.47,3.19-13.02,8.78-28.58,7.33-19.38,12.6-38.92,15.75-58.63,1.47-15.37,3.98-27.95,7.51-37.75,2.7-7.22,1.74-13.12-2.95-17.67-4.69-4.54-10.94-6.47-18.72-5.82-7.78.65-15.77,3.81-23.91,9.49-3,2.56-5.13,4.41-6.39,5.52-1.23,1.11-2.59,2.46-4.07,4-1.46,1.56-2.35,2.78-2.67,3.66-.3.84-.6,2.4-.88,4.65-.29,2.23-.35,4.04-.19,5.41.16,1.35.41,4.02.75,7.97.33,3.98.43,7.61.27,10.94.43,8.24-.09,16.52-1.57,24.83-1.5,8.34-3.44,15.2-5.82,20.59-2.39,5.39-4.95,8.25-7.67,8.58-4.09.49-8.15-4.13-12.22-13.85-4.07-9.75-5.67-19.06-4.8-28.01,1.14-11.18,4.57-21.8,10.26-31.86,5.69-10.08,16-23.17,30.9-39.31,10.44-12.02,18.72-19.91,24.91-23.71,6.17-3.77,15.55-7.1,28.2-10,19.87-4.58,30.2-7.21,30.93-7.85,3.29-.39,6.68.24,10.18,1.89,3.51,1.65,6.56,4.12,9.15,7.4,2.58,3,4.59,6.07,6.08,9.2,3.11,7.64,11.67,19.17,25.68,34.61,14.4,14.3,23.36,27.23,26.79,38.82,3.46,11.59,4.03,29.42,1.65,53.44ZM439.99,359.31c-8.59,22.56-14.12,33.99-16.59,34.29-2.17.26-3.79-1.69-4.84-5.84-1.03-4.15-1.41-9.41-1.06-15.82.35-6.39.79-13.06,1.34-20.03.8-7,2.17-13.93,4.13-20.79,1.93-6.85,4.06-12.09,6.39-15.68,2.8-4.48,7.05-6.3,12.82-5.45,5.76.83,8.95,3.81,9.57,8.99.52,4.36-3.4,17.8-11.75,40.33ZM844.54,329.05c-.02,9.1-1.94,16.1-5.78,20.99-4.2,6.29-6.7,11.97-7.46,17.04-.82,4.77-5.65,11.72-14.5,20.77-2.45,2.52-4.56,4.56-6.32,6.14-1.49,1.29-3.13,2.6-4.92,3.9-1.49,1.29-3.17,2.25-5.04,2.9-1.85.63-3.72,1.2-5.58,1.71-2.17.26-4.91.59-8.17.98-6.53.78-11.23.79-14.08.02-.31-.08-.61-.19-.91-.29.78-.89,1.46-1.73,2.04-2.54,1.17-1.66,2.41-3.52,3.68-5.6,1.27-2.1,2.1-4.19,2.55-6.32.43-2.12.54-4.13.31-6.03-1.22-7.87-4.06-11.95-8.52-12.25-3.68-.25-7.67,1.53-11.98,5.32-1.28-5.84-2.88-9.97-4.82-12.4-2.11-3.89-2.38-10.76-.8-20.6,1.85-9.9,5.09-20.78,9.76-32.66,4.95-11.61,10.53-21.41,16.76-29.33,6.89-9.37,11.61-14.91,14.16-16.61.76-.65,1.67-1.03,2.77-1.17,1.37-.16,2.95.35,4.73,1.51,2.66,1.35,5.5,4.32,8.53,8.94,3.06,4.87,4.83,9.08,5.25,12.61.65,5.43,5.69,11.88,15.13,19.29,6.11,4.8,9.99,8.48,11.69,11.04,1.42,2.58,1.93,6.82,1.52,12.66ZM849.03,280.06c-1.29-1.51-2.84-5.17-4.63-11.05-2.38-8.26-3.03-13.71-1.96-16.32.18-.58.67-1.19,1.42-1.84,2.05.87,3.67,6.33,4.87,16.4.78,6.53.87,10.81.3,12.8ZM1195.71,268.75c-8.59,22.56-14.12,33.99-16.59,34.29-2.17.26-3.79-1.69-4.84-5.84-1.03-4.15-1.41-9.41-1.06-15.82.35-6.39.79-13.06,1.34-20.03.8-7,2.17-13.93,4.13-20.79,1.93-6.85,4.06-12.09,6.39-15.68,2.8-4.48,7.05-6.3,12.82-5.45,5.76.83,8.95,3.81,9.57,8.99.52,4.36-3.4,17.8-11.75,40.33Z"/>
    </g>
  </g>
</svg>