<svg xmlns="http://www.w3.org/2000/svg" xmlns:xlink="http://www.w3.org/1999/xlink" version="1.1" width="841.89pt" height="595.276pt" viewBox="0 0 841.89 595.276">
<defs>
<clipPath id="clip_1">
<path transform="matrix(1,0,0,-1,0,595.276)" d="M0 595.276H841.89V0H0Z"/>
</clipPath>
</defs>
<g clip-path="url(#clip_1)">
<path transform="matrix(1,0,0,-1,697.4719,241.48349)" d="M0 0C.003 .454 .006 .907 .009 1.361-1.055 1.253-2.118 1.145-3.182 1.037-3.13 .641-3.078 .245-3.026-.151-2.017-.101-1.009-.05 0 0M-141.645 66.373C-141.396 66.681-141.147 66.99-140.898 67.299-141.622 67.957-142.313 68.663-143.112 69.211-143.212 69.28-143.883 68.516-144.29 68.138-143.408 67.55-142.527 66.961-141.645 66.373M-100.526 52.653C-101.133 52.49-101.74 52.328-102.347 52.166-101.935 51.203-101.547 50.229-101.07 49.299-101.027 49.216-100.106 49.453-100.11 49.493-100.207 50.55-100.372 51.601-100.526 52.653M-117.913 69.859C-118.415 69.555-118.918 69.251-119.421 68.947-119.79 68.221-120.583 67.372-120.418 66.799-120.221 66.116-119.204 65.668-118.542 65.118-118.002 65.813-117.097 66.47-117.018 67.214-116.929 68.055-117.582 68.974-117.913 69.859M-127.404 62.406-127.314 62.481C-128.242 60.583-129.169 58.686-130.315 56.342-133.787 61.323-138.263 64.459-144.11 65.843-145.684 66.215-146.781 68.603-148.059 70.023-151.507 70.023-155.23 70.703-158.575 69.868-163.888 68.541-168.284 69.087-171.056 72.343-174.555 72.184-177.068 72.07-179.626 71.954-180.802 74.786-181.814 77.225-182.825 79.665-181.257 80.625-179.689 81.586-177.443 82.962-179.523 83.389-180.942 83.946-182.327 83.871-183.228 83.823-184.532 83.047-184.862 82.263-185.608 80.494-184.102 80.044-182.729 79.738-183.711 79.356-184.665 78.831-185.683 78.629-186.931 78.382-188.414 78.771-189.476 78.243-192.606 76.685-195.534 74.692-197.585 79.622-197.853 80.266-199.268 80.416-200.135 80.831-205.155 83.234-210.379 84.951-215.93 85.596-217.374 85.764-218.9 86.38-220.238 86.092-225.139 85.038-230.469 86.912-235.069 83.912-235.198 83.827-235.452 83.888-235.634 83.935-242.97 85.824-251.342 82.879-257.843 88.684-257.981 88.808-258.176 88.922-258.354 88.94-262.033 89.311-265.183 90.878-268.403 92.646-269.916 93.477-272.467 92.161-274.422 92.513-276.308 92.853-278.036 94.761-279.828 94.753-281.94 94.743-284.046 93.415-286.263 92.62-287.116 95.181-288.572 97.016-291.854 97.139-293.653 97.207-295.55 98.113-297.165 99.05-304.883 103.53-307.43 103.306-314.574 97.686-316.162 96.437-318.169 95.417-320.132 95.007-325.144 93.961-330.216 92.978-335.31 92.612-340.285 92.256-344.894 91.072-349.521 89.293-352.459 88.163-355.801 87.5-358.93 87.601-362.703 87.722-366.174 87.691-369.338 85.35-370.241 84.681-371.357 84.216-372.445 83.897-378.651 82.077-384.89 80.374-391.085 78.521-392.304 78.157-393.764 77.592-394.454 76.642-397.874 71.94-402.719 70.6-408.085 70.672-410.65 70.706-412.568 70.324-413.65 67.727-414.396 65.935-415.898 65.431-417.869 65.417-419.051 65.408-420.468 64.703-421.364 63.866-425.103 60.37-429.614 58.475-434.361 56.865-436.864 56.015-439.119 54.44-441.616 53.565-446.115 51.99-449.648 47.37-455.255 49.17-455.715 49.317-456.523 49.123-456.862 48.782-459.682 45.941-464.415 45.884-466.549 41.882-467.126 40.801-469.105 39.931-470.465 39.894-476.977 39.72-482.706 37.434-488.411 34.509-491.215 33.072-494.626 32.331-497.796 32.219-501.528 32.087-504.935 32.176-507.79 29.12-508.626 28.224-510.662 28.486-512.127 28.133-515.086 27.418-518.043 26.69-520.978 25.884-523.894 25.083-526.757 24.079-529.689 23.348-533.412 22.419-536.917 21.194-539.729 18.395-545.572 12.583-551.275 6.605-557.422 1.13-563.425-4.217-570.382-8.545-576.076-14.174-585.53-23.52-591.529-35.085-594.626-48.037-595.414-51.33-596.827-53.836-599.275-56.317-602.234-59.317-604.757-63.059-606.405-66.933-607.578-69.69-607.251-73.204-607.14-76.364-606.893-83.353-607.874-90.347-606.893-97.338-606.662-98.979-606.934-100.812-607.443-102.407-608.234-104.888-607.742-106.904-606.162-108.83-605.437-109.714-604.587-110.589-604.176-111.621-600.05-121.969-590.777-126.971-582.242-132.664-578.129-135.408-573.601-137.524-569.361-140.089-563.156-143.842-557.046-147.753-550.876-151.567-550.232-151.965-549.46-152.154-548.752-152.452-543.993-154.454-539.196-156.374-534.493-158.501-532.342-159.473-530.4-160.228-527.91-159.541-524.265-158.535-521.654-160.046-518.819-162.766-514.306-167.097-509.096-170.977-502.305-171.096-498.68-171.16-494.988-171.276-491.436-170.696-483.98-169.481-476.559-170.689-469.168-170.882-461.088-171.094-453.028-171.253-444.976-170.77-436.797-170.278-428.897-170.615-421.522-174.843-419.638-175.923-417.215-176.063-414.706-176.722-411.803-181.662-406.161-183.546-400.937-184.38-395.478-185.252-389.743-184.969-384.139-185.747-380.896-186.198-377.333-183.982-374.346-187.107-373.967-187.503-372.555-187.012-371.656-186.792-366.054-185.42-361.132-187.064-357.24-189.651-354.575-189.488-352.585-189.152-350.636-189.31-348.837-189.455-347.051-190.038-345.31-190.588-339.664-192.371-333.68-193.726-332.161-200.865-331.908-202.057-331.164-203.144-330.497-204.609-328.549-203.274-327.019-202.226-325.619-201.266-320.862-203.826-316.307-206.146-311.888-208.702-308.851-210.459-306.668-210.462-304.631-208.05-303.93-207.219-303.517-206.144-303.194-205.572-298.076-206.251-293.398-206.988-288.693-207.457-285.647-207.76-282.539-207.469-279.497-207.798-266.349-209.218-253.217-210.781-240.075-212.257-238.56-212.427-237.001-212.572-235.496-212.411-224.083-211.186-212.665-210.346-201.314-208.189-188.148-205.686-174.68-204.797-161.356-203.105-146.15-201.175-130.884-199.667-115.806-196.805-114.488-196.554-113.18-196.112-111.855-196.054-101.54-195.601-92.485-191.081-83.968-186.11-78.343-182.827-72.837-179.422-66.888-176.73-63.037-174.986-58.032-174.882-56.491-169.602-56.287-168.906-55.001-168.484-54.169-168.02-46.477-163.723-39.357-158.78-34.553-151.118-33.955-150.165-33.051-149.379-32.203-148.61-27.836-144.644-23.593-140.518-18.999-136.831-16.079-134.488-13.929-130.92-9.734-130.34-9.432-130.299-9.182-129.878-8.997-129.713-9.503-128.034-9.973-126.472-10.157-125.858-6.818-122.785-3.401-120.734-1.587-117.72 1.187-113.11 3.406-108.318 8.769-106.552 8.443-103.749 7.174-100.859 8.063-99.006 10.967-92.956 11.344-85.54 17.589-81.312 15.321-79.429 13.445-77.941 15.72-75.019 16.801-73.63 15.846-65.793 14.632-64.157 8.932-56.477 3.518-48.534-2.758-41.348-6.774-36.751-8.369-32.473-5.569-26.519-11.51-25.755-10.314-20.377-11.71-17.09-14.347-15.944-16.884-15.346-18.791-13.911-23.332-10.492-28.556-7.85-31.545-2.534-32.495-.843-34.748 .119-36.414 1.402-38.334 2.882-40.265 4.346-42.189 5.82-43.086 6.508-43.899 7.358-44.887 7.866-49.451 10.214-53.977 12.673-58.69 14.686-61.931 16.071-64.945 17.52-67.2 20.338-68.712 22.228-70.58 23.144-73.251 22.693-76.572 22.134-82.181 24.144-86.255 26.928-84.568 28.142-83.039 29.243-81.51 30.344-83.03 30.929-84.616 31.196-85.435 30.526-89.727 27.016-93.335 28.997-97.589 30.92-101.285 32.59-101.96 35.961-103.748 38.454-104.396 38.634-104.758 38.803-105.128 38.822-105.7 38.852-106.286 38.697-106.85 38.763-111.641 39.323-113.232 41.531-112.559 46.329-112.462 47.021-113.172 47.826-113.509 48.578L-113.446 48.506C-115.138 49.229-116.831 49.951-118.568 50.693-119.804 46.45-121.48 47.541-123.319 49.451-121.666 54.131-120.085 58.603-118.116 64.173-121.959 63.442-124.682 62.924-127.404 62.406M-30.534 25.564C-30.224 23.202-29.914 20.84-29.611 18.53H-18.893L-18.971 18.617C-17.837 16.826-16.426 15.352-19.232 13.366-20.625 12.38-20.897 9.812-21.703 7.897-16.549 4.337-15.709 9.505-13.054 12.068-10.152 9.623-7.425 7.325-4.698 5.028-5.073 4.646-5.447 4.265-5.821 3.884-3.988 3.884-2.136 4.049-.325 3.848 2.934 3.485 4.977 1.772 4.633-1.214 4.265-4.413 5.601-5.912 7.763-7.905 12.091-11.895 12.135-17.452 8.532-22.384 9.295-24.839 14.246-24.801 12.62-27.908 15.823-29.558 18.72-31.051 21.758-32.616 21.208-34.218 20.805-35.392 20.181-37.211 21.642-36.713 22.474-36.338 23.347-36.149 25.433-35.697 26.601-36.6 27.059-38.682 27.583-41.071 28.25-43.427 28.952-46.174 28.433-46.551 27.554-47.188 26.7-47.808 32.783-51.032 33.268-57.751 34.805-63.059 36.402-68.579 32.96-74.261 29.673-79.628 33.38-81.81 31.948-85.466 30.993-88.127 28.639-94.684 27.583-101.789 23.137-107.552 16.9-115.635 11.961-124.71 4.947-132.184-2.004-139.59-9.145-146.84-16.559-153.778-20.405-157.377-26.442-158.68-27.823-164.814-35.418-169.899-40.505-178.1-49.111-181.935-49.801-182.243-50.512-182.649-51.025-183.188-57.619-190.124-66.047-193.387-75.126-195.459-76.768-195.834-78.426-196.592-79.813-197.553-84.204-200.594-89.298-202.168-93.998-204.555-94.749-204.936-95.857-204.566-96.791-204.643-97.886-204.733-99.117-204.654-100.04-205.13-106.366-208.394-112.984-209.999-120.159-210.227-124.529-210.367-124.901-210.766-126.35-206.104-128.124-206.15-128.989-206.757-128.979-208.829-128.96-213.172-129.494-213.631-133.453-212.109-139.459-209.801-144.731-212.832-150.214-214.104-151.329-214.362-152.063-216.258-153.305-217.815-154.646-215.546-155.479-212.57-158.811-213.357-160.022-213.643-161.362-213.974-162.301-214.717-166.632-218.143-166.581-218.19-170.59-214.434-170.994-214.055-171.55-213.838-172.033-213.545-172.626-215.653-173.222-217.762-174.143-221.017-178.247-216.54-181.813-217.139-185.69-219.319-187.212-220.174-189.337-220.186-191.187-220.187-197.04-220.188-202.895-219.88-208.745-219.969-210.35-219.994-212.229-220.623-213.479-221.612-216.558-224.047-219.866-224.112-223.303-223.147-226.401-222.277-228.966-222.432-231.873-224.317-234.142-225.789-237.256-226.105-240.055-226.573-242.644-227.005-245.34-226.783-247.94-227.176-249.914-227.474-251.215-227.079-252.296-225.341-253.485-223.428-255.621-223.561-256.783-224.84-260.634-229.078-265.172-227.263-269.516-226.621-271.954-226.261-274.286-225.196-276.672-224.469-280.229-223.386-283.773-222.996-287.425-224.217-288.3-224.51-289.535-224.251-290.434-223.857-294.115-222.244-295.037-222.453-297.882-225.367-299.549-227.074-301.453-228.548-303.571-230.408-307.994-224.653-313.185-222.03-319.816-222.634-324.403-223.053-327.596-219.665-331.471-218.137-335.198-216.667-338.848-214.994-342.494-213.326-344.195-212.548-345.807-211.574-347.458-210.687-348.116-210.333-348.732-209.786-349.432-209.644-358.406-207.82-367.399-206.088-376.368-204.242-378.222-203.861-379.973-203.001-381.819-202.554-383.46-202.157-385.302-201.499-386.815-201.888-389.919-202.687-392.434-201.419-395.158-200.551-396.912-199.992-398.937-199.187-400.585-199.576-408.398-201.423-415.644-199.169-422.31-195.937-431.863-191.306-441.593-189.124-452.198-188.616-458.029-188.336-463.931-187.677-469.827-187.496-470.976-187.46-472.158-187.055-473.261-187.226-482.328-188.628-491.138-186.354-500.07-185.72-506.994-185.229-513.643-184.157-520.226-182.189-521.12-181.922-522.444-182.038-522.879-181.459-525.657-177.764-529.742-177.71-533.718-177.11-535.594-176.827-537.531-176.306-539.208-175.442-548.02-170.904-557.63-168.043-565.903-162.3-568.028-160.825-570.9-159.795-573.34-158.907-578.757-156.937-581.981-152.231-586.858-149.772-588.344-149.023-589.836-147.872-590.761-146.519-592.203-144.409-594.09-143.495-596.441-143.005-597.538-142.776-599.088-142.469-599.528-141.688-603.045-135.44-610.676-132.344-611.715-123.907-612.326-118.938-615.483-114.13-618.126-109.619-619.894-106.601-619.987-103.516-620.526-100.336-621.44-94.938-621.111-89.681-619.99-84.359-619.453-81.814-619.167-79.086-619.456-76.519-620.553-66.777-617.751-58.068-613.424-49.515-610.768-44.264-608.91-38.607-606.73-33.117-605.752-30.653-605.323-27.93-602.761-26.334-602.036-25.883-601.165-24.775-601.247-24.072-601.714-20.054-599.109-17.174-597.521-14.034-596.212-11.446-593.641-9.527-592.041-7.046-590.497-4.65-589.536-1.886-588.195 .651-587.864 1.277-587.079 1.683-586.461 2.134-580.813 6.256-574.721 9.893-569.606 14.593-562.638 20.995-553.918 25.441-549.012 34.289-546.473 38.866-541.926 41.765-535.913 42.594-527.226 43.791-518.726 46.331-510.137 48.263-500.784 50.367-491.394 52.315-482.078 54.571-478.558 55.424-475.103 56.727-471.786 58.201-458.452 64.129-445.096 70.019-431.923 76.289-422.757 80.651-413.836 85.425-405.531 91.478-401.066 94.732-395.21 96.327-389.763 97.93-378.725 101.178-367.591 104.141-356.392 106.784-350.629 108.143-344.659 108.702-338.754 109.364-333.241 109.982-327.684 110.187-322.162 110.728-320.695 110.872-319.059 111.261-317.885 112.085-311.836 116.328-305.1 115.594-298.406 114.953-295.384 114.664-292.408 113.881-289.413 113.312-285.671 112.601-281.947 111.771-278.183 111.206-276.114 110.895-273.979 111.029-271.873 110.948-264.853 110.677-257.872 110.293-250.848 111.607-248.56 112.035-245.786 111.828-243.421 109.603-242.241 108.493-239.021 109.065-236.892 109.577-234.298 110.201-232.016 109.824-229.697 108.88-222.674 106.021-215.238 106.145-207.86 105.773-203.808 105.569-199.73 105.27-197.618 102.562-192.064 102.562-187.346 102.627-182.632 102.512-181.544 102.486-180.398 101.981-179.402 101.46-173.744 98.5-168.169 95.503-162.158 93.128-158.083 91.518-154.49 90.44-150.25 90.951-149.16 91.083-147.955 90.763-146.878 90.418-140.015 88.221-132.867 86.601-126.413 83.531-120.411 80.675-114.17 77.581-110.178 71.685-109.784 71.104-108.955 70.79-108.286 70.43-103.23 67.706-98.195 64.941-93.088 62.317-90.545 61.01-87.812 60.285-87.408 56.581-87.277 55.378-85.081 54.399-83.446 52.988-82.114 51.117-86.666 48.598-83.501 46.302-83.028 44.462-82.072 43.373-79.728 43.772-80.18 46.43-81.874 46.332-83.585 46.207-82.503 46.703-81.373 47.683-80.351 47.581-78.905 47.436-77.538 46.493-75.867 45.776-77.071 43.83-78.232 41.955-79.593 39.757-78.286 38.755-76.852 38.448-75.324 39.815-74.471 40.578-73.644 41.389-72.919 42.272-68.439 47.728-68.423 47.799-62.14 45.156-57.795 43.328-53.678 41.141-49.104 39.639-44.978 38.285-40.63 35.376-37.953 31.129-37.313 30.114-36.172 29.375-35.166 28.64-33.647 27.53-32.044 26.535-30.477 25.492Z" fill="#231f20"/>
<path transform="matrix(1,0,0,-1,666.9947,215.9917)" d="M0 0C.939 1.042 1.828 2.264 3.528 .13 2.334 .11 1.139 .091-.056 .072-.057 .072 0 0 0 0" fill="#231f20"/>
<path transform="matrix(1,0,0,-1,678.5792,222.95401)" d="M0 0C.6 .547 1.201 1.094 1.801 1.64 1.972 1.319 2.142 .999 2.312 .678 1.516 .481 .719 .284-.078 .087-.078 .087 0 0 0 0" fill="#231f20"/>
<path transform="matrix(1,0,0,-1,598.8323,247.45902)" d="M0 0C-.221-.4-.449-.813-.677-1.225-.366-1.366 .094-1.708 .229-1.609 .596-1.34 .824-.883 1.107-.501 .801-.362 .495-.224 0 0M-39.15 14.481C-39.493 14.081-39.876 13.759-40.064 13.348-40.134 13.194-39.748 12.832-39.57 12.565-39.203 12.873-38.789 13.147-38.506 13.519-38.443 13.601-38.843 14.035-39.15 14.481M-287.004-144.595C-287.088-144.899-287.173-145.203-287.258-145.507-286.43-145.698-285.602-145.889-284.774-146.079-284.706-145.818-284.639-145.556-284.571-145.294-285.382-145.061-286.193-144.828-287.004-144.595M-67.995 44.332C-67.889 44.721-67.783 45.11-67.677 45.499-68.975 45.801-70.273 46.103-71.572 46.404-71.648 46.128-71.725 45.851-71.801 45.574-70.532 45.16-69.264 44.746-67.995 44.332M27.445-145.371C27.592-145.023 27.739-144.674 27.886-144.326 26.867-143.899 25.848-143.473 24.83-143.046 24.686-143.386 24.543-143.727 24.399-144.067 25.414-144.502 26.43-144.936 27.445-145.371M-67.241 36.249C-66.911 36.397-66.581 36.544-66.251 36.692-66.314 37.198-66.242 37.781-66.475 38.19-66.763 38.697-67.305 39.059-67.737 39.484-67.993 39.312-68.25 39.14-68.507 38.968-68.085 38.062-67.663 37.155-67.241 36.249M-216.425-168.062C-216.727-168.552-217.03-169.042-217.332-169.533-216.194-169.977-215.057-170.421-213.919-170.865-213.756-170.516-213.592-170.166-213.429-169.817-214.428-169.232-215.426-168.647-216.425-168.062M-24.569-163.215C-25-163.244-25.43-163.272-25.861-163.3-25.802-164.438-25.743-165.576-25.683-166.715-25.312-166.697-24.94-166.68-24.569-166.662ZM-51.217 39.698C-51.64 39.388-52.063 39.078-52.486 38.768-51.707 37.857-50.928 36.946-50.149 36.034-49.878 36.231-49.607 36.427-49.336 36.623-49.963 37.648-50.59 38.673-51.217 39.698M-67.977-167.499C-70.361-164.759-71.79-164.928-72.824-167.427-72.995-167.841-72.848-168.386-72.848-169.266-71.201-168.669-69.844-168.177-67.977-167.499M-297.197-120.128C-297.282-120.597-297.368-121.066-297.453-121.535-296.042-122.44-294.732-123.6-293.203-124.208-284.944-127.497-276.34-130.068-268.41-134.003-259.317-138.516-249.325-137.537-239.87-140.716-240.053-139.768-240.05-139.36-240.208-139.031-242.888-133.465-244.925-127.664-252.497-126.354-256.847-125.601-261.017-123.528-264.585-120.189-266.75-118.162-270.451-116.905-273.49-116.851-281.518-116.708-289.37-118.531-297.197-120.128M-3.075-151.198C-2.223-150.794-.914-150.612-.592-149.95 1.691-145.263 5.973-142.898 10.355-141.165 16.75-138.636 21.906-134.541 27.153-130.327 29.759-128.235 33.063-126.856 36.247-125.692 38.309-124.938 40.726-125.155 43.267-124.91 43.465-120.18 45.933-117.332 49.422-114.9 51.398-113.522 52.923-111.364 54.341-109.34 59.497-101.981 64.523-94.53 69.612-87.094 69.179-85.541 68.347-83.947 68.374-82.366 68.429-79.132 68.863-75.894 69.291-72.678 69.973-67.551 70.46-67.266 76.066-67.958 76.269-67.983 76.536-67.486 76.773-67.231 76.646-66.888 76.589-66.297 76.381-66.238 70.768-64.642 68.245-60.453 66.636-55.236 66.047-53.324 64.928-51.226 63.407-50.029 60.941-48.087 58.045-46.586 55.146-45.325 51.918-43.922 50.858-41.789 52.064-38.027 46.222-36.019 40.526-34.062 34.707-32.063V-26.421C31.129-29.715 31.13-29.714 28.27-27.127 27.864-26.759 27.488-26.334 27.025-26.056 23.151-23.733 19.25-21.453 15.375-19.13 10.778-16.373 6.322-12.662 .809-12.824-3.545-12.951-6.976-11.371-10.588-9.712-13.901-8.189-17.023-5.912-20.49-5.137-25.882-3.932-28.602-.439-30.404 4.366-35.574-.373-39.347 4.571-43.286 5.894-47.15 7.192-47.393 11.334-47.166 15.287-48.825 15.888-50.387 16.606-52.026 17.018-57.774 18.464-63.499 19.826-67.289 25.073-67.805 25.787-69.522 26.353-70.304 26.041-76.578 23.536-82.375 26.968-88.388 27.397-89.76 27.495-91.188 29.117-92.268 30.326-93.242 31.416-93.774 32.901-94.44 34.103-98.002 34.103-101.22 34.172-104.434 34.086-108.21 33.984-112.071 33.183-115.728 33.756-118.392 34.174-120.767 34.514-123.527 34.167-127.419 33.678-131.402 33.91-135.282 35.564-141.088 38.039-147.117 39.996-153.063 42.142-158.794 44.21-165.135 44.615-170.144 48.715-171.205 49.583-173.029 49.542-174.514 49.865-180.867 51.249-187.211 52.677-193.584 53.961-198.05 54.861-202.532 55.763-207.051 56.297-215.984 57.354-224.528 54.451-233.234 53.273-238.696 52.535-244.06 51.079-249.473 49.969-253.786 49.084-258.147 47.358-262.415 47.556-271.187 47.962-279.23 45.282-286.845 42.018-294.927 38.555-303.598 37.981-311.692 35.064-315.616 33.649-319.494 32.102-323.36 30.534-325.123 29.818-326.733 28.442-328.536 28.161-337.893 26.702-346.231 22.204-355.169 19.531-357.733 18.764-360.305 17.881-362.938 17.51-373.12 16.073-381.4 10.318-389.85 5.284-394.921 2.264-399.499-1.541-405.124-3.721-406.972-4.438-408.641-5.901-410.083-7.333-416.409-13.619-422.686-19.94-429.772-25.402-432.963-27.862-436.989-29.651-437.022-34.748-437.032-36.355-437.875-38.087-438.725-39.534-441.082-43.549-442.039-48.563-446.907-50.862-447.939-51.349-448.721-52.711-449.252-53.842-450.452-56.399-451.225-59.167-452.525-61.665-457.378-70.988-453.335-82.415-443.605-85.599-433.988-88.746-424.211-91.103-413.958-91.521-406.746-91.815-399.331-91.634-392.484-94.809-391.68-95.182-390.602-94.969-389.651-95.022-383.885-95.341-377.739-93.743-372.831-98.415-372.464-98.764-371.751-98.862-371.192-98.881-364.833-99.099-359.293-102.861-352.793-102.909-350.174-102.928-347.154-104.465-345.083-106.217-343.302-107.723-341.601-108.597-339.514-108.55-335.464-108.461-332.098-110.142-328.704-112.009-325.215-113.929-321.959-116.315-317.603-116.301-313.748-116.287-306.399-115.079-302.31-113.861-293.875-111.347-285.341-109.164-276.832-106.903-276.145-106.721-275.314-106.892-274.591-107.068-272.214-107.645-269.823-108.199-267.5-108.955-265.331-109.661-263.121-110.398-261.14-111.501-256.482-114.096-252.094-117.21-247.317-119.545-244.13-121.103-241.485-123.002-239.023-125.531-234.891-129.775-232.144-134.678-230.436-140.286-229.041-144.87-226.366-148.014-221.13-148.321-219.654-148.408-218.175-149.088-216.776-149.682-214.621-150.598-212.533-151.675-210.482-152.652-210.906-153.267-212.23-154.302-212.172-155.253-211.938-159.089-205.807-161.872-203.039-159.162-199.439-155.637-196.152-156.867-192.553-158.52-191.537-158.986-190.361-160.028-189.522-159.807-182.765-158.023-176.155-160.327-169.478-160.294-168.143-160.287-166.259-159.773-165.572-160.45-162.98-163.004-159.951-162.064-157.372-161.452-152.678-160.339-148.29-161.183-143.774-162.041-141.942-162.389-139.988-162.049-138.126-162.297-135.843-162.601-133.598-163.193-131.028-163.724-118.8-156.727-104.89-158.669-91.39-158.41-90.446-159.937-89.676-161.182-89.221-161.917-83.281-160.3-77.878-158.466-72.326-157.449-68.837-156.81-65.125-157.416-61.513-157.425-60.414-157.428-58.452-157.545-58.352-157.194-57.564-154.42-55.397-155.487-53.709-155.255-50.679-154.838-47.65-154.419-44.617-154.021-42.918-153.798-41.193-153.356-39.515-153.485-37.569-153.635-35.982-153.143-34.122-152.598-28.049-150.821-21.508-147.514-16.992-153.691-12.205-152.836-8.113-152.106-4.022-151.375-3.39-154.021-3.39-154.021-.663-154.441-1.61-153.169-2.343-152.184-3.075-151.198M-118.777-176.824C-122.509-176.901-126.24-176.977-130.13-177.058V-181.952C-133.316-183.371-136.578-184.877-139.883-186.281-142.995-187.603-145.965-189.414-149.572-187.031-150.728-186.268-152.812-186.911-154.825-186.911-154.301-183.419-150.08-183.613-148.996-180.444-151.188-178.593-153.537-178.768-155.497-180.643-157.038-182.117-158.027-184.166-159.337-186.068-162.478-181.989-162.789-181.896-166.864-183.572-171.214-185.361-171.214-185.361-174.201-181.121-180.305-180.28-180.123-171.972-186.161-171.059-186.511-171.006-186.876-171.052-187.574-171.052-186.966-172.315-186.433-173.423-185.72-174.906-188.46-175.575-190.917-176.175-193.403-176.782-196.466-175.079-199.55-172.722-203.031-171.615-206.284-170.58-210.141-170.227-212.171-174.325-217.687-171.404-222.97-168.756-228.076-165.803-229.427-165.021-230.466-163.421-231.234-161.976-232.29-159.987-233.839-158.723-235.835-159.594-240.051-161.436-243.693-159.6-247.488-158.434-250.399-157.54-253.043-156.839-256.166-158.629-259.142-160.336-262.659-159.344-264.995-156.896-267.492-154.28-269.739-152.029-273.786-152.665-276.098-153.029-277.015-151.196-277.698-149.224-278.584-146.668-280.338-146.429-282.766-147.365-288.9-149.729-288.932-149.646-292.256-144.037-292.625-144.02-293.134-143.834-293.358-144.01-298.415-147.977-302.849-148.525-307.893-145.081-309.742-143.818-311.41-143.084-313.587-142.91-314.863-142.808-316.095-142.016-317.323-141.481-322.562-139.196-327.767-136.834-333.033-134.614-337.128-132.886-341-131.014-343.962-127.43-345.02-126.151-347.257-125.175-348.94-125.198-356.62-125.306-363.559-122.48-370.616-120.16-372.559-119.522-374.601-118.39-375.955-116.9-380.17-112.262-385.546-111.276-391.408-110.616-397.605-109.918-403.703-108.327-409.837-107.09-411.517-106.751-413.15-106.098-414.84-105.903-419.362-105.382-423.914-105.113-428.434-104.58-430.877-104.292-433.432-104.043-435.676-103.134-446.952-98.565-456.476-91.858-461.977-80.522-465.303-73.667-466.137-66.6-463.811-59.267-461.316-51.401-458.447-43.76-454.58-36.366-450.914-29.356-447.337-22.472-441.822-16.743-440.892-15.777-440.057-14.647-438.959-13.924-435.485-11.637-432.689-9.292-430.591-5.17-428.741-1.536-423.723 .526-419.981 3.104-419.552 3.399-418.329 2.543-417.171 2.107-415.9 8.111-411.962 10.435-406.456 12.037-402.475 13.196-399.151 16.618-395.545 19.046-394.949 19.447-394.406 19.928-394.155 20.124-393.337 19.159-392.708 18.416-392.079 17.673-392.879 16.479-393.679 15.286-394.478 14.092-394.98 13.864-395.482 13.635-395.985 13.406-395.373 13.073-394.762 12.74-394.15 12.407-394.295 12.997-394.441 13.587-394.586 14.177-393.322 14.611-392.057 15.046-390.792 15.481-391.261 16.191-391.731 16.901-392.2 17.611-388.57 22.765-382.592 24.793-377.81 28.413-373.557 27.682-371.626 31.327-368.608 32.975-365.814 34.501-361.988 34.663-358.653 34.527-355.181 34.384-352.582 34.88-349.823 37.337-347.725 39.205-344.403 39.759-341.563 40.713-338.883 41.613-336.164 42.567-333.386 42.954-330.644 43.336-327.807 43.037-324.81 43.037-324.455 43.681-323.819 44.313-323.799 44.963-323.714 47.732-322.024 48.278-319.899 47.657-316.926 46.789-314.4 47.409-311.596 48.582-309.446 49.482-306.787 49.164-304.602 49.365-304.759 50.356-304.935 51.468-305.112 52.579-303.947 52.32-302.658 52.288-301.655 51.737-300.718 51.222-300.084 50.156-299.435 49.46-296.517 50.29-293.866 51.044-290.141 52.103-290.438 51.749-289.759 52.251-289.499 52.916-287.699 57.521-284.84 59.77-279.677 57.967-276.481 56.851-276.291 60.355-274.514 61.814-270.589 61.072-266.884 61.526-263.146 63.671-261.271 64.747-258.389 63.954-256.001 64.282-253.19 64.668-251.868 63.217-250.595 61.018-250.084 60.137-248.487 59.883-246.732 59.025-246.606 61.196-246.525 62.592-246.422 64.369-245.349 64.722-244.116 65.111-242.895 65.535-241.521 66.013-239.776 66.159-238.873 67.102-237.3 68.742-235.777 68.659-233.731 68.594-231.038 68.509-228.314 69.325-225.606 69.774-224.967 69.881-224.133 70.409-223.745 70.168-220.946 68.431-218.144 69.536-215.333 69.95-214.39 70.089-213.276 70.561-212.52 70.234-208.679 68.575-206.606 69.789-204.006 73.152-201.448 76.46-196.807 74.879-193.213 73.805-191.333 73.243-189.998 73.06-187.966 73.443-184.752 74.048-181.02 73.904-177.967 72.802-174.993 71.729-172.291 71.07-169.134 71.23-166.75 71.35-163.717 71.266-162.033 69.933-158.652 67.258-155.325 67.677-151.786 68.537-147.863 69.491-144.262 69.91-141.563 65.911-141.043 65.14-139.556 64.657-138.52 64.664-135.078 64.69-131.633 65.123-128.486 63.144-128.077 62.887-127.202 62.866-126.83 63.134-122.87 65.98-120.103 63.035-116.627 61.232-117.447 59.371-118.19 57.688-118.955 55.951-120.309 55.891-121.563 55.835-122.843 55.778-122.764 55.155-122.837 54.609-122.661 54.51-120.661 53.396-118.7 52.154-116.58 51.327-112.163 49.604-107.727 48.79-103.397 51.824-100.893 53.578-98.512 55.241-95.054 52.957-93.785 52.119-91.097 53.428-88.84 53.793-87.829 52.72-86.683 51.504-85.556 50.307-82.378 52.047-79.848 53.409-76.186 50.843-73.034 48.633-69.346 51.571-65.946 52.504-65.419 52.649-64.951 53.008-64.093 53.458-63.857 52.19-63.662 51.14-63.405 49.755-56.516 48.275-49.611 46.409-46.211 38.788-44.691 39.149-43.082 39.531-41.369 39.938-41.887 34.309-41.095 33.067-36.046 32.707-31.065 32.352-26.921 29.958-22.752 27.706-21.578 27.072-21.146 25.066-20.016 23.051-18.518 22.79-15.723 23.364-14.509 20.365-14.25 19.726-12.895 19.56-12.079 19.113-10.402 18.193-7.94 17.633-7.231 16.212-4.748 11.236-.258 11.565 4.469 11.051 4.552 10.083 4.455 8.969 4.771 7.988 5.417 5.98 6.839 5.037 8.691 6.504 11.509 8.735 12.99 7.749 14.457 4.906 15.091 3.678 16.64 2.854 17.894 2.029 19.63 .888 21.481-.081 23.576-1.293 22.8-2.862 22.172-4.133 21.557-5.377 23.406-7.372 25.4-8.306 27.879-7.665 28.475-7.511 29.153-7.052 29.469-6.535 31.581-3.084 33.687-2.872 35.548-6.163 36.753-8.293 37.564-10.643 38.645-12.849 39.23-14.043 40.012-15.141 40.852-16.525 40.187-17.587 39.426-18.799 38.741-19.891 40.68-22.824 47.473-20.939 52.475-16.425 54.444-18.356 54.444-18.356 54.988-21.818 60.112-18.885 63.619-20.546 66.543-25.364 67.608-27.119 70.239-27.998 72.261-29.082 74.798-30.442 76.257-32.448 76.942-35.462 74.806-36.234 72.866-36.936 70.927-37.637 70.899-37.881 70.872-38.125 70.845-38.369 72.705-38.446 74.764-38.043 76.38-38.711 78.838-39.727 80.165-38.618 81.913-35.732 83.33-40 84.364-43.118 85.783-47.396 85.608-47.257 86.424-48.108 87.41-48.652 91.049-50.657 92.388-53.28 91.576-57.671 90.43-63.865 90.65-70.318 89.418-76.487 88.041-83.382 85.619-89.947 81.502-95.948 79.003-99.592 76.463-102.911 73.202-105.914 71.281-107.683 69.798-110.625 69.434-113.223 68.886-117.129 66.717-118.409 63.437-119.036 62.689-119.179 61.97-119.48 61.238-119.708 60.801-118.365 60.432-116.895 58.146-118.542 59.394-118.968 60.355-119.297 61.316-119.625 60.178-121.349 59.398-123.592 57.821-124.678 55.234-126.462 53.784-128.362 55.117-132.316 52.552-131.304 50.898-130.652 49.19-129.979 46.05-133.007 50.767-133.422 51.025-135.936 48.731-135.936 46.539-135.912 44.348-135.94 37.103-136.033 34.539-138.851 34.944-146.864 32.052-147.191 29.125-147.521 25.586-147.92 26.993-148.764 27.892-149.304 29.461-150.245 26.202-152.011 23.432-153.992 20.346-155.047 17.383-156.06 14.092-156.114 10.443-156.665 10.426-156.644 9.867-155.953 8.874-154.726 8.534-156.438 8.006-157.675 8.101-158.861 8.467-163.449 6.656-166.01 2.607-165.926 1.329-165.9 .065-165.15-1.202-164.731-.024-163.962 1.151-163.193 3.37-161.743H-2.376C-1.837-163.01-1.478-163.854-1.119-164.697-1.544-166.365-1.811-168.092-2.422-169.688-4.277-174.537-6.82-176.145-11.908-176.106-16.87-176.067-21.722-176.291-26.562-178.018-30.262-179.338-34.395-179.447-38.435-180.111-39.805-177.67-41.165-175.245-42.499-172.869-44.662-174.957-46.505-177.388-48.925-178.887-51.265-180.336-54.199-180.825-57.286-181.876-57.729-179.869-58.069-178.329-58.469-176.516-62.171-177.197-65.282-177.31-67.445-173.461-68.178-172.158-71.119-172.096-73.115-171.446-75.749-173.771-78.538-176.235-81.327-178.698-81.528-178.516-81.729-178.334-81.93-178.152-81.647-177.343-81.363-176.534-81.08-175.724-85.64-173.743-85.771-173.779-87.494-177.507-89.378-181.583-90.346-182.069-94.45-181.343-98.161-180.686-101.972-180.447-105.595-179.484-108.846-178.619-111.902-177.018-115.037-175.747-115.03-175.751-115.23-175.659-115.23-175.659-115.589-174.904-115.947-174.149-116.306-173.394-116.904-173.808-117.661-174.11-118.057-174.669-118.475-175.26-118.549-176.094-118.773-176.823Z" fill="#231f20"/>
<path transform="matrix(1,0,0,-1,570.0676,179.0773)" d="M0 0C3.553-2.69 3.553-2.69 .306-7.126 .216-4.129 .153-2.028 .09 .074 .09 .074 0 0 0 0" fill="#231f20"/>
<path transform="matrix(1,0,0,-1,530.0291,426.1037)" d="M0 0C.556-.829 1.112-1.659 1.669-2.488 1.357-2.725 1.045-2.962 .734-3.198 .115-2.348-.504-1.497-1.123-.646-.749-.431-.374-.215 0 0" fill="#231f20"/>
<path transform="matrix(1,0,0,-1,583.9631,192.90509)" d="M0 0C-.824-.761-1.648-1.523-2.472-2.284-2.679-1.905-2.886-1.527-3.094-1.149-2.042-.79-.99-.431 .062-.072 .063-.072 0 0 0 0" fill="#231f20"/>
<path transform="matrix(1,0,0,-1,483.6018,423.1184)" d="M0 0C0 0 .2-.091 .193-.087-1.058-.444-2.302-.805-3.546-1.165-3.547-1.164-3.543-1.163-3.543-1.162-2.362-.774-1.181-.387 0 0" fill="#231f20"/>
<path transform="matrix(1,0,0,-1,400.0448,248.5635)" d="M0 0C.032 .354 .064 .707 .096 1.061H-2.32C-2.34 .83-2.359 .599-2.379 .368-1.586 .245-.793 .123 0 0M-52.404 1.555C-52.56 1.165-52.717 .776-52.873 .387-51.898 .025-50.922-.337-49.947-.699-49.811-.365-49.676-.031-49.541 .302-50.495 .72-51.45 1.137-52.404 1.555M-13.517-4.847C-15.74-3.224-15.74-3.224-17.033-4.847ZM2.997-2.66C-3.268-5.405-9.511-8.457-16.011-10.793-17.957-11.493-20.622-10.192-23.174-9.772-23.194-10.165-23.228-10.859-23.263-11.556-23.602-11.641-24.042-11.906-24.263-11.781-26.825-10.337-29.291-9.661-32.454-10.208-35.49-10.733-38.775-9.611-41.943-9.669-43.541-9.699-45.121-10.739-47.112-11.469-48.123-10.633-49.401-9.576-50.995-8.258-54.927-12.036-57.859-18.513-65.445-13.693-64.115-12.446-63.003-11.403-61.694-10.174-64.911-8.871-66.885-10.923-68.994-12.389-70.332-11.844-71.562-11.343-73.037-10.741-75.703-14.009-79.101-14.082-82.869-12.915-84.076-12.542-85.806-12.378-86.77-12.973-90.039-14.988-93.038-13.787-96.292-12.764-96.501-11.693-96.723-10.56-96.998-9.153-97.918-9.592-98.68-9.703-98.84-10.073-99.738-12.159-101.221-13.13-103.405-12.451-105.391-11.832-105.539-10.251-105.545-8.31-105.552-6.148-106.51-4.245-107.673-2.176-109.848 1.694-111.434 6.346-109.684 11.037-108.441 14.37-108.165 17.591-108.784 21.13-109.841 27.175-108.386 28.865-102.553 30.445-95.983 32.225-89.424 34.102-82.994 36.321-79.762 37.437-76.956 36.696-74.027 35.771-70.102 34.531-66.441 34.261-64.033 38.226-57.876 37.901-51.882 34.554-45.795 39.292-44.674 35.29-43.407 31.683-42.713 27.968-42.233 25.404-45.938 22.438-49.363 22.137-53.182 21.8-57.01 21.537-60.812 21.064-62.697 20.829-64.525 20.164-66.391 19.748-69.997 18.943-73.627 18.081-76.54 22.115-79.29 16.604-83.224 19.629-86.921 20.064-89.109 17.296-91.874 16.712-95.461 17.409-102.403 18.757-106.412 13.717-104.137 6.956-103.252 4.324-100.896 3.635-98.707 3.276-93.329 2.396-87.903 1.698-82.469 1.308-79.305 1.082-76.09 1.675-72.895 1.73-71.587 1.753-70.176 1.556-68.98 1.058-66.418-.008-64.179 .475-61.815 1.677-59.266 2.974-56.653 4.321-53.909 5.012-51.226 5.688-48.292 6.302-45.691 4.261-45.001 3.721-43.806 3.011-43.235 3.264-39.063 5.112-35.842 2.766-33.414 1.437-27.648 3.648-23.218 2.19-18.862-.367-13.186 3.706-7.623 7.697-1.678 11.962-1.908 15.019-3.856 16.692-7.052 17.857-12.784 19.945-18.419 22.335-23.972 24.868-27.832 26.629-28.07 27.922-26.385 32.007-25.962 33.032-25.948 34.222-25.559 35.267-24.941 36.928-24.166 38.531-23.467 40.136-19.588 39.568-17.282 34.952-13.274 38.329-12.789 36.78-12.415 35.582-11.879 33.869-10.781 34.905-10.019 35.623-9.052 36.535-7.744 35.142-6.566 33.591-5.088 32.418-4.149 31.672-2.786 31.193-1.575 31.101 4.161 30.663 7.892 27.683 8.239 22.052 8.668 15.074 10.023 7.805 4.601 1.74 3.675 .704 3.554-1.052 2.997-2.66" fill="#231f20"/>
<path transform="matrix(1,0,0,-1,505.2142,299.1031)" d="M0 0C-.255 .201-.502 .551-.766 .564-1.059 .579-1.366 .285-1.667 .126-1.328-.15-1.013-.478-.629-.663-.545-.703-.216-.236 0 0M-8.37 3.367C-10.279 3.466-11.737 3.542-13.67 3.642-11.361 .517-11.361 .517-8.37 3.367M-21.557-8.12V-3.392C-20.798-2.762-19.792-1.927-17.975-.419-20.938 .408-23.168 1.031-25.404 1.656-25.204 10.481-24.576 12.115-20.466 14.618-18.588 13.423-16.752 12.256-14.725 10.967-15.112 10.04-15.523 9.059-16.047 7.805-9.385 6.577-2.864 5.374 3.882 4.131 3.98 3.37 3.906 2.571 4.203 1.949 4.73 .842 5.374-.914 6.165-1.026 7.406-1.203 8.862-.349 10.127 .273 11.182 .792 12.092 1.604 13.067 2.286L12.966 2.348C12.966 2.348 12.966 2.348 12.966 2.348 13.582 1.509 14.143 .012 14.825-.045 16.876-.217 19.55-.589 20.955 .473 27.471 5.398 31.274 .06 36.034-2.812 40.511-1.321 40.511-1.321 45.535-4.443 50.787-.217 56.452 3.132 62.512-3.517 66.008-.68 66.393 .085 67.416 6.339 62.204 12.439 55.503 15.102 47.436 15.6 42.134 15.927 36.912 17.542 31.46 18.619 31.372 20.259 31.299 21.612 31.174 23.933 27.149 18.358 22.479 17.915 16.985 18.689 11.15 19.512 5.174 19.308-.736 19.626-2.643 19.729-4.571 19.915-6.431 20.324-10.723 21.27-14.992 22.327-19.241 23.451-20.278 23.725-21.2 24.434-22.128 24.919-20.441 30.283-17.027 32.537-12.29 32.752-5.922 33.041-.397 30.911 5.069 28.109 6.194 27.532 7.647 27.31 8.927 27.37 13.334 27.578 17.633 26.347 22.214 28.548 24.966 29.87 29.187 28.583 32.628 27.88 35.397 27.315 37.776 27.861 40.443 28.33 45.522 29.222 50.619 30.383 55.982 29.266 59.582 28.517 63.445 29.043 67.189 28.956 67.717 28.943 68.24 28.689 69.245 28.417 68.999 26.402 68.761 24.447 68.457 21.951 70.212 22.579 71.547 23.056 72.986 23.571 73.384 23.144 73.877 22.804 74.114 22.334 78.735 13.165 78.477 4.27 72.353-4.153 69.103-8.622 66.349-13.387 61.901-17.052 58.029-20.243 54.564-19.855 50.961-17.663 49.345-16.68 48.212-16.01 46.315-16.745 40.822-18.873 35.182-19.27 29.429-17.769 28.529-17.535 27.521-17.637 26.569-17.694 17.594-18.229 8.684-17.285-.144-15.985-5.179-15.243-10.049-13.366-14.978-11.949-15.489-11.802-16.256-11.346-16.299-10.965-16.701-7.406-19.774-8.879-21.607-8.054Z" fill="#231f20"/>
<path transform="matrix(1,0,0,-1,416.6664,323.3213)" d="M0 0C-5.642-2.078-11.195-.881-16.749 .444-17.809 .697-19.636 1.339-19.846 1.005-22.075-2.53-23.684 .985-25.121 1.273-25.406 3.287-25.673 5.171-25.939 7.054-26.384 7.152-26.828 7.251-27.272 7.349-28.622 5.244-29.972 3.14-31.783 .315-32.367 2.279-32.747 3.558-33.219 5.144-35.018 3.965-36.581 2.942-37.987 2.021-46.032 4.178-53.725 4.502-61.473 .405-63.044 2.63-65.381 4.363-64.419 7.788-63.868 9.749-65.187 10.806-66.843 11.815-71.091 14.402-71.157 16.778-67.598 20.138-65.258 22.349-63.151 24.806-60.774 27.329-59.616 26.623-58.413 25.891-57.397 25.271-56.698 25.617-56.119 25.735-56.081 25.949-55.79 27.61-55.603 29.289-55.281 31.756-51.619 32.725-47.402 35.895-42.088 33.669-41.248 33.317-39.88 33.842-38.9 34.281-35.597 35.763-35.622 35.819-31.566 35.118-30.315 40.083-26.206 41.362-21.042 42.472-21.345 39.693-21.601 37.34-21.947 34.171-19.696 34.442-17.556 34.674-15.425 34.969-14.481 35.099-13.35 35.8-12.654 35.48-8.439 33.539-4.791 35.906-1.029 36.895 4.763 38.419 10.146 37.13 15.342 34.858 16.351 34.417 17.075 32.414 17.205 31.062 17.498 28.016 17.337 24.926 17.36 21.854 14.317 24.67 11.787 21.645 8.773 20.743 8.937 22.467 9.063 23.798 9.214 25.386 6.624 25.682 4.429 25.932 1.816 26.23 2.166 22.904 .494 21.704-2.219 21.768-4.482 21.82-6.756 21.918-8.997 22.206-10.474 22.395-15.209 22.564-16.509 22.489-17.581 22.428-18.728 22.693-19.758 23.052-23.488 24.351-27.203 24.613-31.021 23.427-32.472 22.977-34.039 22.913-35.509 22.511-41.241 20.94-46.956 19.305-52.694 17.688-46.855 17.688-41.128 17.101-35.596 17.889-31.722 18.44-28.536 19.327-26.722 14.788-23.544 18.666-22.535 14.16-20.489 13.853-17.69 17.951-12.602 16.617-8.82 18.548-8.229 18.849-6.744 17.823-5.916 17.124-4.917 16.28-4.177 15.129-3.584 14.42 2.713 16.319 8.673 18.059 14.584 19.954 15.599 20.28 16.402 21.264 17.304 21.944 22.121 20.618 24.222 24.012 26.435 27.204 27.555 28.819 28.662 30.443 30.489 31.814 32.345 23.796 32.89 16.092 28.432 8.295H17.459C17.701 6.887 17.99 5.206 18.407 2.78 17.115 2.949 15.568 2.695 15.057 3.307 13.699 4.933 12.788 6.933 11.506 9.114 9.306 8.041 7.394 7.109 5.472 6.173 6.68 3.801 7.608 1.979 8.848-.453 5.177-.783 2.476-2.228-.085 .091 1.789 .104 3.694 .073 4.023 3.373 2.329 3.47 .849 3.555-1.08 3.666-.569 2.591-.268 2.14-.142 1.644-.009 1.118-.04 .55 0 0" fill="#231f20"/>
<path transform="matrix(1,0,0,-1,198.0935,307.1497)" d="M0 0C-.164-.335-.447-.763-.55-1.23-.578-1.355 .029-1.818 .19-1.751 .611-1.577 .947-1.196 1.317-.898 1.047-.714 .776-.529 0 0M55.025 6.926C54.219 9.511 53.729 11.084 52.887 13.783 51.825 10.541 51.482 8.74 55.025 6.926M49.637 11.723C45.836 15.939 41.428 17.411 37.368 15.466 34.015 13.86 31.097 15.045 27.898 15.652 23.823 16.426 19.64 16.765 15.488 16.936 13.707 17.01 12.311 15.821 12.433 13.357 18.935 11.477 24.892 7.575 32.252 9.29 34.172 9.737 36.706 9.385 38.439 8.444 43.274 5.818 46.306 8.223 49.637 11.723M-1.883 16.083C-1.612 17.584-1.061 19.096-1.122 20.583-1.321 25.463 1.241 27.91 5.669 29.004 11.176 30.365 16.649 31.865 22.168 33.171 24.943 33.827 26.982 32.655 28.162 30.041 26.679 27.706 26.679 27.706 29.176 26.923 28.761 28.129 28.423 29.112 28.084 30.096 30.88 29.513 33.941 29.325 34.435 25.023 36.935 26.056 39.163 26.65 41.039 27.813 46.263 31.052 49.633 29.675 50.865 23.866 51.292 21.85 52.637 20.03 53.734 17.768 55.604 18.777 56.695 19.48 57.873 19.98 61.377 21.466 63.62 20.541 65.724 17.022 66.281 16.091 67.146 15.326 67.937 14.554 75.42 7.24 73.399-5.165 63.946-9.866 63.449-10.114 62.95-10.356 62.181-10.733 60.127-8.42 57.93-7.233 54.356-7.591 49.737-8.054 45.122-6.699 40.423-9.014 38.309-10.055 35.031-8.734 31.68-8.43 31.3-6.399 30.79-3.676 30.29-1.005 28.41-.066 28.724-5.006 26.222-2.298 25.899-1.949 23.906-2.601 23.143-3.293 20.148-6.01 17.669-4.953 15.021-2.745 11.821-.076 9.363 .134 7.448-3.198 4.452-8.411 .364-8.388-4.343-7.135-9.19-5.845-12.272-2.754-13.117 2.333-13.145 2.504-13.324 2.651-13.433 2.809-21.285 5.636-23.907 10.756-19.463 22.144-13.59 20.157-7.705 18.166-1.819 16.176-1.168 14.064 .239 14.48 1.713 15.121 6 13.678 6 13.678 6.186 17.326 4.62 16.535 3.139 15.787 1.658 15.038 .779 16.408-.315 17.049-1.883 16.083" fill="#231f20"/>
<path transform="matrix(1,0,0,-1,468.9452,364.8606)" d="M0 0C1.446-.147 2.949-.512 4.421-.413 12.138 .109 19.728-.426 27.192-2.584 29.828-3.346 32.285-3.231 34.864-1.639 36.441-.665 38.895-.378 40.765-.747 46.581-1.895 52.272-3.678 58.087-4.832 59.962-5.205 62.151-4.631 64.035-4.004 64.748-3.767 65.495-2.069 65.335-1.201 65.169-.3 63.833 1.152 63.166 1.071 58.578 .512 55.814 3.543 52.495 5.751 50.671 6.964 48.169 7.132 46.006 7.869 44.328 8.441 42.702 9.165 40.568 10.015 39.771 8.569 38.419 7.299 35.58 7.66 29.919 8.378 24.161 8.698 18.457 8.567 14.955 8.486 11.462 7.341 7.999 6.53 5.266 5.89 2.45 5.495 .498 7.794-.624 9.115-1.47 11.297-1.245 12.927-1.086 14.074 .987 15.623 2.374 15.822 9.572 16.857 16.824 17.522 24.058 18.301 26.131 18.524 28.255 18.489 30.274 18.937 35.125 20.012 39.838 19.254 44.455 17.946 45.947 17.523 47.145 16.065 48.909 14.763 53.699 16.926 59.116 17.176 64.502 14.874 73.568 11 75.684 6.252 75.216-3.863 75.043-7.618 68.079-14.672 64.252-15.212 62.619-15.443 60.845-14.668 59.588-14.434 57.006-14.704 54.669-15.351 52.436-15.096 48.048-14.595 43.724-13.472 39.71-16.434 39.145-16.851 38.173-17.101 37.509-16.939 31.079-15.37 25.059-18.744 18.806-18.438 14.68-18.236 10.59-17.185 6.497-16.443 4.434-16.068 2.419-15.412 .349-15.098-4.756-14.323-9.52-12.564-13.76-9.714-18.052-6.83-21.313 1.935-19.588 6.56-18.877 8.466-16.496 9.743-14.896 11.327-12.955 13.25-11.233 12.844-9.449 11.028-8.972 10.543-8.042 10.504-7.323 10.253-1.812 8.335-.062 5.976 0 0" fill="#231f20"/>
<path transform="matrix(1,0,0,-1,518.2811,296.8174)" d="M0 0C-.646 1.155-1.293 2.311-2.079 3.717-.127 3.941 1.661 4.146 4.609 4.485 2.545 2.549 1.221 1.306-.102 .063-.101 .063 0 0 0 0" fill="#231f20"/>
<path transform="matrix(1,0,0,-1,223.3634,316.6607)" d="M0 0C-2.172-1.56-3.474-2.495-4.775-3.429-4.604-1.028-4.128 .958 0 0" fill="#231f20"/>
<path transform="matrix(1,0,0,-1,483.607,307.1569)" d="M0 0C-1.901-.431-3.803-.863-5.704-1.294-4.062 1.32-1.956 .128 .049-.065 .05-.066 0 0 0 0" fill="#231f20"/>
</g>
</svg>
